SplineFontDB: 3.0
FontName: Muli-Extra-Light
FullName: Muli Extra-Light
FamilyName: Muli
Weight: Light
ItalicAngle: 0
UnderlinePosition: 0
UnderlineWidth: 0
Ascent: 1638
Descent: 410
UFOAscent: 2433
UFODescent: -925
LayerCount: 2
Layer: 0 0 "Back"  1
Layer: 1 0 "Fore"  0
OS2Version: 0
OS2_WeightWidthSlopeOnly: 0
OS2_UseTypoMetrics: 0
CreationTime: 1391647582
ModificationTime: 1391647582
PfmFamily: 0
TTFWeight: 250
TTFWidth: 5
LineGap: 0
VLineGap: 0
OS2TypoAscent: 0
OS2TypoAOffset: 1
OS2TypoDescent: 0
OS2TypoDOffset: 1
OS2TypoLinegap: 0
OS2WinAscent: 0
OS2WinAOffset: 1
OS2WinDescent: 0
OS2WinDOffset: 1
HheadAscent: 0
HheadAOffset: 1
HheadDescent: 0
HheadDOffset: 1
OS2Vendor: 'NeWT'
Lookup: 258 0 0 "'kern' Horizontal Kerning in Latin lookup 0"  {"'kern' Horizontal Kerning in Latin lookup 0 subtable"  } ['kern' ('latn' <'dflt' > ) ]
DEI: 91125
PickledData: "(dp1
S'com.typemytype.robofont.foreground.layerStrokeColor'
p2
(F0.5
F0
F0.5
F0.69999999999999996
tp3
sS'com.schriftgestaltung.fontMasterID'
p4
S'CAA31E91-2985-420A-82BA-6B4D8404D924'
p5
sS'GSDimensionPlugin.Dimensions'
p6
(dp7
S'CAA31E91-2985-420A-82BA-6B4D8404D924'
p8
(dp9
ssS'com.superpolator.editor.generateInfo'
p10
S'Generated with LTR Superpolator version 120823_1018_beta_'
p11
sS'com.typemytype.robofont.b.layerStrokeColor'
p12
(F1
F0.75
F0
F0.69999999999999996
tp13
sS'com.schriftgestaltung.useNiceNames'
p14
I01
sS'com.typemytype.robofont.layerOrder'
p15
(S'b'
tp16
sS'com.typemytype.robofont.segmentType'
p17
S'curve'
p18
sS'com.typemytype.robofont.sort'
p19
((dp20
S'type'
p21
S'characterSet'
p22
sS'ascending'
p23
S'Latin-1'
p24
stp25
sS'public.glyphOrder'
p26
(S'A'
S'Aacute'
S'Abreve'
S'Acaron'
S'Acircumflex'
S'Adblgrave'
S'Adieresis'
S'Adotaccent'
S'Agrave'
S'Ainvertedbreve'
S'Amacron'
S'Aogonek'
S'Aring'
S'Aringacute'
S'Atilde'
S'AE'
S'AEacute'
S'AEmacron'
S'B'
S'Bdotaccent'
S'C'
S'Cacute'
S'Ccaron'
S'Ccedilla'
S'Ccircumflex'
S'Cdotaccent'
S'D'
S'Eth'
S'Dcaron'
S'Dcroat'
S'Ddotaccent'
S'Dz'
S'Dzcaron'
S'E'

StartChar: A
Encoding: 65 65 0
Width: 1329
VWidth: 0
Flags: W
PickledData: "(dp1
S'org.robofab.postScriptHintData'
p2
(dp3
s."
AnchorPoint: "ogonek" 1109 0 basechar 0
AnchorPoint: "top" 755 1456 basechar 0
LayerCount: 2
Fore
SplineSet
-21 0 m 257
 100 0 l 257
 292 399 l 257
 966 399 l 257
 1060 0 l 257
 1172 0 l 257
 821 1456 l 257
 687 1456 l 257
 -21 0 l 257
328 473 m 257
 537 920 l 257
 745 1366 l 257
 847 920 l 257
 947 473 l 257
 328 473 l 257
EndSplineSet
EndChar

StartChar: AE
Encoding: 198 198 1
Width: 1860
VWidth: 0
Flags: W
PickledData: "(dp1
S'org.robofab.postScriptHintData'
p2
(dp3
sS'com.typemytype.robofont.layerData'
p4
(dp5
S'b'
(dp6
S'name'
p7
S'AE'
p8
sS'lib'
p9
(dp10
sS'unicodes'
p11
(tsS'width'
p12
F2073.5500000000002
sS'contours'
p13
(tsS'components'
p14
(tsS'anchors'
p15
(tsss."
AnchorPoint: "top" 1354 1456 basechar 0
LayerCount: 2
Fore
SplineSet
-54 0 m 257
 35 0 l 257
 354 459 l 257
 1004 459 l 257
 991 0 l 257
 1712 0 l 257
 1722 83 l 257
 1068 83 l 257
 1089 719 l 257
 1706 719 l 257
 1715 796 l 257
 1100 796 l 257
 1123 1369 l 257
 1856 1369 l 257
 1866 1456 l 257
 958 1456 l 257
 -54 0 l 257
398 536 m 257
 974 1369 l 257
 1040 1369 l 257
 1003 536 l 257
 398 536 l 257
EndSplineSet
EndChar

StartChar: B
Encoding: 66 66 18
Width: 1352
VWidth: 0
Flags: W
PickledData: "(dp1
S'org.robofab.postScriptHintData'
p2
(dp3
sS'com.typemytype.robofont.layerData'
p4
(dp5
S'b'
(dp6
S'name'
p7
S'B'
sS'lib'
p8
(dp9
sS'unicodes'
p10
(tsS'width'
p11
F1346.45
sS'contours'
p12
(tsS'components'
p13
(tsS'anchors'
p14
(tsss."
AnchorPoint: "top" 738 1456 basechar 0
LayerCount: 2
Fore
SplineSet
135 0 m 257
 635 0 l 258
 961 0 1150 133 1181 385 c 256
 1209 612 1087 739 871 757 c 257
 1054 776 1169 886 1196 1099 c 256
 1224 1333 1071 1456 726 1456 c 258
 313 1456 l 257
 135 0 l 257
253 86 m 257
 330 708 l 257
 681 708 l 258
 998 708 1097 597 1071 385 c 256
 1047 189 900 86 645 86 c 258
 253 86 l 257
342 794 m 257
 413 1370 l 257
 716 1370 l 258
 990 1370 1109 1276 1088 1099 c 256
 1063 899 956 794 691 794 c 258
 342 794 l 257
EndSplineSet
EndChar

StartChar: C
Encoding: 67 67 20
Width: 1389
VWidth: 0
Flags: W
PickledData: "(dp1
S'org.robofab.postScriptHintData'
p2
(dp3
sS'com.typemytype.robofont.layerData'
p4
(dp5
S'b'
(dp6
S'name'
p7
S'C'
sS'lib'
p8
(dp9
sS'unicodes'
p10
(tsS'width'
p11
F1394.1500000000001
sS'contours'
p12
((dp13
S'points'
p14
((dp15
S'segmentType'
p16
S'curve'
p17
sS'x'
F785
sS'smooth'
p18
I01
sS'y'
F-23
s(dp19
S'y'
F-23
sS'x'
F346
sg18
I00
s(dp20
S'y'
F309
sS'x'
F108
sg18
I00
s(dp21
g16
S'curve'
p22
sS'x'
F108
sg18
I01
sS'y'
F713
s(dp23
S'y'
F1125
sS'x'
F108
sg18
I00
s(dp24
S'y'
F1483
sS'x'
F371
sg18
I00
s(dp25
g16
S'curve'
p26
sS'x'
F814
sg18
I01
sS'y'
F1483
s(dp27
S'y'
F1483
sS'x'
F995
sg18
I00
s(dp28
S'y'
F1437
sS'x'
F1144
sg18
I00
s(dp29
g16
S'curve'
p30
sS'x'
F1265
sg18
I00
sS'y'
F1329
s(dp31
g16
S'line'
p32
sS'x'
F1200
sg18
I00
sS'y'
F1219
s(dp33
S'y'
F1295
sS'x'
F1099
sg18
I00
s(dp34
S'y'
F1334
sS'x'
F969
sg18
I00
s(dp35
g16
S'curve'
p36
sS'x'
F833
sg18
I01
sS'y'
F1334
s(dp37
S'y'
F1334
sS'x'
F464
sg18
I00
s(dp38
S'y'
F1022
sS'x'
F291
sg18
I00
s(dp39
g16
S'curve'
p40
sS'x'
F291
sg18
I01
sS'y'
F712
s(dp41
S'y'
F398
sS'x'
F291
sg18
I00
s(dp42
S'y'
F125
sS'x'
F453
sg18
I00
s(dp43
g16
S'curve'
p44
sS'x'
F811
sg18
I01
sS'y'
F125
s(dp45
S'y'
F125
sS'x'
F974
sg18
I00
s(dp46
S'y'
F172
sS'x'
F1134
sg18
I00
s(dp47
g16
S'curve'
p48
sS'x'
F1243
sg18
I00
sS'y'
F268
s(dp49
g16
S'line'
p50
sS'x'
F1301
sg18
I00
sS'y'
F127
s(dp51
S'y'
F28
sS'x'
F1178
sg18
I00
s(dp52
S'y'
F-23
sS'x'
F996
sg18
I00
stp53
stp54
sS'components'
p55
(tsS'anchors'
p56
(tsss."
AnchorPoint: "bot" 719 0 basechar 0
AnchorPoint: "top" 896 1456 basechar 0
LayerCount: 2
Fore
SplineSet
718 -22 m 256
 883 -22 1048 25 1198 115 c 257
 1172 190 l 257
 1038 108 884 65 728 65 c 256
 369 65 169 314 217 701 c 256
 268 1123 538 1395 906 1395 c 256
 1050 1395 1175 1353 1266 1274 c 257
 1318 1342 l 257
 1222 1433 1083 1481 916 1481 c 256
 481 1481 165 1176 107 701 c 256
 52 261 292 -22 718 -22 c 256
EndSplineSet
EndChar

StartChar: D
Encoding: 68 68 27
Width: 1523
VWidth: 0
Flags: W
PickledData: "(dp1
S'org.robofab.postScriptHintData'
p2
(dp3
sS'com.typemytype.robofont.layerData'
p4
(dp5
S'b'
(dp6
S'name'
p7
S'D'
sS'lib'
p8
(dp9
sS'unicodes'
p10
(tsS'width'
p11
F1526.5999999999999
sS'contours'
p12
(tsS'components'
p13
(tsS'anchors'
p14
(tsss."
AnchorPoint: "mid" 303 755 basechar 0
AnchorPoint: "top" 828 1456 basechar 0
LayerCount: 2
Fore
SplineSet
253 86 m 257
 411 1370 l 257
 677 1370 l 258
 1121 1370 1328 1143 1275 712 c 256
 1225 302 971 86 541 86 c 258
 253 86 l 257
135 0 m 257
 531 0 l 258
 1033 0 1328 246 1385 712 c 256
 1445 1199 1203 1456 687 1456 c 258
 313 1456 l 257
 135 0 l 257
EndSplineSet
EndChar

StartChar: DEL
Encoding: 127 127 28
Width: 1521
VWidth: 0
Flags: W
PickledData: "(dp1
S'org.robofab.postScriptHintData'
p2
(dp3
s."
LayerCount: 2
Fore
SplineSet
286 124 m 257
 434 1330 l 257
 1235 1330 l 257
 1087 124 l 257
 286 124 l 257
99 0 m 257
 1244 0 l 257
 1422 1456 l 257
 277 1456 l 257
 99 0 l 257
EndSplineSet
EndChar

StartChar: Delta
Encoding: 916 916 32
Width: 1298
VWidth: 0
Flags: W
PickledData: "(dp1
S'org.robofab.postScriptHintData'
p2
(dp3
s."
LayerCount: 2
Fore
SplineSet
-48 0 m 257
 1168 0 l 257
 1174 48 l 257
 754 1451 l 257
 723 1451 l 257
 -42 48 l 257
 -48 0 l 257
58 77 m 257
 716 1295 l 257
 1075 77 l 257
 58 77 l 257
EndSplineSet
EndChar

StartChar: E
Encoding: 69 69 35
Width: 1219
VWidth: 0
Flags: W
PickledData: "(dp1
S'org.robofab.postScriptHintData'
p2
(dp3
s."
AnchorPoint: "ogonek" 752 0 basechar 0
AnchorPoint: "bot" 592 0 basechar 0
AnchorPoint: "top" 728 1456 basechar 0
LayerCount: 2
Fore
SplineSet
135 0 m 257
 975 0 l 257
 985 86 l 257
 251 86 l 257
 327 701 l 257
 992 701 l 257
 1002 787 l 257
 339 787 l 257
 411 1370 l 257
 1113 1370 l 257
 1123 1456 l 257
 313 1456 l 257
 135 0 l 257
EndSplineSet
EndChar

StartChar: Eng
Encoding: 330 330 46
Width: 1503
VWidth: 0
Flags: W
PickledData: "(dp1
S'org.robofab.postScriptHintData'
p2
(dp3
s."
LayerCount: 2
Fore
SplineSet
1481 1456 m 257
 1375 1456 l 257
 1213 142 l 257
 1110 335 l 257
 464 1456 l 257
 358 1456 l 257
 179 0 l 257
 285 0 l 257
 445 1303 l 257
 533 1137 l 257
 1196 1 l 257
 1186 -84 l 258
 1164 -260 1064 -346 865 -346 c 256
 772 -346 642 -335 452 -285 c 257
 434 -372 l 257
 607 -411 745 -428 855 -428 c 256
 1223 -428 1272 -231 1302 0 c 258
 1481 1456 l 257
EndSplineSet
EndChar

StartChar: Euro
Encoding: 8364 8364 50
Width: 1334
VWidth: 0
Flags: W
PickledData: "(dp1
S'org.robofab.postScriptHintData'
p2
(dp3
sS'com.typemytype.robofont.layerData'
p4
(dp5
S'b'
(dp6
S'name'
p7
S'Euro'
p8
sS'lib'
p9
(dp10
sS'unicodes'
p11
(tsS'width'
p12
I1190
sS'contours'
p13
(tsS'components'
p14
(tsS'anchors'
p15
(tsss."
LayerCount: 2
Fore
SplineSet
-85 542 m 257
 790 542 l 257
 806 614 l 257
 175 614 l 257
 200 838 l 257
 862 838 l 257
 879 916 l 257
 -35 916 l 257
 -50 838 l 257
 165 838 l 257
 141 614 l 257
 -71 614 l 257
 -85 542 l 257
EndSplineSet
Refer: 20 67 N 1 0 0 1 0 0 2
EndChar

StartChar: F
Encoding: 70 70 51
Width: 1090
VWidth: 0
Flags: W
PickledData: "(dp1
S'org.robofab.postScriptHintData'
p2
(dp3
s."
AnchorPoint: "top" 718 1456 basechar 0
LayerCount: 2
Fore
SplineSet
135 0 m 257
 243 0 l 257
 328 693 l 257
 940 693 l 257
 950 779 l 257
 338 779 l 257
 411 1370 l 257
 1080 1370 l 257
 1090 1456 l 257
 313 1456 l 257
 135 0 l 257
EndSplineSet
EndChar

StartChar: G
Encoding: 71 71 53
Width: 1513
VWidth: 0
Flags: W
PickledData: "(dp1
S'org.robofab.postScriptHintData'
p2
(dp3
sS'com.typemytype.robofont.layerData'
p4
(dp5
S'b'
(dp6
S'name'
p7
S'G'
sS'lib'
p8
(dp9
sS'unicodes'
p10
(tsS'width'
p11
F1528.2
sS'contours'
p12
((dp13
S'points'
p14
((dp15
S'segmentType'
p16
S'curve'
p17
sS'x'
F841
sS'smooth'
p18
I01
sS'y'
F-23
s(dp19
S'y'
F-23
sS'x'
F361
sg18
I00
s(dp20
S'y'
F267
sS'x'
F108
sg18
I00
s(dp21
g16
S'curve'
p22
sS'x'
F108
sg18
I01
sS'y'
F701
s(dp23
S'y'
F1129
sS'x'
F108
sg18
I00
s(dp24
S'y'
F1483
sS'x'
F382
sg18
I00
s(dp25
g16
S'curve'
p26
sS'x'
F852
sg18
I01
sS'y'
F1483
s(dp27
S'y'
F1483
sS'x'
F1059
sg18
I00
s(dp28
S'y'
F1415
sS'x'
F1233
sg18
I00
s(dp29
g16
S'curve'
p30
sS'x'
F1334
sg18
I00
sS'y'
F1308
s(dp31
g16
S'line'
p32
sS'x'
F1262
sg18
I00
sS'y'
F1196
s(dp33
S'y'
F1291
sS'x'
F1164
sg18
I00
s(dp34
S'y'
F1334
sS'x'
F1034
sg18
I00
s(dp35
g16
S'curve'
p36
sS'x'
F848
sg18
I01
sS'y'
F1334
s(dp37
S'y'
F1334
sS'x'
F477
sg18
I00
s(dp38
S'y'
F1033
sS'x'
F286
sg18
I00
s(dp39
g16
S'curve'
p40
sS'x'
F286
sg18
I01
sS'y'
F714
s(dp41
S'y'
F365
sS'x'
F286
sg18
I00
s(dp42
S'y'
F125
sS'x'
F472
sg18
I00
s(dp43
g16
S'curve'
p44
sS'x'
F855
sg18
I01
sS'y'
F125
s(dp45
S'y'
F125
sS'x'
F968
sg18
I00
s(dp46
S'y'
F143
sS'x'
F1088
sg18
I00
s(dp47
g16
S'curve'
p48
sS'x'
F1184
sg18
I00
sS'y'
F182
s(dp49
g16
S'line'
p50
sS'x'
F1184
sg18
I00
sS'y'
F608
s(dp51
g16
S'line'
p52
sS'x'
F811
sg18
I00
sS'y'
F608
s(dp53
g16
S'line'
p54
sS'x'
F811
sg18
I00
sS'y'
F757
s(dp55
g16
S'line'
p56
sS'x'
F1356
sg18
I00
sS'y'
F757
s(dp57
g16
S'line'
p58
sS'x'
F1356
sg18
I00
sS'y'
F81
s(dp59
S'y'
F6
sS'x'
F1195
sg18
I00
s(dp60
S'y'
F-23
sS'x'
F1012
sg18
I00
stp61
stp62
sS'components'
p63
(tsS'anchors'
p64
(tsss."
AnchorPoint: "bot" 759 0 basechar 0
AnchorPoint: "top" 946 1456 basechar 0
LayerCount: 2
Fore
SplineSet
741 -21 m 256
 915 -21 1113 10 1265 80 c 257
 1345 731 l 257
 840 731 l 257
 830 645 l 257
 1239 645 l 257
 1176 135 l 257
 1062 85 889 65 753 65 c 256
 372 65 169 317 217 706 c 256
 268 1125 546 1395 923 1395 c 256
 1008 1395 1155 1382 1328 1257 c 257
 1383 1334 l 257
 1184 1494 991 1481 933 1481 c 256
 488 1481 165 1178 107 706 c 256
 53 264 293 -21 741 -21 c 256
EndSplineSet
EndChar

StartChar: H
Encoding: 72 72 60
Width: 1558
VWidth: 0
Flags: W
PickledData: "(dp1
S'org.robofab.postScriptHintData'
p2
(dp3
sS'com.typemytype.robofont.layerData'
p4
(dp5
S'b'
(dp6
S'name'
p7
S'H'
sS'lib'
p8
(dp9
sS'unicodes'
p10
(tsS'width'
p11
F1576.45
sS'contours'
p12
(tsS'components'
p13
(tsS'anchors'
p14
(tsss."
AnchorPoint: "top" 879 1456 basechar 0
LayerCount: 2
Fore
SplineSet
135 0 m 257
 243 0 l 257
 329 700 l 257
 1223 700 l 257
 1137 0 l 257
 1245 0 l 257
 1423 1456 l 257
 1319 1456 l 257
 1237 786 l 257
 343 786 l 257
 425 1456 l 257
 313 1456 l 257
 135 0 l 257
EndSplineSet
EndChar

StartChar: Hbar
Encoding: 294 294 61
Width: 1594
VWidth: 0
Flags: W
PickledData: "(dp1
S'org.robofab.postScriptHintData'
p2
(dp3
sS'com.typemytype.robofont.layerData'
p4
(dp5
S'b'
(dp6
S'name'
p7
S'Hbar'
p8
sS'lib'
p9
(dp10
sS'unicodes'
p11
(tsS'width'
p12
F1532.55
sS'contours'
p13
(tsS'components'
p14
(tsS'anchors'
p15
(tsss."
LayerCount: 2
Fore
SplineSet
198 1223 m 257
 1513 1223 l 257
 1520 1280 l 257
 203 1280 l 257
 198 1223 l 257
EndSplineSet
Refer: 60 72 N 1 0 0 1 0 0 2
EndChar

StartChar: I
Encoding: 73 73 63
Width: 592
VWidth: 0
Flags: W
PickledData: "(dp1
S'org.robofab.postScriptHintData'
p2
(dp3
s."
AnchorPoint: "top" 387 1456 basechar 0
LayerCount: 2
Fore
SplineSet
153 0 m 257
 261 0 l 257
 439 1456 l 257
 331 1456 l 257
 153 0 l 257
EndSplineSet
EndChar

StartChar: J
Encoding: 74 74 77
Width: 667
VWidth: 0
Flags: W
PickledData: "(dp1
S'org.robofab.postScriptHintData'
p2
(dp3
sS'com.typemytype.robofont.layerData'
p4
(dp5
S'b'
(dp6
S'name'
p7
S'J'
sS'lib'
p8
(dp9
sS'unicodes'
p10
(tsS'width'
p11
F731.54999999999995
sS'contours'
p12
(tsS'components'
p13
(tsS'anchors'
p14
(tsss."
AnchorPoint: "top" 443 1456 basechar 0
LayerCount: 2
Fore
SplineSet
-16 -312 m 256
 220 -312 342 -250 389 132 c 258
 552 1456 l 257
 444 1456 l 257
 281 132 l 258
 244 -171 187 -226 -1 -226 c 256
 -29 -226 -61 -225 -96 -223 c 257
 -108 -310 l 257
 -75 -311 -45 -312 -16 -312 c 256
EndSplineSet
EndChar

StartChar: K
Encoding: 75 75 79
Width: 1232
VWidth: 0
Flags: W
PickledData: "(dp1
S'org.robofab.postScriptHintData'
p2
(dp3
sS'com.typemytype.robofont.layerData'
p4
(dp5
S'b'
(dp6
S'name'
p7
S'K'
sS'lib'
p8
(dp9
sS'unicodes'
p10
(tsS'width'
p11
F1289.95
sS'contours'
p12
(tsS'components'
p13
(tsS'anchors'
p14
(tsss."
AnchorPoint: "bot" 618 0 basechar 0
AnchorPoint: "top" 736 1456 basechar 0
LayerCount: 2
Fore
SplineSet
135 0 m 257
 241 0 l 257
 332 745 l 257
 1008 0 l 257
 1134 0 l 257
 453 758 l 257
 1267 1456 l 257
 1135 1456 l 257
 338 774 l 257
 421 1456 l 257
 313 1456 l 257
 135 0 l 257
EndSplineSet
EndChar

StartChar: L
Encoding: 76 76 82
Width: 1045
VWidth: 0
Flags: W
PickledData: "(dp1
S'org.robofab.postScriptHintData'
p2
(dp3
s."
AnchorPoint: "bot" 562 0 basechar 0
AnchorPoint: "mid" 289 778 basechar 0
AnchorPoint: "top" 378 1456 basechar 0
AnchorPoint: "caron.alt" 338 1026 basechar 0
LayerCount: 2
Fore
SplineSet
135 0 m 257
 924 0 l 257
 934 86 l 257
 253 86 l 257
 421 1456 l 257
 313 1456 l 257
 135 0 l 257
EndSplineSet
EndChar

StartChar: Lslash
Encoding: 321 321 88
Width: 1086
VWidth: 0
Flags: W
PickledData: "(dp1
S'org.robofab.postScriptHintData'
p2
(dp3
s."
LayerCount: 2
Fore
SplineSet
41 537 m 257
 635 873 l 257
 644 947 l 257
 50 612 l 257
 41 537 l 257
EndSplineSet
Refer: 82 76 N 1 0 0 1 0 0 2
EndChar

StartChar: M
Encoding: 77 77 89
Width: 1849
VWidth: 0
Flags: W
PickledData: "(dp1
S'org.robofab.postScriptHintData'
p2
(dp3
sS'com.typemytype.robofont.layerData'
p4
(dp5
S'b'
(dp6
S'name'
p7
S'M'
sS'lib'
p8
(dp9
sS'unicodes'
p10
(tsS'width'
p11
F1905.0999999999999
sS'contours'
p12
(tsS'components'
p13
(tsS'anchors'
p14
(tsss."
AnchorPoint: "top" 1023 1456 basechar 0
LayerCount: 2
Fore
SplineSet
135 0 m 257
 239 0 l 257
 401 1320 l 257
 446 1134 l 257
 802 0 l 257
 865 0 l 257
 1517 1134 l 257
 1589 1279 l 257
 1432 0 l 257
 1536 0 l 257
 1714 1456 l 257
 1596 1456 l 257
 971 359 l 257
 852 141 l 257
 790 359 l 257
 451 1456 l 257
 313 1456 l 257
 135 0 l 257
EndSplineSet
EndChar

StartChar: N
Encoding: 78 78 91
Width: 1571
VWidth: 0
Flags: W
PickledData: "(dp1
S'org.robofab.postScriptHintData'
p2
(dp3
sS'com.typemytype.robofont.layerData'
p4
(dp5
S'b'
(dp6
S'name'
p7
S'N'
sS'lib'
p8
(dp9
sS'unicodes'
p10
(tsS'width'
p11
F1578.1500000000001
sS'contours'
p12
(tsS'components'
p13
(tsS'anchors'
p14
(tsss."
AnchorPoint: "bot" 722 0 basechar 0
AnchorPoint: "top" 908 1456 basechar 0
LayerCount: 2
Fore
SplineSet
135 0 m 257
 241 0 l 257
 401 1303 l 257
 489 1137 l 257
 1153 0 l 257
 1258 0 l 257
 1436 1456 l 257
 1330 1456 l 257
 1169 142 l 257
 1066 335 l 257
 419 1456 l 257
 313 1456 l 257
 135 0 l 257
EndSplineSet
EndChar

StartChar: O
Encoding: 79 79 98
Width: 1572
VWidth: 0
Flags: W
PickledData: "(dp1
S'org.robofab.postScriptHintData'
p2
(dp3
sS'com.typemytype.robofont.guides'
p4
((dp5
S'y'
I727
sS'x'
I231
sS'magnetic'
p6
I5
sS'angle'
p7
I0
sS'isGlobal'
p8
I00
s(dp9
S'y'
I1254
sS'x'
I804
sg6
I5
sg7
F90
sg8
I00
stp10
sS'com.typemytype.robofont.layerData'
p11
(dp12
S'b'
(dp13
S'name'
p14
S'O'
sS'lib'
p15
(dp16
sS'unicodes'
p17
(tsS'width'
p18
F1630.8
sS'contours'
p19
(tsS'components'
p20
(tsS'anchors'
p21
(tsss."
AnchorPoint: "ogonek" 769 0 basechar 0
AnchorPoint: "top" 876 1456 basechar 0
LayerCount: 2
Fore
SplineSet
706 65 m 256
 362 65 170 323 219 723 c 256
 269 1132 524 1395 870 1395 c 256
 1213 1395 1401 1132 1351 723 c 256
 1302 323 1050 65 706 65 c 256
696 -21 m 256
 1105 -21 1406 270 1461 723 c 256
 1518 1184 1288 1481 880 1481 c 256
 465 1481 166 1184 109 723 c 256
 54 270 283 -21 696 -21 c 256
EndSplineSet
EndChar

StartChar: OE
Encoding: 338 338 99
Width: 2038
VWidth: 0
Flags: W
PickledData: "(dp1
S'org.robofab.postScriptHintData'
p2
(dp3
sS'com.typemytype.robofont.layerData'
p4
(dp5
S'b'
(dp6
S'name'
p7
S'OE'
p8
sS'lib'
p9
(dp10
sS'unicodes'
p11
(tsS'width'
p12
F2049.1500000000001
sS'contours'
p13
(tsS'components'
p14
(tsS'anchors'
p15
(tsss."
LayerCount: 2
Fore
SplineSet
734 -20 m 256
 892 -18 1036 47 1120 135 c 257
 1103 0 l 257
 1912 0 l 257
 1924 99 l 257
 1223 99 l 257
 1297 698 l 257
 1928 698 l 257
 1940 796 l 257
 1311 796 l 257
 1380 1357 l 257
 2048 1357 l 257
 2060 1456 l 257
 1282 1456 l 257
 1268 1344 l 257
 1167 1454 1012 1481 918 1481 c 256
 452 1481 161 1143 109 726 c 256
 60 321 231 -26 734 -20 c 256
744 66 m 256
 278 66 181 410 219 726 c 256
 254 1006 459 1395 908 1395 c 256
 1077 1395 1194 1320 1255 1239 c 257
 1133 238 l 257
 1038 129 899 66 744 66 c 256
EndSplineSet
EndChar

StartChar: Omega
Encoding: 937 937 111
Width: 1603
VWidth: 0
Flags: W
PickledData: "(dp1
S'org.robofab.postScriptHintData'
p2
(dp3
s."
LayerCount: 2
Fore
SplineSet
57 0 m 257
 533 0 l 257
 542 86 l 257
 340 228 219 440 255 732 c 256
 298 1089 560 1331 898 1331 c 256
 1271 1331 1425 1048 1386 725 c 256
 1350 433 1168 228 936 86 c 257
 928 0 l 257
 1408 0 l 257
 1429 90 l 257
 1030 90 l 257
 1237 226 1462 431 1500 748 c 256
 1547 1130 1327 1423 917 1423 c 256
 522 1423 194 1159 143 747 c 256
 106 439 243 227 449 90 c 257
 58 90 l 257
 57 0 l 257
EndSplineSet
EndChar

StartChar: Oslash
Encoding: 216 216 113
Width: 1572
VWidth: 0
Flags: W
PickledData: "(dp1
S'org.robofab.postScriptHintData'
p2
(dp3
sS'com.typemytype.robofont.layerData'
p4
(dp5
S'b'
(dp6
S'name'
p7
S'Oslash'
p8
sS'lib'
p9
(dp10
sS'unicodes'
p11
(tsS'width'
p12
F1663
sS'contours'
p13
(tsS'components'
p14
(tsS'anchors'
p15
(tsss."
LayerCount: 2
Fore
SplineSet
252 -155 m 257
 1409 1572 l 257
 1353 1605 l 257
 193 -121 l 257
 252 -155 l 257
EndSplineSet
Refer: 98 79 N 1 0 0 1 0 0 2
EndChar

StartChar: P
Encoding: 80 80 116
Width: 1219
VWidth: 0
Flags: W
PickledData: "(dp1
S'org.robofab.postScriptHintData'
p2
(dp3
sS'com.typemytype.robofont.layerData'
p4
(dp5
S'b'
(dp6
S'name'
p7
S'P'
sS'lib'
p8
(dp9
sS'unicodes'
p10
(tsS'width'
p11
F1252.6500000000001
sS'contours'
p12
((dp13
S'points'
p14
((dp15
S'segmentType'
p16
S'line'
p17
sS'x'
F360
sS'smooth'
p18
I00
sS'y'
F828
s(dp19
g16
S'line'
p20
sS'x'
F580
sg18
I01
sS'y'
F828
s(dp21
S'y'
F828
sS'x'
F775
sg18
I00
s(dp22
S'y'
F881
sS'x'
F973
sg18
I00
s(dp23
g16
S'curve'
p24
sS'x'
F973
sg18
I01
sS'y'
F1077
s(dp25
S'y'
F1272
sS'x'
F973
sg18
I00
s(dp26
S'y'
F1308
sS'x'
F807
sg18
I00
s(dp27
g16
S'curve'
p28
sS'x'
F592
sg18
I01
sS'y'
F1308
s(dp29
g16
S'line'
p30
sS'x'
F360
sg18
I00
sS'y'
F1308
stp31
s(dp32
g14
((dp33
g16
S'line'
p34
sS'x'
F360
sg18
I00
sS'y'
F148
s(dp35
g16
S'line'
p36
sS'x'
F667
sg18
I01
sS'y'
F148
s(dp37
S'y'
F148
sS'x'
F906
sg18
I00
s(dp38
S'y'
F230
sS'x'
F1041
sg18
I00
s(dp39
g16
S'curve'
p40
sS'x'
F1041
sg18
I01
sS'y'
F406
s(dp41
S'y'
F617
sS'x'
F1041
sg18
I00
s(dp42
S'y'
F680
sS'x'
F889
sg18
I00
s(dp43
g16
S'curve'
p44
sS'x'
F610
sg18
I01
sS'y'
F680
s(dp45
g16
S'line'
p46
sS'x'
F360
sg18
I00
sS'y'
F680
stp47
s(dp48
g14
((dp49
g16
S'line'
p50
sS'x'
F188
sg18
I00
sS'y'
F0
s(dp51
g16
S'line'
p52
sS'x'
F188
sg18
I00
sS'y'
F1456
s(dp53
g16
S'line'
p54
sS'x'
F502
sg18
I01
sS'y'
F1456
s(dp55
S'y'
F1456
sS'x'
F765
sg18
I00
s(dp56
S'y'
F1443
sS'x'
F1154
sg18
I00
s(dp57
g16
S'curve'
p58
sS'x'
F1154
sg18
I01
sS'y'
F1105
s(dp59
S'y'
F944
sS'x'
F1154
sg18
I00
s(dp60
S'y'
F814
sS'x'
F1045
sg18
I00
s(dp61
g16
S'curve'
p62
sS'x'
F889
sg18
I00
sS'y'
F769
s(dp63
S'y'
F734
sS'x'
F1086
sg18
I00
s(dp64
S'y'
F605
sS'x'
F1223
sg18
I00
s(dp65
g16
S'curve'
p66
sS'x'
F1223
sg18
I01
sS'y'
F403
s(dp67
S'y'
F189
sS'x'
F1223
sg18
I00
s(dp68
S'y'
F0
sS'x'
F1059
sg18
I00
s(dp69
g16
S'curve'
p70
sS'x'
F739
sg18
I01
sS'y'
F0
stp71
stp72
sS'components'
p73
(tsS'anchors'
p74
(tsss."
AnchorPoint: "top" 738 1456 basechar 0
LayerCount: 2
Fore
SplineSet
135 0 m 257
 243 0 l 257
 329 701 l 257
 652 701 l 258
 996 701 1158 814 1190 1079 c 256
 1223 1343 1088 1456 744 1456 c 258
 313 1456 l 257
 135 0 l 257
339 787 m 257
 411 1370 l 257
 734 1370 l 257
 1007 1380 1113 1292 1087 1079 c 256
 1062 875 954 787 662 787 c 258
 339 787 l 257
EndSplineSet
EndChar

StartChar: Q
Encoding: 81 81 118
Width: 1572
VWidth: 0
Flags: W
PickledData: "(dp1
S'org.robofab.postScriptHintData'
p2
(dp3
sS'com.typemytype.robofont.layerData'
p4
(dp5
S'b'
(dp6
S'name'
p7
S'Q'
sS'lib'
p8
(dp9
sS'unicodes'
p10
(tsS'width'
p11
F1628.2
sS'contours'
p12
(tsS'components'
p13
(tsS'anchors'
p14
(tsss."
LayerCount: 2
Fore
SplineSet
1055 -405 m 257
 1124 -346 l 257
 1124 -346 957 -155 885 38 c 257
 801 20 l 257
 864 -181 1055 -405 1055 -405 c 257
EndSplineSet
Refer: 98 79 N 1 0 0 1 0 0 2
EndChar

StartChar: R
Encoding: 82 82 119
Width: 1373
VWidth: 0
Flags: W
PickledData: "(dp1
S'org.robofab.postScriptHintData'
p2
(dp3
sS'com.typemytype.robofont.layerData'
p4
(dp5
S'b'
(dp6
S'name'
p7
S'R'
sS'lib'
p8
(dp9
sS'unicodes'
p10
(tsS'width'
p11
F1341
sS'contours'
p12
((dp13
S'points'
p14
((dp15
S'segmentType'
p16
S'line'
p17
sS'x'
F360
sS'smooth'
p18
I00
sS'y'
F799
s(dp19
g16
S'line'
p20
sS'x'
F615
sg18
I01
sS'y'
F799
s(dp21
S'y'
F799
sS'x'
F795
sg18
I00
s(dp22
S'y'
F854
sS'x'
F932
sg18
I00
s(dp23
g16
S'curve'
p24
sS'x'
F932
sg18
I01
sS'y'
F1058
s(dp25
S'y'
F1259
sS'x'
F932
sg18
I00
s(dp26
S'y'
F1308
sS'x'
F833
sg18
I00
s(dp27
g16
S'curve'
p28
sS'x'
F626
sg18
I01
sS'y'
F1308
s(dp29
g16
S'line'
p30
sS'x'
F360
sg18
I00
sS'y'
F1308
stp31
s(dp32
g14
((dp33
g16
S'line'
p34
sS'x'
F188
sg18
I00
sS'y'
F0
s(dp35
g16
S'line'
p36
sS'x'
F188
sg18
I00
sS'y'
F1456
s(dp37
g16
S'line'
p38
sS'x'
F533
sg18
I01
sS'y'
F1456
s(dp39
S'y'
F1456
sS'x'
F771
sg18
I00
s(dp40
S'y'
F1452
sS'x'
F1114
sg18
I00
s(dp41
g16
S'curve'
p42
sS'x'
F1114
sg18
I01
sS'y'
F1074
s(dp43
S'y'
F890
sS'x'
F1114
sg18
I00
s(dp44
S'y'
F762
sS'x'
F1035
sg18
I00
s(dp45
g16
S'curve'
p46
sS'x'
F847
sg18
I00
sS'y'
F715
s(dp47
g16
S'line'
p48
sS'x'
F848
sg18
I00
sS'y'
F715
s(dp49
S'y'
F662
sS'x'
F1012
sg18
I00
s(dp50
S'y'
F510
sS'x'
F1039
sg18
I00
s(dp51
g16
S'curve'
p52
sS'x'
F1159
sg18
I01
sS'y'
F214
s(dp53
g16
S'line'
p54
sS'x'
F1246
sg18
I00
sS'y'
F0
s(dp55
g16
S'line'
p56
sS'x'
F1061
sg18
I00
sS'y'
F0
s(dp57
g16
S'line'
p58
sS'x'
F896
sg18
I01
sS'y'
F419
s(dp59
S'y'
F600
sS'x'
F825
sg18
I00
s(dp60
S'y'
F652
sS'x'
F797
sg18
I00
s(dp61
g16
S'curve'
p62
sS'x'
F619
sg18
I01
sS'y'
F652
s(dp63
g16
S'line'
p64
sS'x'
F360
sg18
I00
sS'y'
F652
s(dp65
g16
S'line'
p66
sS'x'
F360
sg18
I00
sS'y'
F0
stp67
stp68
sS'components'
p69
(tsS'anchors'
p70
(tsss."
AnchorPoint: "bot" 605 0 basechar 0
AnchorPoint: "top" 681 1456 basechar 0
LayerCount: 2
Fore
SplineSet
135 0 m 257
 243 0 l 257
 325 672 l 257
 711 672 l 258
 894 672 919 619 968 408 c 258
 1062 0 l 257
 1163 0 l 257
 1065 431 l 258
 1020 627 1004 686 841 714 c 257
 1044 731 1160 880 1184 1077 c 256
 1216 1342 1085 1456 748 1456 c 258
 313 1456 l 257
 135 0 l 257
339 758 m 257
 414 1370 l 257
 738 1370 l 257
 1001 1380 1107 1292 1081 1077 c 256
 1055 868 935 758 693 758 c 258
 339 758 l 257
EndSplineSet
EndChar

StartChar: S
Encoding: 83 83 125
Width: 1130
VWidth: 0
Flags: W
PickledData: "(dp1
S'org.robofab.postScriptHintData'
p2
(dp3
sS'com.typemytype.robofont.layerData'
p4
(dp5
S'b'
(dp6
S'name'
p7
S'S'
sS'lib'
p8
(dp9
sS'unicodes'
p10
(tsS'width'
p11
F1211
sS'contours'
p12
((dp13
S'points'
p14
((dp15
S'segmentType'
p16
S'curve'
p17
sS'x'
F596
sS'smooth'
p18
I01
sS'y'
F-23
s(dp19
S'y'
F-23
sS'x'
F321
sg18
I00
s(dp20
S'y'
F120
sS'x'
F158
sg18
I00
s(dp21
g16
S'curve'
p22
sS'x'
F140
sg18
I00
sS'y'
F141
s(dp23
g16
S'line'
p24
sS'x'
F219
sg18
I00
sS'y'
F271
s(dp25
S'y'
F243
sS'x'
F256
sg18
I00
s(dp26
S'y'
F125
sS'x'
F393
sg18
I00
s(dp27
g16
S'curve'
p28
sS'x'
F595
sg18
I01
sS'y'
F125
s(dp29
S'y'
F125
sS'x'
F797
sg18
I00
s(dp30
S'y'
F204
sS'x'
F898
sg18
I00
s(dp31
g16
S'curve'
p32
sS'x'
F898
sg18
I01
sS'y'
F360
s(dp33
S'y'
F536
sS'x'
F898
sg18
I00
s(dp34
S'y'
F601
sS'x'
F709
sg18
I00
s(dp35
g16
S'curve'
p36
sS'x'
F521
sg18
I01
sS'y'
F681
s(dp37
S'y'
F761
sS'x'
F333
sg18
I00
s(dp38
S'y'
F857
sS'x'
F145
sg18
I00
s(dp39
g16
S'curve'
p40
sS'x'
F145
sg18
I01
sS'y'
F1095
s(dp41
S'y'
F1350
sS'x'
F145
sg18
I00
s(dp42
S'y'
F1483
sS'x'
F357
sg18
I00
s(dp43
g16
S'curve'
p44
sS'x'
F620
sg18
I01
sS'y'
F1483
s(dp45
S'y'
F1483
sS'x'
F891
sg18
I00
s(dp46
S'y'
F1362
sS'x'
F1009
sg18
I00
s(dp47
g16
S'curve'
p48
sS'x'
F1034
sg18
I00
sS'y'
F1335
s(dp49
g16
S'line'
p50
sS'x'
F951
sg18
I00
sS'y'
F1217
s(dp51
S'y'
F1242
sS'x'
F921
sg18
I00
s(dp52
S'y'
F1334
sS'x'
F819
sg18
I00
s(dp53
g16
S'curve'
p54
sS'x'
F640
sg18
I01
sS'y'
F1334
s(dp55
S'y'
F1334
sS'x'
F478
sg18
I00
s(dp56
S'y'
F1270
sS'x'
F328
sg18
I00
s(dp57
g16
S'curve'
p58
sS'x'
F328
sg18
I01
sS'y'
F1105
s(dp59
S'y'
F934
sS'x'
F328
sg18
I00
s(dp60
S'y'
F868
sS'x'
F515
sg18
I00
s(dp61
g16
S'curve'
p62
sS'x'
F703
sg18
I01
sS'y'
F785
s(dp63
S'y'
F702
sS'x'
F891
sg18
I00
s(dp64
S'y'
F602
sS'x'
F1078
sg18
I00
s(dp65
g16
S'curve'
p66
sS'x'
F1078
sg18
I01
sS'y'
F364
s(dp67
S'y'
F78
sS'x'
F1078
sg18
I00
s(dp68
S'y'
F-23
sS'x'
F868
sg18
I00
stp69
stp70
sS'components'
p71
(tsS'anchors'
p72
(tsss."
AnchorPoint: "bot" 509 0 basechar 0
AnchorPoint: "top" 696 1456 basechar 0
LayerCount: 2
Fore
SplineSet
494 -21 m 256
 774 -21 960 134 995 362 c 256
 1029 585 977 698 652 784 c 258
 508 822 l 258
 310 875 262 940 283 1113 c 256
 305 1291 444 1395 661 1395 c 256
 873 1395 965 1309 992 1277 c 257
 1048 1351 l 257
 1026 1370 940 1481 671 1481 c 256
 388 1481 203 1342 175 1113 c 256
 147 884 256 791 473 732 c 258
 617 693 l 258
 868 625 924 554 894 361 c 256
 866 186 718 65 504 65 c 256
 273 65 172 175 130 216 c 257
 70 142 l 257
 102 114 213 -21 494 -21 c 256
EndSplineSet
EndChar

StartChar: T
Encoding: 84 84 132
Width: 1097
VWidth: 0
Flags: W
PickledData: "(dp1
S'org.robofab.postScriptHintData'
p2
(dp3
s."
AnchorPoint: "mid" 558 775 basechar 0
AnchorPoint: "bot" 460 0 basechar 0
AnchorPoint: "top" 638 1456 basechar 0
LayerCount: 2
Fore
SplineSet
405 0 m 257
 513 0 l 257
 681 1370 l 257
 1167 1370 l 257
 1177 1456 l 257
 97 1456 l 257
 87 1370 l 257
 573 1370 l 257
 405 0 l 257
EndSplineSet
EndChar

StartChar: Thorn
Encoding: 222 222 137
Width: 1255
VWidth: 0
Flags: W
PickledData: "(dp1
S'org.robofab.postScriptHintData'
p2
(dp3
s."
LayerCount: 2
Fore
SplineSet
124 0 m 257
 236 0 l 257
 280 358 l 257
 598 358 l 258
 916 358 1154 486 1191 783 c 256
 1234 1132 961 1211 623 1211 c 258
 383 1211 l 257
 413 1456 l 257
 302 1456 l 257
 124 0 l 257
292 460 m 257
 372 1110 l 257
 627 1110 l 258
 915 1110 1106 1043 1073 779 c 256
 1046 558 850 460 598 460 c 258
 292 460 l 257
EndSplineSet
EndChar

StartChar: U
Encoding: 85 85 138
Width: 1480
VWidth: 0
Flags: W
PickledData: "(dp1
S'org.robofab.postScriptHintData'
p2
(dp3
sS'com.typemytype.robofont.layerData'
p4
(dp5
S'b'
(dp6
S'name'
p7
S'U'
sS'lib'
p8
(dp9
sS'unicodes'
p10
(tsS'width'
p11
F1496.9000000000001
sS'contours'
p12
(tsS'components'
p13
(tsS'anchors'
p14
(tsss."
AnchorPoint: "ogonek" 711 0 basechar 0
AnchorPoint: "bot" 651 0 basechar 0
AnchorPoint: "top" 838 1456 basechar 0
LayerCount: 2
Fore
SplineSet
641 -21 m 256
 1002 -21 1217 164 1263 514 c 258
 1379 1456 l 257
 1271 1456 l 257
 1154 506 l 258
 1119 217 945 65 652 65 c 256
 359 65 223 217 258 506 c 258
 375 1456 l 257
 267 1456 l 257
 151 514 l 258
 108 164 277 -21 641 -21 c 256
EndSplineSet
EndChar

StartChar: V
Encoding: 86 86 152
Width: 1381
VWidth: 0
Flags: W
PickledData: "(dp1
S'org.robofab.postScriptHintData'
p2
(dp3
sS'com.typemytype.robofont.layerData'
p4
(dp5
S'b'
(dp6
S'name'
p7
S'V'
sS'lib'
p8
(dp9
sS'unicodes'
p10
(tsS'width'
p11
F1320.1500000000001
sS'contours'
p12
(tsS'components'
p13
(tsS'anchors'
p14
(tsss."
LayerCount: 2
Fore
SplineSet
539 0 m 257
 669 0 l 257
 1376 1456 l 257
 1264 1456 l 257
 773 433 l 257
 615 90 l 257
 535 435 l 257
 294 1456 l 257
 183 1456 l 257
 539 0 l 257
EndSplineSet
EndChar

StartChar: W
Encoding: 87 87 153
Width: 2037
VWidth: 0
Flags: W
PickledData: "(dp1
S'org.robofab.postScriptHintData'
p2
(dp3
sS'com.typemytype.robofont.layerData'
p4
(dp5
S'b'
(dp6
S'name'
p7
S'W'
sS'lib'
p8
(dp9
sS'unicodes'
p10
(tsS'width'
p11
F1988.8499999999999
sS'contours'
p12
(tsS'components'
p13
(tsS'anchors'
p14
(tsss."
AnchorPoint: "top" 1121 1456 basechar 0
LayerCount: 2
Fore
SplineSet
425 0 m 257
 553 0 l 257
 1102 1320 l 257
 1319 0 l 257
 1448 0 l 257
 1988 1456 l 257
 1878 1456 l 257
 1432 214 l 257
 1395 117 l 257
 1382 214 l 257
 1170 1456 l 257
 1061 1456 l 257
 545 214 l 257
 504 103 l 257
 500 214 l 257
 341 1456 l 257
 227 1456 l 257
 425 0 l 257
EndSplineSet
EndChar

StartChar: X
Encoding: 88 88 158
Width: 1317
VWidth: 0
Flags: W
PickledData: "(dp1
S'org.robofab.postScriptHintData'
p2
(dp3
sS'com.typemytype.robofont.layerData'
p4
(dp5
S'b'
(dp6
S'name'
p7
S'X'
sS'lib'
p8
(dp9
sS'unicodes'
p10
(tsS'width'
p11
F1257.7
sS'contours'
p12
(tsS'components'
p13
(tsS'anchors'
p14
(tsss."
LayerCount: 2
Fore
SplineSet
31 0 m 257
 144 0 l 257
 666 664 l 257
 998 0 l 257
 1108 0 l 257
 731 744 l 257
 1269 1456 l 257
 1155 1456 l 257
 679 814 l 257
 340 1456 l 257
 221 1456 l 257
 611 740 l 257
 31 0 l 257
EndSplineSet
EndChar

StartChar: Y
Encoding: 89 89 159
Width: 1235
VWidth: 0
Flags: W
PickledData: "(dp1
S'org.robofab.postScriptHintData'
p2
(dp3
sS'com.typemytype.robofont.layerData'
p4
(dp5
S'b'
(dp6
S'name'
p7
S'Y'
sS'lib'
p8
(dp9
sS'unicodes'
p10
(tsS'width'
p11
F1225.45
sS'contours'
p12
(tsS'components'
p13
(tsS'anchors'
p14
(tsss."
AnchorPoint: "top" 702 1456 basechar 0
LayerCount: 2
Fore
SplineSet
471 0 m 257
 579 0 l 257
 652 594 l 257
 1244 1456 l 257
 1139 1456 l 257
 610 683 l 257
 278 1456 l 257
 169 1456 l 257
 543 591 l 257
 471 0 l 257
EndSplineSet
EndChar

StartChar: Z
Encoding: 90 90 166
Width: 1182
VWidth: 0
Flags: W
PickledData: "(dp1
S'org.robofab.postScriptHintData'
p2
(dp3
sS'com.typemytype.robofont.layerData'
p4
(dp5
S'b'
(dp6
S'name'
p7
S'Z'
sS'lib'
p8
(dp9
sS'unicodes'
p10
(tsS'width'
p11
F1179.45
sS'contours'
p12
(tsS'components'
p13
(tsS'anchors'
p14
(tsss."
AnchorPoint: "top" 712 1456 basechar 0
LayerCount: 2
Fore
SplineSet
45 0 m 257
 977 0 l 257
 987 86 l 257
 182 86 l 257
 1152 1399 l 257
 1159 1456 l 257
 259 1456 l 257
 249 1370 l 257
 1019 1370 l 257
 52 61 l 257
 45 0 l 257
EndSplineSet
EndChar

StartChar: a
Encoding: 97 97 170
Width: 1253
VWidth: 0
Flags: W
PickledData: "(dp1
S'org.robofab.postScriptHintData'
p2
(dp3
sS'com.typemytype.robofont.layerData'
p4
(dp5
S'b'
(dp6
S'name'
p7
S'a'
sS'lib'
p8
(dp9
sS'unicodes'
p10
(tsS'width'
p11
I1268
sS'contours'
p12
((dp13
S'points'
p14
((dp15
S'segmentType'
p16
S'curve'
p17
sS'x'
F595
sS'smooth'
p18
I01
sS'y'
F-22
s(dp19
S'y'
F-22
sS'x'
F262
sg18
I00
s(dp20
S'y'
F221
sS'x'
F100
sg18
I00
s(dp21
g16
S'curve'
p22
sS'x'
F100
sg18
I01
sS'y'
F518
s(dp23
S'y'
F824
sS'x'
F100
sg18
I00
s(dp24
S'y'
F1052
sS'x'
F287
sg18
I00
s(dp25
g16
S'curve'
p26
sS'x'
F603
sg18
I01
sS'y'
F1052
s(dp27
S'y'
F1052
sS'x'
F816
sg18
I00
s(dp28
S'y'
F903
sS'x'
F905
sg18
I00
s(dp29
g16
S'curve'
p30
sS'x'
F928
sg18
I00
sS'y'
F847
s(dp31
g16
S'line'
p32
sS'x'
F928
sg18
I00
sS'y'
F1026
s(dp33
g16
S'line'
p34
sS'x'
F1092
sg18
I00
sS'y'
F1026
s(dp35
g16
S'line'
p36
sS'x'
F1092
sg18
I00
sS'y'
F0
s(dp37
g16
S'line'
p38
sS'x'
F928
sg18
I00
sS'y'
F0
s(dp39
g16
S'line'
p40
sS'x'
F928
sg18
I00
sS'y'
F185
s(dp41
S'y'
F82
sS'x'
F881
sg18
I00
s(dp42
S'y'
F-22
sS'x'
F769
sg18
I00
stp43
s(dp44
g14
((dp45
g16
S'curve'
p46
sS'x'
F608
sg18
I01
sS'y'
F918
s(dp47
S'y'
F918
sS'x'
F359
sg18
I00
s(dp48
S'y'
F725
sS'x'
F270
sg18
I00
s(dp49
g16
S'curve'
p50
sS'x'
F270
sg18
I01
sS'y'
F516
s(dp51
S'y'
F308
sS'x'
F270
sg18
I00
s(dp52
S'y'
F112
sS'x'
F364
sg18
I00
s(dp53
g16
S'curve'
p54
sS'x'
F609
sg18
I01
sS'y'
F112
s(dp55
S'y'
F112
sS'x'
F813
sg18
I00
s(dp56
S'y'
F277
sS'x'
F934
sg18
I00
s(dp57
g16
S'curve'
p58
sS'x'
F934
sg18
I01
sS'y'
F526
s(dp59
S'y'
F734
sS'x'
F934
sg18
I00
s(dp60
S'y'
F918
sS'x'
F826
sg18
I00
stp61
stp62
sS'components'
p63
(tsS'anchors'
p64
(tsss."
AnchorPoint: "top" 651 1026 basechar 0
AnchorPoint: "ogonek" 935 0 basechar 0
LayerCount: 2
Fore
SplineSet
511 -21 m 256
 695 -21 832 77 910 215 c 257
 884 0 l 257
 982 0 l 257
 1108 1026 l 257
 1010 1026 l 257
 985 825 l 257
 944 957 823 1052 647 1052 c 256
 352 1052 136 845 97 524 c 256
 56 192 218 -21 511 -21 c 256
525 61 m 256
 291 61 162 242 197 524 c 256
 230 795 403 970 637 970 c 256
 860 970 981 795 948 524 c 256
 913 242 758 61 525 61 c 256
EndSplineSet
EndChar

StartChar: acute
Encoding: 180 180 175
Width: 607
VWidth: 0
Flags: W
PickledData: "(dp1
S'org.robofab.postScriptHintData'
p2
(dp3
s."
AnchorPoint: "top" 110 1026 mark 0
LayerCount: 2
Fore
SplineSet
102 1174 m 257
 157 1174 l 257
 464 1456 l 257
 332 1456 l 257
 102 1174 l 257
EndSplineSet
EndChar

StartChar: ae
Encoding: 230 230 179
Width: 1811
VWidth: 0
Flags: W
PickledData: "(dp1
S'org.robofab.postScriptHintData'
p2
(dp3
sS'com.typemytype.robofont.layerData'
p4
(dp5
S'b'
(dp6
S'name'
p7
S'ae'
p8
sS'lib'
p9
(dp10
sS'unicodes'
p11
(tsS'width'
p12
F1790.05
sS'contours'
p13
(tsS'components'
p14
((dp15
S'transformation'
p16
(I1
I0
I0
I1
I642
I0
tp17
sS'baseGlyph'
p18
S'e'
stp19
sS'anchors'
p20
(tsss."
AnchorPoint: "top" 983 1026 basechar 0
LayerCount: 2
Fore
SplineSet
405 -20 m 256
 667 -20 819 137 874 279 c 257
 907 105 1042 -21 1247 -21 c 256
 1477 -21 1628 108 1628 108 c 257
 1600 177 l 257
 1600 177 1459 61 1257 61 c 256
 1005 61 933 270 958 474 c 258
 962 509 l 257
 1726 509 l 257
 1728 527 l 257
 1771 873 1618 1052 1373 1052 c 256
 1185 1052 1020 933 938 767 c 257
 924 941 795 1052 596 1052 c 256
 369 1052 236 981 199 964 c 257
 223 885 l 257
 277 911 397 970 586 970 c 256
 789 970 881 801 853 578 c 257
 651 578 l 258
 299 578 103 538 70 274 c 256
 48 91 186 -20 405 -20 c 256
415 61 m 256
 269 61 148 122 167 280 c 256
 191 471 305 507 626 507 c 258
 848 507 l 257
 818 250 673 61 415 61 c 256
971 578 m 257
 993 760 1148 970 1363 970 c 256
 1599 970 1664 762 1650 608 c 258
 1648 578 l 257
 971 578 l 257
EndSplineSet
EndChar

StartChar: ampersand
Encoding: 38 38 185
Width: 1470
VWidth: 0
Flags: W
PickledData: "(dp1
S'org.robofab.postScriptHintData'
p2
(dp3
sS'com.typemytype.robofont.layerData'
p4
(dp5
S'b'
(dp6
S'name'
p7
S'ampersand'
p8
sS'lib'
p9
(dp10
sS'unicodes'
p11
(tsS'width'
p12
F1539.95
sS'contours'
p13
(tsS'components'
p14
(tsS'anchors'
p15
(tsss."
LayerCount: 2
Fore
SplineSet
538 -18 m 256
 745 -18 887 66 1010 197 c 257
 998 217 1188 16 1283 1 c 257
 1364 65 l 257
 1173 103 1069 287 1075 278 c 257
 1206 432 1299 649 1338 849 c 257
 1246 850 l 257
 1226 685 1122 468 1018 347 c 257
 636 825 l 257
 802 910 976 1048 996 1214 c 256
 1019 1398 871 1484 718 1484 c 256
 550 1484 406 1389 383 1209 c 256
 365 1055 432 936 513 832 c 257
 327 728 141 626 113 396 c 256
 80 133 264 -18 538 -18 c 256
542 75 m 256
 322 75 203 212 226 399 c 256
 250 597 390 685 558 770 c 257
 967 264 l 257
 849 147 734 75 542 75 c 256
588 870 m 257
 500 967 455 1084 470 1206 c 256
 486 1333 593 1400 711 1400 c 256
 813 1400 921 1342 904 1204 c 256
 887 1066 723 942 588 870 c 257
EndSplineSet
EndChar

StartChar: approxequal
Encoding: 8776 8776 187
Width: 1351
VWidth: 0
Flags: W
PickledData: "(dp1
S'org.robofab.postScriptHintData'
p2
(dp3
s."
LayerCount: 2
Fore
SplineSet
244 673 m 257
 285 777 358 839 484 839 c 256
 552 839 613 810 683 766 c 256
 787 703 860 665 936 665 c 256
 1084 665 1183 757 1224 890 c 257
 1179 906 l 257
 1130 796 1060 739 953 739 c 256
 884 739 824 765 733 824 c 256
 649 876 579 911 498 911 c 256
 357 911 249 827 199 688 c 257
 244 673 l 257
199 285 m 257
 244 382 315 448 437 448 c 256
 511 448 567 420 639 372 c 257
 749 305 813 275 891 275 c 256
 1037 275 1137 365 1179 500 c 257
 1134 512 l 257
 1081 407 1014 345 907 345 c 256
 829 345 758 385 687 435 c 257
 616 479 542 520 453 520 c 256
 308 520 202 436 153 294 c 257
 199 285 l 257
EndSplineSet
EndChar

StartChar: asciicircum
Encoding: 94 94 190
Width: 1721
VWidth: 0
Flags: W
PickledData: "(dp1
S'org.robofab.postScriptHintData'
p2
(dp3
sS'com.typemytype.robofont.layerData'
p4
(dp5
S'b'
(dp6
S'name'
p7
S'asciicircum'
p8
sS'lib'
p9
(dp10
sS'unicodes'
p11
(tsS'width'
p12
F1623.3499999999999
sS'contours'
p13
(tsS'components'
p14
(tsS'anchors'
p15
(tsss."
LayerCount: 2
Fore
SplineSet
336 604 m 257
 417 604 l 257
 896 1362 l 257
 1198 604 l 257
 1281 604 l 257
 936 1456 l 257
 879 1456 l 257
 336 604 l 257
EndSplineSet
EndChar

StartChar: asciitilde
Encoding: 126 126 191
Width: 917
VWidth: 0
Flags: W
PickledData: "(dp1
S'org.robofab.postScriptHintData'
p2
(dp3
s."
LayerCount: 2
Fore
SplineSet
13 420 m 257
 44 513 89 546 215 546 c 256
 294 546 313 547 459 487 c 257
 538 461 613 432 670 432 c 256
 814 432 905 533 957 677 c 257
 900 697 l 257
 866 606 795 519 685 519 c 256
 620 519 587 533 437 591 c 257
 363 615 292 633 226 633 c 256
 69 633 5 574 -39 447 c 257
 13 420 l 257
EndSplineSet
EndChar

StartChar: asterisk
Encoding: 42 42 192
Width: 1190
VWidth: 0
Flags: W
PickledData: "(dp1
S'org.robofab.postScriptHintData'
p2
(dp3
sS'com.typemytype.robofont.guides'
p4
((dp5
S'y'
I1149
sS'x'
I567
sS'magnetic'
p6
I5
sS'angle'
p7
I0
sS'isGlobal'
p8
I00
stp9
sS'com.typemytype.robofont.layerData'
p10
(dp11
S'b'
(dp12
S'name'
p13
S'asterisk'
p14
sS'lib'
p15
(dp16
sS'unicodes'
p17
(tsS'width'
p18
F1107.9000000000001
sS'contours'
p19
(tsS'components'
p20
(tsS'anchors'
p21
(tsss."
LayerCount: 2
Fore
SplineSet
735 799 m 257
 823 834 l 257
 672 1099 l 257
 921 1165 l 257
 883 1260 l 257
 649 1146 l 257
 680 1460 l 257
 596 1460 l 257
 587 1146 l 257
 333 1260 l 257
 307 1165 l 257
 559 1099 l 257
 365 852 l 257
 439 814 l 257
 616 1083 l 257
 735 799 l 257
EndSplineSet
EndChar

StartChar: at
Encoding: 64 64 193
Width: 1707
VWidth: 0
Flags: W
PickledData: "(dp1
S'org.robofab.postScriptHintData'
p2
(dp3
sS'com.typemytype.robofont.layerData'
p4
(dp5
S'b'
(dp6
S'name'
p7
S'at'
p8
sS'lib'
p9
(dp10
sS'unicodes'
p11
(tsS'width'
p12
F1771.2
sS'contours'
p13
(tsS'components'
p14
(tsS'anchors'
p15
(tsss."
LayerCount: 2
Fore
SplineSet
805 -66 m 256
 1080 -66 1318 22 1416 166 c 257
 1364 202 l 257
 1262 83 1046 0 813 0 c 256
 387 0 144 258 196 681 c 256
 248 1103 554 1405 973 1405 c 256
 1350 1405 1568 1164 1524 806 c 256
 1489 522 1342 330 1158 330 c 256
 1101 330 1068 360 1074 408 c 256
 1078 439 1092 487 1117 556 c 258
 1321 1108 l 257
 1248 1108 l 257
 1179 923 l 257
 1188 1053 1112 1140 981 1148 c 256
 712 1164 510 937 470 609 c 256
 445 409 541 280 715 280 c 256
 851 280 972 356 1033 470 c 257
 988 341 1052 276 1146 276 c 256
 1350 276 1555 469 1597 806 c 256
 1647 1213 1413 1471 981 1471 c 256
 508 1471 165 1152 107 681 c 256
 50 212 325 -66 805 -66 c 256
727 345 m 256
 599 345 530 450 550 614 c 256
 585 898 750 1096 967 1080 c 256
 1092 1071 1153 966 1120 789 c 256
 1067 519 914 345 727 345 c 256
EndSplineSet
EndChar

StartChar: b
Encoding: 98 98 195
Width: 1259
VWidth: 0
Flags: W
PickledData: "(dp1
S'org.robofab.postScriptHintData'
p2
(dp3
sS'com.typemytype.robofont.layerData'
p4
(dp5
S'b'
(dp6
S'name'
p7
S'b'
sS'lib'
p8
(dp9
sS'unicodes'
p10
(tsS'width'
p11
F1270.0999999999999
sS'contours'
p12
(tsS'components'
p13
(tsS'anchors'
p14
(tsss."
AnchorPoint: "top" 709 1026 basechar 0
LayerCount: 2
Fore
SplineSet
602 -21 m 256
 884 -21 1092 191 1132 520 c 256
 1172 844 1015 1052 733 1052 c 256
 552 1052 382 953 300 799 c 257
 388 1516 l 257
 290 1516 l 257
 137 268 l 258
 124 162 97 2 97 0 c 257
 196 0 l 257
 231 239 l 257
 268 81 414 -21 602 -21 c 256
612 61 m 256
 367 61 232 241 266 520 c 256
 300 794 478 970 723 970 c 256
 957 970 1068 794 1034 520 c 256
 1000 241 846 61 612 61 c 256
EndSplineSet
EndChar

StartChar: backslash
Encoding: 92 92 196
Width: 791
VWidth: 0
Flags: W
PickledData: "(dp1
S'org.robofab.postScriptHintData'
p2
(dp3
s."
LayerCount: 2
Fore
SplineSet
489 66 m 257
 585 66 l 257
 319 1456 l 257
 223 1456 l 257
 489 66 l 257
EndSplineSet
EndChar

StartChar: bar
Encoding: 124 124 197
Width: 1685
VWidth: 0
Flags: W
PickledData: "(dp1
S'org.robofab.postScriptHintData'
p2
(dp3
s."
LayerCount: 2
Fore
SplineSet
666 -517 m 257
 763 -517 l 257
 1019 1572 l 257
 922 1572 l 257
 666 -517 l 257
EndSplineSet
EndChar

StartChar: braceleft
Encoding: 123 123 199
Width: 908
VWidth: 0
Flags: W
PickledData: "(dp1
S'org.robofab.postScriptHintData'
p2
(dp3
s."
LayerCount: 2
Fore
SplineSet
536 1159 m 258
 549 1264 557 1328 838 1324 c 257
 848 1401 l 257
 478 1401 456 1286 440 1159 c 258
 405 870 l 258
 383 693 333 604 105 576 c 257
 99 535 l 257
 321 507 349 418 327 241 c 258
 292 -48 l 258
 276 -175 270 -290 640 -290 c 257
 650 -213 l 257
 367 -217 375 -153 388 -48 c 258
 423 241 l 258
 445 415 403 519 284 555 c 257
 411 592 479 696 501 870 c 258
 536 1159 l 258
EndSplineSet
EndChar

StartChar: braceright
Encoding: 125 125 200
Width: 846
VWidth: 0
Flags: W
PickledData: "(dp1
S'org.robofab.postScriptHintData'
p2
(dp3
s."
LayerCount: 2
Fore
SplineSet
1 -290 m 257
 371 -290 393 -175 409 -48 c 258
 444 241 l 258
 466 418 516 507 744 535 c 257
 750 576 l 257
 528 604 500 693 522 870 c 258
 557 1159 l 258
 573 1286 579 1401 209 1401 c 257
 199 1324 l 257
 482 1328 474 1264 461 1159 c 258
 426 870 l 258
 404 696 446 592 565 555 c 257
 438 519 370 415 348 241 c 258
 313 -48 l 258
 300 -153 292 -217 11 -213 c 257
 1 -290 l 257
EndSplineSet
EndChar

StartChar: bracketleft
Encoding: 91 91 201
Width: 715
VWidth: 0
Flags: W
PickledData: "(dp1
S'org.robofab.postScriptHintData'
p2
(dp3
s."
LayerCount: 2
Fore
SplineSet
105 -322 m 257
 502 -322 l 257
 511 -248 l 257
 211 -248 l 257
 407 1349 l 257
 706 1349 l 257
 715 1423 l 257
 319 1423 l 257
 105 -322 l 257
EndSplineSet
EndChar

StartChar: bracketright
Encoding: 93 93 202
Width: 715
VWidth: 0
Flags: W
PickledData: "(dp1
S'org.robofab.postScriptHintData'
p2
(dp3
s."
LayerCount: 2
Fore
SplineSet
67 -322 m 257
 467 -322 l 257
 681 1423 l 257
 279 1423 l 257
 270 1349 l 257
 576 1349 l 257
 380 -248 l 257
 76 -248 l 257
 67 -322 l 257
EndSplineSet
EndChar

StartChar: breve
Encoding: 728 728 203
Width: 503
VWidth: 0
Flags: W
PickledData: "(dp1
S'org.robofab.postScriptHintData'
p2
(dp3
sS'com.typemytype.robofont.layerData'
p4
(dp5
S'b'
(dp6
S'name'
p7
S'breve'
p8
sS'lib'
p9
(dp10
sS'unicodes'
p11
(tsS'width'
p12
F621.60000000000002
sS'contours'
p13
(tsS'components'
p14
(tsS'anchors'
p15
(tsss."
AnchorPoint: "top" 225 1026 mark 0
LayerCount: 2
Fore
SplineSet
240 1162 m 256
 372 1162 455 1239 482 1376 c 257
 409 1376 l 257
 385 1297 352 1238 249 1238 c 256
 147 1238 115 1287 122 1376 c 257
 47 1376 l 257
 42 1233 94 1162 240 1162 c 256
EndSplineSet
EndChar

StartChar: brokenbar
Encoding: 166 166 204
Width: 500
VWidth: 0
Flags: W
PickledData: "(dp1
S'org.robofab.postScriptHintData'
p2
(dp3
s."
LayerCount: 2
Fore
SplineSet
80 -517 m 257
 175 -517 l 257
 285 377 l 257
 190 377 l 257
 80 -517 l 257
237 756 m 257
 333 756 l 257
 433 1572 l 257
 337 1572 l 257
 237 756 l 257
EndSplineSet
EndChar

StartChar: bullet
Encoding: 8226 8226 205
Width: 991
VWidth: 0
Flags: W
PickledData: "(dp1
S'org.robofab.postScriptHintData'
p2
(dp3
sS'com.typemytype.robofont.layerData'
p4
(dp5
S'b'
(dp6
S'name'
p7
S'bullet'
p8
sS'lib'
p9
(dp10
sS'unicodes'
p11
(tsS'width'
p12
F989.64999999999998
sS'contours'
p13
(tsS'components'
p14
(tsS'anchors'
p15
(tsss."
LayerCount: 2
Fore
SplineSet
456 404 m 256
 634 404 784 533 804 702 c 256
 825 867 702 1010 530 1010 c 256
 354 1010 206 871 185 702 c 256
 165 538 283 404 456 404 c 256
EndSplineSet
EndChar

StartChar: c
Encoding: 99 99 207
Width: 1022
VWidth: 0
Flags: W
PickledData: "(dp1
S'org.robofab.postScriptHintData'
p2
(dp3
sS'com.typemytype.robofont.layerData'
p4
(dp5
S'b'
(dp6
S'name'
p7
S'c'
sS'lib'
p8
(dp9
sS'unicodes'
p10
(tsS'width'
p11
F1035.55
sS'contours'
p12
((dp13
S'points'
p14
((dp15
S'segmentType'
p16
S'curve'
p17
sS'x'
F605
sS'smooth'
p18
I01
sS'y'
F-22
s(dp19
S'y'
F-22
sS'x'
F302
sg18
I00
s(dp20
S'y'
F180
sS'x'
F98
sg18
I00
s(dp21
g16
S'curve'
p22
sS'x'
F98
sg18
I01
sS'y'
F503
s(dp23
S'y'
F840
sS'x'
F98
sg18
I00
s(dp24
S'y'
F1052
sS'x'
F301
sg18
I00
s(dp25
g16
S'curve'
p26
sS'x'
F624
sg18
I01
sS'y'
F1052
s(dp27
S'y'
F1052
sS'x'
F750
sg18
I00
s(dp28
S'y'
F1001
sS'x'
F871
sg18
I00
s(dp29
g16
S'curve'
p30
sS'x'
F938
sg18
I00
sS'y'
F922
s(dp31
g16
S'line'
p32
sS'x'
F890
sg18
I00
sS'y'
F805
s(dp33
S'y'
F874
sS'x'
F825
sg18
I00
s(dp34
S'y'
F918
sS'x'
F721
sg18
I00
s(dp35
g16
S'curve'
p36
sS'x'
F619
sg18
I01
sS'y'
F918
s(dp37
S'y'
F918
sS'x'
F406
sg18
I00
s(dp38
S'y'
F756
sS'x'
F268
sg18
I00
s(dp39
g16
S'curve'
p40
sS'x'
F268
sg18
I01
sS'y'
F505
s(dp41
S'y'
F260
sS'x'
F268
sg18
I00
s(dp42
S'y'
F112
sS'x'
F407
sg18
I00
s(dp43
g16
S'curve'
p44
sS'x'
F611
sg18
I01
sS'y'
F112
s(dp45
S'y'
F112
sS'x'
F716
sg18
I00
s(dp46
S'y'
F145
sS'x'
F827
sg18
I00
s(dp47
g16
S'curve'
p48
sS'x'
F901
sg18
I00
sS'y'
F202
s(dp49
g16
S'line'
p50
sS'x'
F953
sg18
I00
sS'y'
F87
s(dp51
S'y'
F19
sS'x'
F873
sg18
I00
s(dp52
S'y'
F-22
sS'x'
F747
sg18
I00
stp53
stp54
sS'components'
p55
(tsS'anchors'
p56
(tsss."
AnchorPoint: "bot" 523 0 basechar 0
AnchorPoint: "top" 643 1026 basechar 0
LayerCount: 2
Fore
SplineSet
546 -21 m 256
 686 -21 829 26 913 100 c 257
 887 167 l 257
 796 102 686 61 556 61 c 256
 303 61 161 234 194 502 c 256
 229 787 419 970 678 970 c 256
 793 970 887 937 945 880 c 257
 987 952 l 257
 924 1013 807 1052 688 1052 c 256
 368 1052 135 837 94 502 c 256
 55 184 232 -21 546 -21 c 256
EndSplineSet
EndChar

StartChar: caron
Encoding: 711 711 209
Width: 699
VWidth: 0
Flags: W
PickledData: "(dp1
S'org.robofab.postScriptHintData'
p2
(dp3
s."
AnchorPoint: "top" 305 1026 mark 0
LayerCount: 2
Fore
SplineSet
271 1215 m 257
 396 1215 l 257
 638 1483 l 257
 551 1483 l 257
 330 1262 l 257
 171 1483 l 257
 93 1483 l 257
 271 1215 l 257
EndSplineSet
EndChar

StartChar: caron.alt
Encoding: 65537 -1 210
Width: 600
VWidth: 0
Flags: W
PickledData: "(dp1
S'org.robofab.postScriptHintData'
p2
(dp3
s."
AnchorPoint: "caron.alt" 46 1026 mark 0
LayerCount: 2
Fore
SplineSet
300 1082 m 257
 370 1082 l 257
 574 1515 l 257
 457 1515 l 257
 300 1082 l 257
EndSplineSet
EndChar

StartChar: cedilla
Encoding: 184 184 215
Width: 529
VWidth: 0
Flags: W
PickledData: "(dp1
S'org.robofab.postScriptHintData'
p2
(dp3
sS'com.typemytype.robofont.layerData'
p4
(dp5
S'b'
(dp6
S'name'
p7
S'cedilla'
p8
sS'lib'
p9
(dp10
sS'unicodes'
p11
(tsS'width'
p12
I529
sS'contours'
p13
(tsS'components'
p14
(tsS'anchors'
p15
(tsss."
AnchorPoint: "bot" 254 0 mark 0
LayerCount: 2
Fore
SplineSet
216 -389 m 256
 300 -392 416 -375 430 -261 c 256
 443 -154 323 -142 243 -139 c 257
 284 5 l 257
 225 5 l 257
 167 -189 l 257
 173 -189 l 258
 270 -189 348 -201 341 -254 c 256
 336 -301 310 -325 215 -321 c 256
 167 -319 107 -303 86 -292 c 257
 67 -350 l 257
 79 -356 134 -386 216 -389 c 256
EndSplineSet
EndChar

StartChar: cent
Encoding: 162 162 216
Width: 969
VWidth: 0
Flags: W
PickledData: "(dp1
S'org.robofab.postScriptHintData'
p2
(dp3
sS'com.typemytype.robofont.layerData'
p4
(dp5
S'b'
(dp6
S'name'
p7
S'cent'
p8
sS'lib'
p9
(dp10
sS'unicodes'
p11
(tsS'width'
p12
F1033.2
sS'contours'
p13
(tsS'components'
p14
(tsS'anchors'
p15
(tsss."
LayerCount: 2
Fore
SplineSet
473 -178 m 257
 548 -178 l 257
 724 1254 l 257
 649 1254 l 257
 473 -178 l 257
EndSplineSet
Refer: 207 99 N 1 0 0 1 0 0 2
EndChar

StartChar: circumflex
Encoding: 710 710 217
Width: 699
VWidth: 0
Flags: W
PickledData: "(dp1
S'org.robofab.postScriptHintData'
p2
(dp3
sS'com.typemytype.robofont.layerData'
p4
(dp5
S'b'
(dp6
S'name'
p7
S'circumflex'
p8
sS'lib'
p9
(dp10
sS'unicodes'
p11
(tsS'width'
p12
I699
sS'contours'
p13
(tsS'components'
p14
(tsS'anchors'
p15
(tsss."
AnchorPoint: "top" 305 1026 mark 0
LayerCount: 2
Fore
SplineSet
99 1215 m 257
 149 1215 l 257
 350 1400 l 257
 507 1215 l 257
 563 1215 l 257
 396 1487 l 257
 339 1487 l 257
 99 1215 l 257
EndSplineSet
EndChar

StartChar: colon
Encoding: 58 58 218
Width: 476
VWidth: 0
Flags: W
PickledData: "(dp1
S'org.robofab.postScriptHintData'
p2
(dp3
sS'com.typemytype.robofont.layerData'
p4
(dp5
S'b'
(dp6
S'name'
p7
S'colon'
p8
sS'lib'
p9
(dp10
sS'unicodes'
p11
(tsS'width'
p12
F544.60000000000002
sS'contours'
p13
(tsS'components'
p14
(tsS'anchors'
p15
(tsss."
LayerCount: 2
Fore
SplineSet
99 7 m 257
 253 7 l 257
 273 175 l 257
 119 175 l 257
 99 7 l 257
203 857 m 257
 357 857 l 257
 377 1024 l 257
 223 1024 l 257
 203 857 l 257
EndSplineSet
EndChar

StartChar: comma
Encoding: 44 44 219
Width: 410
VWidth: 0
Flags: W
PickledData: "(dp1
S'org.robofab.postScriptHintData'
p2
(dp3
sS'com.typemytype.robofont.layerData'
p4
(dp5
S'b'
(dp6
S'name'
p7
S'comma'
p8
sS'lib'
p9
(dp10
sS'unicodes'
p11
(tsS'width'
p12
F491.10000000000002
sS'contours'
p13
(tsS'components'
p14
(tsS'anchors'
p15
(tsss."
LayerCount: 2
Fore
SplineSet
72 -256 m 257
 142 -256 l 257
 345 164 l 257
 227 164 l 257
 72 -256 l 257
EndSplineSet
EndChar

StartChar: copyright
Encoding: 169 169 220
Width: 1748
VWidth: 0
Flags: W
PickledData: "(dp1
S'org.robofab.postScriptHintData'
p2
(dp3
sS'com.typemytype.robofont.layerData'
p4
(dp5
S'b'
(dp6
S'name'
p7
S'copyright'
p8
sS'lib'
p9
(dp10
sS'unicodes'
p11
(tsS'width'
p12
I1733
sS'contours'
p13
(tsS'components'
p14
(tsS'anchors'
p15
(tsss."
LayerCount: 2
Fore
SplineSet
840 266 m 256
 968 266 1071 306 1126 351 c 257
 1104 414 l 257
 1018 354 910 342 834 342 c 256
 633 342 532 486 560 716 c 256
 599 1031 814 1108 949 1108 c 256
 1020 1108 1106 1084 1156 1038 c 257
 1191 1100 l 257
 1140 1155 1050 1185 966 1185 c 256
 728 1185 508 1020 471 714 c 256
 434 412 593 266 840 266 c 256
793 46 m 256
 425 46 164 354 208 719 c 256
 253 1086 590 1393 958 1393 c 256
 1324 1393 1585 1086 1540 719 c 256
 1496 354 1159 46 793 46 c 256
779 -38 m 256
 1199 -38 1586 304 1638 724 c 256
 1689 1143 1387 1487 967 1487 c 256
 548 1487 161 1143 110 724 c 256
 58 304 360 -38 779 -38 c 256
EndSplineSet
EndChar

StartChar: currency
Encoding: 164 164 221
Width: 1218
VWidth: 0
Flags: W
PickledData: "(dp1
S'org.robofab.postScriptHintData'
p2
(dp3
s."
LayerCount: 2
Fore
SplineSet
111 547 m 257
 321 734 l 257
 382 677 466 643 562 643 c 256
 658 643 750 677 825 733 c 257
 988 547 l 257
 1045 598 l 257
 882 783 l 257
 946 850 990 935 1001 1028 c 256
 1013 1126 988 1214 936 1282 c 257
 1153 1475 l 257
 1108 1526 l 257
 889 1331 l 257
 828 1382 748 1413 656 1413 c 256
 564 1413 475 1382 403 1330 c 257
 230 1526 l 257
 173 1475 l 257
 344 1280 l 257
 277 1213 230 1125 218 1028 c 256
 207 935 229 851 276 785 c 257
 66 598 l 257
 111 547 l 257
569 714 m 256
 395 714 285 856 306 1030 c 256
 328 1204 472 1335 646 1335 c 256
 820 1335 932 1204 910 1030 c 256
 889 856 743 714 569 714 c 256
EndSplineSet
EndChar

StartChar: d
Encoding: 100 100 222
Width: 1256
VWidth: 0
Flags: W
PickledData: "(dp1
S'org.robofab.postScriptHintData'
p2
(dp3
sS'com.typemytype.robofont.layerData'
p4
(dp5
S'b'
(dp6
S'name'
p7
S'd'
sS'lib'
p8
(dp9
sS'unicodes'
p10
(tsS'width'
p11
F1265.05
sS'contours'
p12
(tsS'components'
p13
(tsS'anchors'
p14
(tsss."
AnchorPoint: "caron.alt" 945 1026 basechar 0
AnchorPoint: "mid" 1059 1264 basechar 0
AnchorPoint: "top" 615 1026 basechar 0
LayerCount: 2
Fore
SplineSet
466 -21 m 256
 654 -21 824 81 901 239 c 257
 876 0 l 257
 975 0 l 257
 975 2 988 162 1001 268 c 258
 1154 1516 l 257
 1056 1516 l 257
 968 799 l 257
 924 953 778 1052 597 1052 c 256
 315 1052 108 844 68 520 c 256
 28 191 184 -21 466 -21 c 256
476 61 m 256
 242 61 132 241 166 520 c 256
 200 794 353 970 587 970 c 256
 832 970 968 794 934 520 c 256
 900 241 721 61 476 61 c 256
EndSplineSet
EndChar

StartChar: dagger
Encoding: 8224 8224 223
Width: 1022
VWidth: 0
Flags: W
PickledData: "(dp1
S'org.robofab.postScriptHintData'
p2
(dp3
s."
LayerCount: 2
Fore
SplineSet
363 0 m 257
 471 0 l 257
 592 989 l 257
 927 989 l 257
 937 1068 l 257
 602 1068 l 257
 651 1473 l 257
 543 1473 l 257
 494 1068 l 257
 159 1068 l 257
 149 989 l 257
 484 989 l 257
 363 0 l 257
EndSplineSet
EndChar

StartChar: daggerdbl
Encoding: 8225 8225 224
Width: 971
VWidth: 0
Flags: W
PickledData: "(dp1
S'org.robofab.postScriptHintData'
p2
(dp3
sS'com.typemytype.robofont.layerData'
p4
(dp5
S'b'
(dp6
S'name'
p7
S'daggerdbl'
p8
sS'lib'
p9
(dp10
sS'unicodes'
p11
(tsS'width'
p12
F1092.6500000000001
sS'contours'
p13
(tsS'components'
p14
(tsS'anchors'
p15
(tsss."
LayerCount: 2
Fore
SplineSet
130 1068 m 257
 120 989 l 257
 455 989 l 257
 393 484 l 257
 58 484 l 257
 48 405 l 257
 383 405 l 257
 334 0 l 257
 442 0 l 257
 491 405 l 257
 826 405 l 257
 836 484 l 257
 501 484 l 257
 563 989 l 257
 898 989 l 257
 908 1068 l 257
 573 1068 l 257
 622 1473 l 257
 514 1473 l 257
 465 1068 l 257
 130 1068 l 257
EndSplineSet
EndChar

StartChar: degree
Encoding: 176 176 228
Width: 812
VWidth: 0
Flags: W
PickledData: "(dp1
S'org.robofab.postScriptHintData'
p2
(dp3
sS'com.typemytype.robofont.layerData'
p4
(dp5
S'b'
(dp6
S'name'
p7
S'degree'
p8
sS'lib'
p9
(dp10
sS'unicodes'
p11
(tsS'width'
p12
F856.60000000000002
sS'contours'
p13
(tsS'components'
p14
(tsS'anchors'
p15
(tsss."
LayerCount: 2
Fore
SplineSet
382 945 m 256
 246 945 197 1044 209 1147 c 256
 222 1250 300 1345 431 1345 c 256
 561 1345 614 1250 601 1147 c 256
 589 1044 517 945 382 945 c 256
371 859 m 256
 543 859 678 991 697 1145 c 256
 716 1300 615 1428 441 1428 c 256
 266 1428 134 1300 115 1145 c 256
 96 991 198 859 371 859 c 256
EndSplineSet
EndChar

StartChar: dieresis
Encoding: 168 168 229
Width: 743
VWidth: 0
Flags: W
PickledData: "(dp1
S'org.robofab.postScriptHintData'
p2
(dp3
s."
AnchorPoint: "top" 346 1026 mark 0
LayerCount: 2
Fore
SplineSet
149 1210 m 257
 247 1210 l 257
 261 1318 l 257
 163 1318 l 257
 149 1210 l 257
485 1210 m 257
 584 1210 l 257
 598 1318 l 257
 499 1318 l 257
 485 1210 l 257
EndSplineSet
EndChar

StartChar: divide
Encoding: 247 247 230
Width: 1006
VWidth: 0
Flags: W
PickledData: "(dp1
S'org.robofab.postScriptHintData'
p2
(dp3
s."
LayerCount: 2
Fore
SplineSet
396 49 m 257
 550 49 l 257
 571 215 l 257
 416 215 l 257
 396 49 l 257
122 511 m 257
 927 511 l 257
 939 602 l 257
 134 602 l 257
 122 511 l 257
503 896 m 257
 658 896 l 257
 678 1063 l 257
 523 1063 l 257
 503 896 l 257
EndSplineSet
EndChar

StartChar: dollar
Encoding: 36 36 232
Width: 1143
VWidth: 0
Flags: W
PickledData: "(dp1
S'org.robofab.postScriptHintData'
p2
(dp3
sS'com.typemytype.robofont.layerData'
p4
(dp5
S'b'
(dp6
S'name'
p7
S'dollar'
p8
sS'lib'
p9
(dp10
sS'unicodes'
p11
(tsS'width'
p12
F1200.0999999999999
sS'contours'
p13
(tsS'components'
p14
(tsS'anchors'
p15
(tsss."
LayerCount: 2
Fore
SplineSet
447 -193 m 257
 522 -193 l 257
 744 1622 l 257
 669 1622 l 257
 447 -193 l 257
EndSplineSet
Refer: 125 83 N 1 0 0 1 0 0 2
EndChar

StartChar: dotaccent
Encoding: 729 729 233
Width: 524
VWidth: 0
Flags: W
PickledData: "(dp1
S'org.robofab.postScriptHintData'
p2
(dp3
sS'com.typemytype.robofont.layerData'
p4
(dp5
S'b'
(dp6
S'name'
p7
S'dotaccent'
p8
sS'lib'
p9
(dp10
sS'unicodes'
p11
(tsS'width'
p12
F524
sS'contours'
p13
(tsS'components'
p14
(tsS'anchors'
p15
(tsss."
AnchorPoint: "top" 229 1026 mark 0
LayerCount: 2
Fore
SplineSet
193 1238 m 257
 315 1238 l 257
 331 1364 l 257
 209 1364 l 257
 193 1238 l 257
EndSplineSet
EndChar

StartChar: dotlessi
Encoding: 305 305 234
Width: 473
VWidth: 0
Flags: W
PickledData: "(dp1
S'org.robofab.postScriptHintData'
p2
(dp3
s."
AnchorPoint: "top" 301 1026 basechar 0
AnchorPoint: "ogonek" 176 0 basechar 0
LayerCount: 2
Fore
SplineSet
124 0 m 257
 225 0 l 257
 349 1026 l 257
 248 1026 l 257
 124 0 l 257
EndSplineSet
EndChar

StartChar: dotlessj
Encoding: 567 567 235
Width: 503
VWidth: 0
Flags: W
PickledData: "(dp1
S'org.robofab.postScriptHintData'
p2
(dp3
s."
AnchorPoint: "top" 359 1026 basechar 0
LayerCount: 2
Fore
SplineSet
-72 -444 m 256
 214 -444 272 -124 301 113 c 258
 413 1026 l 257
 299 1026 l 257
 175 10 l 258
 145 -231 67 -338 -96 -338 c 256
 -118 -338 -142 -336 -156 -334 c 257
 -167 -438 l 257
 -139 -445 -105 -444 -72 -444 c 256
EndSplineSet
EndChar

StartChar: e
Encoding: 101 101 238
Width: 1133
VWidth: 0
Flags: W
PickledData: "(dp1
S'org.robofab.postScriptHintData'
p2
(dp3
sS'com.typemytype.robofont.guides'
p4
(tsS'com.typemytype.robofont.layerData'
p5
(dp6
S'b'
(dp7
S'name'
p8
S'e'
sS'lib'
p9
(dp10
sS'unicodes'
p11
(tsS'width'
p12
F1169.75
sS'contours'
p13
(tsS'components'
p14
(tsS'anchors'
p15
(tsss."
AnchorPoint: "bot" 532 0 basechar 0
AnchorPoint: "top" 649 1026 basechar 0
AnchorPoint: "ogonek" 615 0 basechar 0
LayerCount: 2
Fore
SplineSet
550 -21 m 256
 688 -21 843 29 948 108 c 257
 920 177 l 257
 821 106 689 61 560 61 c 256
 301 61 159 236 195 507 c 257
 1044 507 l 257
 1051 565 l 258
 1087 861 934 1052 658 1052 c 256
 356 1052 136 839 95 508 c 256
 56 186 234 -21 550 -21 c 256
210 578 m 257
 258 817 430 970 648 970 c 256
 861 970 987 817 971 578 c 257
 210 578 l 257
EndSplineSet
EndChar

StartChar: eight
Encoding: 56 56 247
Width: 1178
VWidth: 0
Flags: W
PickledData: "(dp1
S'org.robofab.postScriptHintData'
p2
(dp3
sS'com.typemytype.robofont.layerData'
p4
(dp5
S'b'
(dp6
S'name'
p7
S'eight'
p8
sS'lib'
p9
(dp10
sS'unicodes'
p11
(tsS'width'
p12
F1235.45
sS'contours'
p13
(tsS'components'
p14
(tsS'anchors'
p15
(tsss."
LayerCount: 2
Fore
SplineSet
494 -23 m 256
 740 -23 974 118 1004 367 c 256
 1029 571 942 706 707 765 c 257
 914 817 1041 949 1063 1132 c 256
 1091 1354 895 1483 683 1483 c 256
 454 1483 242 1350 214 1125 c 256
 192 941 283 808 479 762 c 257
 242 707 108 562 84 361 c 256
 53 112 270 -23 494 -23 c 256
507 71 m 256
 306 71 166 177 191 376 c 256
 213 562 369 656 580 697 c 257
 792 657 923 573 898 374 c 256
 875 184 713 71 507 71 c 256
600 822 m 257
 396 857 293 950 314 1124 c 256
 336 1299 507 1400 672 1400 c 256
 845 1400 986 1302 963 1116 c 256
 943 949 817 855 600 822 c 257
EndSplineSet
EndChar

StartChar: ellipsis
Encoding: 8230 8230 249
Width: 1620
VWidth: 0
Flags: W
PickledData: "(dp1
S'org.robofab.postScriptHintData'
p2
(dp3
s."
LayerCount: 2
Fore
SplineSet
182 -11 m 257
 335 -11 l 257
 356 156 l 257
 202 156 l 257
 182 -11 l 257
737 -11 m 257
 889 -11 l 257
 910 156 l 257
 757 156 l 257
 737 -11 l 257
1291 -11 m 257
 1446 -11 l 257
 1466 156 l 257
 1311 156 l 257
 1291 -11 l 257
EndSplineSet
EndChar

StartChar: emdash
Encoding: 8212 8212 251
Width: 2171
VWidth: 0
Flags: W
PickledData: "(dp1
S'org.robofab.postScriptHintData'
p2
(dp3
s."
LayerCount: 2
Fore
SplineSet
-47 515 m 257
 2178 515 l 257
 2188 604 l 257
 -37 604 l 257
 -47 515 l 257
EndSplineSet
EndChar

StartChar: endash
Encoding: 8211 8211 252
Width: 1067
VWidth: 0
Flags: W
PickledData: "(dp1
S'org.robofab.postScriptHintData'
p2
(dp3
s."
LayerCount: 2
Fore
SplineSet
-18 515 m 257
 1060 515 l 257
 1070 604 l 257
 -8 604 l 257
 -18 515 l 257
EndSplineSet
EndChar

StartChar: eng
Encoding: 331 331 253
Width: 1295
VWidth: 0
Flags: W
PickledData: "(dp1
S'org.robofab.postScriptHintData'
p2
(dp3
s."
LayerCount: 2
Fore
SplineSet
610 -390 m 256
 997 -390 1042 -169 1082 156 c 258
 1127 525 l 258
 1158 775 1151 1050 797 1050 c 256
 605 1050 487 997 377 888 c 257
 385 1026 l 257
 291 1026 l 257
 291 1026 274 918 270 880 c 258
 161 0 l 257
 263 0 l 257
 347 678 l 258
 353 724 493 963 773 963 c 256
 1055 963 1052 750 1019 481 c 258
 980 164 l 258
 946 -111 931 -306 621 -306 c 256
 528 -306 398 -287 208 -237 c 257
 189 -334 l 257
 363 -373 501 -390 610 -390 c 256
EndSplineSet
EndChar

StartChar: equal
Encoding: 61 61 255
Width: 1040
VWidth: 0
Flags: W
PickledData: "(dp1
S'org.robofab.postScriptHintData'
p2
(dp3
sS'com.typemytype.robofont.layerData'
p4
(dp5
S'b'
(dp6
S'name'
p7
S'equal'
p8
sS'lib'
p9
(dp10
sS'unicodes'
p11
(tsS'width'
p12
I1229
sS'contours'
p13
(tsS'components'
p14
(tsS'anchors'
p15
(tsss."
LayerCount: 2
Fore
SplineSet
83 333 m 257
 901 333 l 257
 913 425 l 257
 95 425 l 257
 83 333 l 257
127 705 m 257
 947 705 l 257
 959 798 l 257
 139 798 l 257
 127 705 l 257
EndSplineSet
EndChar

StartChar: estimated
Encoding: 8494 8494 256
Width: 1184
VWidth: 0
Flags: W
PickledData: "(dp1
S'org.robofab.postScriptHintData'
p2
(dp3
s."
LayerCount: 2
Fore
SplineSet
560 114 m 256
 702 114 859 158 1006 247 c 257
 985 299 l 257
 850 218 695 176 593 176 c 256
 393 176 228 283 276 655 c 257
 1019 655 l 257
 1025 671 1028 689 1029 700 c 256
 1075 1075 913 1199 678 1199 c 256
 445 1199 194 1050 145 652 c 256
 101 294 275 114 560 114 c 256
283 713 m 257
 325 1036 508 1141 668 1141 c 256
 848 1141 965 1037 925 713 c 257
 283 713 l 257
EndSplineSet
EndChar

StartChar: eth
Encoding: 240 240 257
Width: 1231
VWidth: 0
Flags: W
PickledData: "(dp1
S'org.robofab.postScriptHintData'
p2
(dp3
sS'com.typemytype.robofont.layerData'
p4
(dp5
S'b'
(dp6
S'name'
p7
S'eth'
p8
sS'lib'
p9
(dp10
sS'unicodes'
p11
(tsS'width'
p12
F1222.55
sS'contours'
p13
(tsS'components'
p14
(tsS'anchors'
p15
(tsss."
LayerCount: 2
Fore
SplineSet
523 -22 m 256
 839 -22 1031 211 1079 603 c 256
 1123 959 1022 1189 833 1344 c 257
 991 1455 l 257
 947 1520 l 257
 766 1393 l 257
 668 1458 554 1509 425 1549 c 257
 373 1472 l 257
 496 1431 598 1386 682 1334 c 257
 534 1230 l 257
 576 1163 l 257
 752 1287 l 257
 955 1134 1021 935 1003 676 c 257
 957 778 837 891 618 891 c 256
 317 891 119 711 84 431 c 256
 50 155 215 -22 523 -22 c 256
533 60 m 256
 286 60 156 205 184 431 c 256
 212 661 368 809 608 809 c 256
 838 809 982 676 959 485 c 256
 927 227 776 60 533 60 c 256
EndSplineSet
EndChar

StartChar: exclam
Encoding: 33 33 259
Width: 442
VWidth: 0
Flags: W
PickledData: "(dp1
S'org.robofab.postScriptHintData'
p2
(dp3
sS'com.typemytype.robofont.layerData'
p4
(dp5
S'b'
(dp6
S'name'
p7
S'exclam'
p8
sS'lib'
p9
(dp10
sS'unicodes'
p11
(tsS'width'
p12
F590
sS'contours'
p13
(tsS'components'
p14
(tsS'anchors'
p15
(tsss."
LayerCount: 2
Fore
SplineSet
54 0 m 257
 211 0 l 257
 230 160 l 257
 73 160 l 257
 54 0 l 257
151 363 m 257
 207 363 l 257
 373 1456 l 257
 253 1456 l 257
 151 363 l 257
EndSplineSet
EndChar

StartChar: f
Encoding: 102 102 261
Width: 604
VWidth: 0
Flags: W
PickledData: "(dp1
S'org.robofab.postScriptHintData'
p2
(dp3
sS'com.typemytype.robofont.layerData'
p4
(dp5
S'b'
(dp6
S'name'
p7
S'f'
sS'lib'
p8
(dp9
sS'unicodes'
p10
(tsS'width'
p11
F733.10000000000002
sS'contours'
p12
(tsS'components'
p13
(tsS'anchors'
p14
(tsss."
AnchorPoint: "top" 369 1456 basechar 0
LayerCount: 2
Fore
SplineSet
150 0 m 257
 248 0 l 257
 366 961 l 257
 629 961 l 257
 637 1026 l 257
 374 1026 l 257
 396 1209 l 258
 415 1362 430 1416 698 1416 c 257
 708 1499 l 257
 673 1499 l 258
 387 1499 323 1406 295 1184 c 258
 276 1026 l 257
 102 1026 l 257
 94 961 l 257
 268 961 l 257
 150 0 l 257
EndSplineSet
EndChar

StartChar: f_f
Encoding: 65538 -1 262
Width: 1205
VWidth: 0
Flags: W
PickledData: "(dp1
S'org.robofab.postScriptHintData'
p2
(dp3
s."
AnchorPoint: "top" 969 1456 basechar 0
LayerCount: 2
Fore
SplineSet
966 961 m 257
 1229 961 l 257
 1237 1026 l 257
 974 1026 l 257
 996 1209 l 258
 1013 1342 1040 1416 1311 1416 c 257
 1314 1499 l 257
 1273 1499 l 258
 987 1499 921 1394 894 1172 c 258
 876 1026 l 257
 372 1026 l 257
 394 1209 l 258
 411 1342 438 1416 709 1416 c 257
 712 1499 l 257
 671 1499 l 258
 385 1499 319 1394 292 1172 c 258
 274 1026 l 257
 100 1026 l 257
 92 961 l 257
 266 961 l 257
 148 0 l 257
 246 0 l 257
 364 961 l 257
 868 961 l 257
 750 0 l 257
 848 0 l 257
 966 961 l 257
EndSplineSet
EndChar

StartChar: f_f_i
Encoding: 65539 -1 263
Width: 1696
VWidth: 0
Flags: W
PickledData: "(dp1
S'org.robofab.postScriptHintData'
p2
(dp3
s."
AnchorPoint: "top" 969 1456 basechar 0
LayerCount: 2
Fore
SplineSet
1402 0 m 257
 1528 1026 l 257
 974 1026 l 257
 996 1209 l 258
 1013 1342 1040 1416 1311 1416 c 257
 1314 1499 l 257
 1273 1499 l 258
 987 1499 921 1394 894 1172 c 258
 876 1026 l 257
 372 1026 l 257
 394 1209 l 258
 411 1342 438 1416 709 1416 c 257
 712 1499 l 257
 671 1499 l 258
 385 1499 319 1394 292 1172 c 258
 274 1026 l 257
 100 1026 l 257
 92 961 l 257
 266 961 l 257
 148 0 l 257
 246 0 l 257
 364 961 l 257
 868 961 l 257
 750 0 l 257
 848 0 l 257
 966 961 l 257
 1422 961 l 257
 1304 0 l 257
 1402 0 l 257
1567 1346 m 257
 1581 1456 l 257
 1483 1456 l 257
 1469 1346 l 257
 1567 1346 l 257
EndSplineSet
EndChar

StartChar: f_f_l
Encoding: 65540 -1 264
Width: 1714
VWidth: 0
Flags: W
PickledData: "(dp1
S'org.robofab.postScriptHintData'
p2
(dp3
s."
AnchorPoint: "top" 367 1456 basechar 0
LayerCount: 2
Fore
SplineSet
148 0 m 257
 246 0 l 257
 364 961 l 257
 627 961 l 257
 635 1026 l 257
 372 1026 l 257
 394 1209 l 258
 411 1342 438 1416 709 1416 c 257
 712 1499 l 257
 671 1499 l 258
 385 1499 319 1394 292 1172 c 258
 274 1026 l 257
 100 1026 l 257
 92 961 l 257
 266 961 l 257
 148 0 l 257
EndSplineSet
Refer: 269 64258 N 1 0 0 1 505 0 2
EndChar

StartChar: fi
Encoding: 64257 64257 266
Width: 1174
VWidth: 0
Flags: W
PickledData: "(dp1
S'org.robofab.postScriptHintData'
p2
(dp3
sS'com.typemytype.robofont.layerData'
p4
(dp5
S'b'
(dp6
S'name'
p7
S'fi'
p8
sS'lib'
p9
(dp10
sS'unicodes'
p11
(tsS'width'
p12
F1237.6500000000001
sS'contours'
p13
((dp14
S'points'
p15
((dp16
S'segmentType'
p17
S'line'
p18
sS'x'
F249
sS'smooth'
p19
I00
sS'y'
F0
s(dp20
g17
S'line'
p21
sS'x'
F249
sg19
I00
sS'y'
F919
s(dp22
g17
S'line'
p23
sS'x'
F68
sg19
I00
sS'y'
F919
s(dp24
g17
S'line'
p25
sS'x'
F68
sg19
I00
sS'y'
F1026
s(dp26
g17
S'line'
p27
sS'x'
F249
sg19
I00
sS'y'
F1026
s(dp28
g17
S'line'
p29
sS'x'
F249
sg19
I01
sS'y'
F1127
s(dp30
S'y'
F1378
sS'x'
F249
sg19
I00
s(dp31
S'y'
F1492
sS'x'
F295
sg19
I00
s(dp32
g17
S'curve'
p33
sS'x'
F630
sg19
I01
sS'y'
F1492
s(dp34
g17
S'line'
p35
sS'x'
F676
sg19
I00
sS'y'
F1492
s(dp36
g17
S'line'
p37
sS'x'
F676
sg19
I00
sS'y'
F1364
s(dp38
S'y'
F1364
sS'x'
F431
sg19
I00
s(dp39
S'y'
F1311
sS'x'
F413
sg19
I00
s(dp40
g17
S'curve'
p41
sS'x'
F413
sg19
I01
sS'y'
F1150
s(dp42
g17
S'line'
p43
sS'x'
F413
sg19
I00
sS'y'
F1026
s(dp44
g17
S'line'
p45
sS'x'
F662
sg19
I00
sS'y'
F1026
s(dp46
g17
S'line'
p47
sS'x'
F662
sg19
I00
sS'y'
F919
s(dp48
g17
S'line'
p49
sS'x'
F413
sg19
I00
sS'y'
F919
s(dp50
g17
S'line'
p51
sS'x'
F413
sg19
I00
sS'y'
F0
stp52
s(dp53
g15
((dp54
g17
S'line'
p55
sS'x'
F869
sg19
I00
sS'y'
F0
s(dp56
g17
S'line'
p57
sS'x'
F869
sg19
I00
sS'y'
F1026
s(dp58
g17
S'line'
p59
sS'x'
F1033
sg19
I00
sS'y'
F1026
s(dp60
g17
S'line'
p61
sS'x'
F1033
sg19
I00
sS'y'
F0
stp62
s(dp63
g15
((dp64
g17
S'line'
p65
sS'x'
F869
sg19
I00
sS'y'
F1307
s(dp66
g17
S'line'
p67
sS'x'
F869
sg19
I00
sS'y'
F1462
s(dp68
g17
S'line'
p69
sS'x'
F1033
sg19
I00
sS'y'
F1462
s(dp70
g17
S'line'
p71
sS'x'
F1033
sg19
I00
sS'y'
F1307
stp72
stp73
sS'components'
p74
(tsS'anchors'
p75
(tsss."
LayerCount: 2
Fore
SplineSet
150 0 m 257
 262 0 l 257
 379 954 l 257
 930 954 l 257
 939 1026 l 257
 388 1026 l 257
 409 1198 l 258
 426 1336 452 1407 719 1407 c 257
 724 1497 l 257
 682 1497 l 258
 388 1497 321 1391 293 1164 c 258
 276 1026 l 257
 101 1026 l 257
 92 954 l 257
 267 954 l 257
 150 0 l 257
EndSplineSet
Refer: 295 105 N 1 0 0 1 662 0 2
EndChar

StartChar: five
Encoding: 53 53 267
Width: 1177
VWidth: 0
Flags: W
PickledData: "(dp1
S'org.robofab.postScriptHintData'
p2
(dp3
s."
LayerCount: 2
Fore
SplineSet
466 -22 m 256
 728 -22 985 135 1023 447 c 256
 1056 718 894 893 609 893 c 256
 491 893 367 845 294 771 c 257
 395 1367 l 257
 1031 1367 l 257
 1042 1456 l 257
 309 1456 l 257
 193 673 l 257
 273 656 l 257
 341 748 468 807 598 807 c 256
 816 807 940 667 913 449 c 256
 881 184 694 60 486 60 c 256
 363 60 234 104 123 187 c 257
 77 109 l 257
 188 21 328 -22 466 -22 c 256
EndSplineSet
EndChar

StartChar: fl
Encoding: 64258 64258 269
Width: 1229
VWidth: 0
Flags: W
PickledData: "(dp1
S'org.robofab.postScriptHintData'
p2
(dp3
sS'com.typemytype.robofont.layerData'
p4
(dp5
S'b'
(dp6
S'name'
p7
S'fl'
p8
sS'lib'
p9
(dp10
sS'unicodes'
p11
(tsS'width'
p12
F1252.7
sS'contours'
p13
(tsS'components'
p14
((dp15
S'transformation'
p16
(I1
I0
I0
I1
I20
I0
tp17
sS'baseGlyph'
p18
S'f'
s(dp19
g16
(I1
I0
I0
I1
I714
I0
tp20
sg18
S'l'
stp21
sS'anchors'
p22
(tsss."
LayerCount: 2
Fore
SplineSet
186 0 m 257
 298 0 l 257
 416 961 l 257
 676 961 l 257
 684 1026 l 257
 424 1026 l 257
 440 1161 l 258
 461 1332 513 1380 832 1380 c 258
 993 1380 l 257
 824 0 l 257
 937 0 l 257
 1117 1468 l 257
 875 1468 l 258
 466 1468 356 1388 328 1155 c 258
 312 1026 l 257
 103 1026 l 257
 95 961 l 257
 304 961 l 257
 186 0 l 257
EndSplineSet
EndChar

StartChar: florin
Encoding: 402 402 270
Width: 1016
VWidth: 0
Flags: W
PickledData: "(dp1
S'org.robofab.postScriptHintData'
p2
(dp3
sS'com.typemytype.robofont.layerData'
p4
(dp5
S'b'
(dp6
S'name'
p7
S'florin'
p8
sS'lib'
p9
(dp10
sS'unicodes'
p11
(tsS'width'
p12
F1073.0999999999999
sS'contours'
p13
(tsS'components'
p14
(tsS'anchors'
p15
(tsss."
LayerCount: 2
Fore
SplineSet
88 -277 m 256
 358 -277 372 -73 434 137 c 258
 702 1034 l 257
 935 1034 l 257
 961 1113 l 257
 717 1113 l 257
 761 1237 l 257
 784 1316 813 1401 979 1401 c 256
 1030 1401 1076 1382 1076 1382 c 257
 1102 1473 l 257
 1102 1473 1018 1492 987 1492 c 256
 784 1492 691 1360 639 1151 c 258
 629 1113 l 257
 447 1113 l 257
 434 1034 l 257
 607 1034 l 257
 284 -34 l 258
 265 -92 208 -185 74 -185 c 256
 52 -185 10 -172 10 -172 c 257
 -10 -263 l 257
 23 -271 41 -277 88 -277 c 256
EndSplineSet
EndChar

StartChar: four
Encoding: 52 52 272
Width: 1177
VWidth: 0
Flags: W
PickledData: "(dp1
S'org.robofab.postScriptHintData'
p2
(dp3
sS'com.typemytype.robofont.layerData'
p4
(dp5
S'b'
(dp6
S'name'
p7
S'four'
p8
sS'lib'
p9
(dp10
sS'unicodes'
p11
(tsS'width'
p12
F1234.0999999999999
sS'contours'
p13
(tsS'components'
p14
(tsS'anchors'
p15
(tsss."
LayerCount: 2
Fore
SplineSet
678 0 m 257
 788 0 l 257
 836 391 l 257
 1042 391 l 257
 1053 485 l 257
 851 485 l 257
 970 1456 l 257
 789 1456 l 257
 70 475 l 257
 60 391 l 257
 726 391 l 257
 678 0 l 257
191 485 m 257
 658 1126 l 257
 846 1387 l 257
 735 485 l 257
 191 485 l 257
EndSplineSet
EndChar

StartChar: foursuperior
Encoding: 8308 8308 273
Width: 897
VWidth: 0
Flags: W
PickledData: "(dp1
S'org.robofab.postScriptHintData'
p2
(dp3
s."
LayerCount: 2
Fore
SplineSet
484 670 m 257
 558 670 l 257
 580 854 l 257
 666 854 l 257
 676 926 l 257
 593 926 l 257
 658 1456 l 257
 559 1456 l 257
 120 923 l 257
 111 854 l 257
 506 854 l 257
 484 670 l 257
206 926 m 257
 567 1367 l 257
 513 926 l 257
 206 926 l 257
EndSplineSet
EndChar

StartChar: fraction
Encoding: 8260 8260 274
Width: 994
VWidth: 0
Flags: W
PickledData: "(dp1
S'org.robofab.postScriptHintData'
p2
(dp3
sS'com.typemytype.robofont.layerData'
p4
(dp5
S'b'
(dp6
S'name'
p7
S'fraction'
p8
sS'lib'
p9
(dp10
sS'unicodes'
p11
(tsS'width'
p12
F1077.8
sS'contours'
p13
(tsS'components'
p14
(tsS'anchors'
p15
(tsss."
LayerCount: 2
Fore
SplineSet
-89 0 m 257
 -12 0 l 257
 1083 1456 l 257
 1009 1456 l 257
 -89 0 l 257
EndSplineSet
EndChar

StartChar: g
Encoding: 103 103 275
Width: 1268
VWidth: 0
Flags: W
PickledData: "(dp1
S'org.robofab.postScriptHintData'
p2
(dp3
sS'com.typemytype.robofont.layerData'
p4
(dp5
S'b'
(dp6
S'name'
p7
S'g'
sS'lib'
p8
(dp9
sS'unicodes'
p10
(tsS'width'
p11
I1254
sS'contours'
p12
((dp13
S'points'
p14
((dp15
S'segmentType'
p16
S'curve'
p17
sS'x'
F580
sS'smooth'
p18
I01
sS'y'
F134
s(dp19
S'y'
F134
sS'x'
F799
sg18
I00
s(dp20
S'y'
F295
sS'x'
F920
sg18
I00
s(dp21
g16
S'curve'
p22
sS'x'
F920
sg18
I01
sS'y'
F550
s(dp23
S'y'
F775
sS'x'
F920
sg18
I00
s(dp24
S'y'
F918
sS'x'
F796
sg18
I00
s(dp25
g16
S'curve'
p26
sS'x'
F600
sg18
I01
sS'y'
F918
s(dp27
S'y'
F918
sS'x'
F399
sg18
I00
s(dp28
S'y'
F762
sS'x'
F268
sg18
I00
s(dp29
g16
S'curve'
p30
sS'x'
F268
sg18
I01
sS'y'
F515
s(dp31
S'y'
F282
sS'x'
F268
sg18
I00
s(dp32
S'y'
F134
sS'x'
F389
sg18
I00
stp33
s(dp34
g14
((dp35
g16
S'curve'
p36
sS'x'
F534
sg18
I01
sS'y'
F-420
s(dp37
S'y'
F-420
sS'x'
F408
sg18
I00
s(dp38
S'y'
F-381
sS'x'
F289
sg18
I00
s(dp39
g16
S'curve'
p40
sS'x'
F189
sg18
I00
sS'y'
F-331
s(dp41
g16
S'line'
p42
sS'x'
F216
sg18
I00
sS'y'
F-187
s(dp43
S'y'
F-238
sS'x'
F300
sg18
I00
s(dp44
S'y'
F-282
sS'x'
F416
sg18
I00
s(dp45
g16
S'curve'
p46
sS'x'
F528
sg18
I01
sS'y'
F-282
s(dp47
S'y'
F-282
sS'x'
F790
sg18
I00
s(dp48
S'y'
F-183
sS'x'
F920
sg18
I00
s(dp49
g16
S'curve'
p50
sS'x'
F920
sg18
I01
sS'y'
F49
s(dp51
g16
S'line'
p52
sS'x'
F920
sg18
I00
sS'y'
F273
s(dp53
g16
S'line'
p54
sS'x'
F948
sg18
I00
sS'y'
F253
s(dp55
S'y'
F139
sS'x'
F905
sg18
I00
s(dp56
S'y'
F0
sS'x'
F802
sg18
I00
s(dp57
g16
S'curve'
p58
sS'x'
F579
sg18
I01
sS'y'
F0
s(dp59
S'y'
F0
sS'x'
F298
sg18
I00
s(dp60
S'y'
F201
sS'x'
F98
sg18
I00
s(dp61
g16
S'curve'
p62
sS'x'
F98
sg18
I01
sS'y'
F511
s(dp63
S'y'
F843
sS'x'
F98
sg18
I00
s(dp64
S'y'
F1052
sS'x'
F284
sg18
I00
s(dp65
g16
S'curve'
p66
sS'x'
F579
sg18
I01
sS'y'
F1052
s(dp67
S'y'
F1052
sS'x'
F820
sg18
I00
s(dp68
S'y'
F900
sS'x'
F903
sg18
I00
s(dp69
g16
S'curve'
p70
sS'x'
F958
sg18
I00
sS'y'
F798
s(dp71
g16
S'line'
p72
sS'x'
F919
sg18
I00
sS'y'
F787
s(dp73
g16
S'line'
p74
sS'x'
F926
sg18
I00
sS'y'
F1026
s(dp75
g16
S'line'
p76
sS'x'
F1090
sg18
I00
sS'y'
F1026
s(dp77
S'y'
F1026
sS'x'
F1090
sg18
I00
s(dp78
S'y'
F857
sS'x'
F1084
sg18
I00
s(dp79
g16
S'curve'
p80
sS'x'
F1084
sg18
I01
sS'y'
F773
s(dp81
g16
S'line'
p82
sS'x'
F1084
sg18
I01
sS'y'
F143
s(dp83
S'y'
F-255
sS'x'
F1084
sg18
I00
s(dp84
S'y'
F-420
sS'x'
F903
sg18
I00
stp85
stp86
sS'components'
p87
(tsS'anchors'
p88
(tsss."
AnchorPoint: "top" 669 1026 basechar 0
LayerCount: 2
Fore
SplineSet
464 -443 m 256
 750 -443 992 -278 1041 114 c 258
 1129 837 l 257
 1160 1026 l 257
 1065 1026 l 257
 1029 817 l 257
 985 953 852 1052 672 1052 c 256
 377 1052 162 841 122 514 c 256
 82 191 240 -16 525 -16 c 256
 708 -16 875 72 958 236 c 257
 943 114 l 258
 900 -230 713 -359 475 -359 c 256
 374 -359 255 -337 146 -291 c 257
 123 -377 l 257
 233 -424 352 -443 464 -443 c 256
535 66 m 256
 311 66 188 241 222 514 c 256
 256 792 428 970 662 970 c 256
 897 970 1026 792 992 514 c 256
 958 241 780 66 535 66 c 256
EndSplineSet
EndChar

StartChar: germandbls
Encoding: 223 223 282
Width: 1240
VWidth: 0
Flags: W
PickledData: "(dp1
S'org.robofab.postScriptHintData'
p2
(dp3
sS'com.typemytype.robofont.layerData'
p4
(dp5
S'b'
(dp6
S'name'
p7
S'germandbls'
p8
sS'lib'
p9
(dp10
sS'unicodes'
p11
(tsS'width'
p12
F1250.95145088
sS'contours'
p13
(tsS'components'
p14
(tsS'anchors'
p15
(tsss."
LayerCount: 2
Fore
SplineSet
649 -28 m 256
 895 -28 1071 112 1098 329 c 256
 1135 629 899 775 670 837 c 258
 634 847 l 257
 674 857 l 258
 910 916 1016 999 1042 1208 c 256
 1066 1406 930 1534 693 1534 c 256
 434 1534 276 1371 237 1062 c 258
 104 0 l 257
 202 0 l 257
 332 1062 l 258
 363 1315 483 1448 680 1448 c 256
 862 1448 968 1354 950 1208 c 256
 932 1059 895 962 554 889 c 257
 543 805 l 257
 898 690 1027 563 998 329 c 256
 977 162 845 54 659 54 c 256
 582 54 469 80 372 120 c 257
 353 37 l 257
 446 -3 562 -28 649 -28 c 256
EndSplineSet
EndChar

StartChar: grave
Encoding: 96 96 283
Width: 581
VWidth: 0
Flags: W
PickledData: "(dp1
S'org.robofab.postScriptHintData'
p2
(dp3
s."
AnchorPoint: "top" 440 1026 mark 0
LayerCount: 2
Fore
SplineSet
428 1174 m 257
 482 1174 l 257
 279 1456 l 257
 144 1456 l 257
 428 1174 l 257
EndSplineSet
EndChar

StartChar: greater
Encoding: 62 62 284
Width: 1042
VWidth: 0
Flags: W
PickledData: "(dp1
S'org.robofab.postScriptHintData'
p2
(dp3
sS'com.typemytype.robofont.layerData'
p4
(dp5
S'b'
(dp6
S'name'
p7
S'greater'
p8
sS'lib'
p9
(dp10
sS'unicodes'
p11
(tsS'width'
p12
F1268.05
sS'contours'
p13
(tsS'components'
p14
(tsS'anchors'
p15
(tsss."
LayerCount: 2
Fore
SplineSet
158 105 m 257
 990 508 l 257
 998 573 l 257
 275 1012 l 257
 263 913 l 257
 885 542 l 257
 170 204 l 257
 158 105 l 257
EndSplineSet
EndChar

StartChar: greaterequal
Encoding: 8805 8805 285
Width: 1349
VWidth: 0
Flags: W
PickledData: "(dp1
S'org.robofab.postScriptHintData'
p2
(dp3
sS'com.typemytype.robofont.layerData'
p4
(dp5
S'b'
(dp6
S'name'
p7
S'greaterequal'
p8
sS'lib'
p9
(dp10
sS'unicodes'
p11
(tsS'width'
p12
F1350.3499999999999
sS'contours'
p13
(tsS'components'
p14
(tsS'anchors'
p15
(tsss."
LayerCount: 2
Fore
SplineSet
279 153 m 257
 1109 535 l 257
 1118 606 l 257
 395 1063 l 257
 383 962 l 257
 1010 580 l 257
 291 256 l 257
 279 153 l 257
245 0 m 257
 1094 0 l 257
 1103 77 l 257
 254 77 l 257
 245 0 l 257
EndSplineSet
EndChar

StartChar: guillemotleft
Encoding: 171 171 286
Width: 1040
VWidth: 0
Flags: W
PickledData: "(dp1
S'org.robofab.postScriptHintData'
p2
(dp3
sS'com.typemytype.robofont.layerData'
p4
(dp5
S'b'
(dp6
S'name'
p7
S'guillemotright'
p8
sS'lib'
p9
(dp10
sS'unicodes'
p11
(tsS'width'
p12
F1122.45
sS'contours'
p13
(tsS'components'
p14
(tsS'anchors'
p15
(tsss."
LayerCount: 2
Fore
SplineSet
329 186 m 257
 439 186 l 257
 232 547 l 257
 537 914 l 257
 424 914 l 257
 111 546 l 257
 329 186 l 257
744 186 m 257
 854 186 l 257
 646 547 l 257
 952 914 l 257
 838 914 l 257
 526 546 l 257
 744 186 l 257
EndSplineSet
EndChar

StartChar: guillemotright
Encoding: 187 187 287
Width: 1040
VWidth: 0
Flags: W
PickledData: "(dp1
S'org.robofab.postScriptHintData'
p2
(dp3
sS'com.typemytype.robofont.layerData'
p4
(dp5
S'b'
(dp6
S'name'
p7
S'guillemotright'
p8
sS'lib'
p9
(dp10
sS'unicodes'
p11
(tsS'width'
p12
F1122.45
sS'contours'
p13
(tsS'components'
p14
(tsS'anchors'
p15
(tsss."
LayerCount: 2
Fore
SplineSet
68 180 m 257
 182 180 l 257
 494 547 l 257
 276 908 l 257
 166 908 l 257
 374 546 l 257
 68 180 l 257
483 180 m 257
 597 180 l 257
 909 547 l 257
 691 908 l 257
 581 908 l 257
 789 546 l 257
 483 180 l 257
EndSplineSet
EndChar

StartChar: guilsinglleft
Encoding: 8249 8249 288
Width: 634
VWidth: 0
Flags: W
PickledData: "(dp1
S'org.robofab.postScriptHintData'
p2
(dp3
sS'com.typemytype.robofont.layerData'
p4
(dp5
S'b'
(dp6
S'name'
p7
S'guilsinglleft'
p8
sS'lib'
p9
(dp10
sS'unicodes'
p11
(tsS'width'
p12
F688.39999999999998
sS'contours'
p13
(tsS'components'
p14
(tsS'anchors'
p15
(tsss."
LayerCount: 2
Fore
SplineSet
356 180 m 257
 466 180 l 257
 258 542 l 257
 564 908 l 257
 450 908 l 257
 138 541 l 257
 356 180 l 257
EndSplineSet
EndChar

StartChar: guilsinglright
Encoding: 8250 8250 289
Width: 634
VWidth: 0
Flags: W
PickledData: "(dp1
S'org.robofab.postScriptHintData'
p2
(dp3
sS'com.typemytype.robofont.layerData'
p4
(dp5
S'b'
(dp6
S'name'
p7
S'guilsinglleft'
p8
sS'lib'
p9
(dp10
sS'unicodes'
p11
(tsS'width'
p12
F688.39999999999998
sS'contours'
p13
(tsS'components'
p14
(tsS'anchors'
p15
(tsss."
LayerCount: 2
Fore
SplineSet
70 181 m 257
 184 181 l 257
 496 548 l 257
 278 909 l 257
 168 909 l 257
 376 547 l 257
 70 181 l 257
EndSplineSet
EndChar

StartChar: h
Encoding: 104 104 290
Width: 1255
VWidth: 0
Flags: W
PickledData: "(dp1
S'org.robofab.postScriptHintData'
p2
(dp3
sS'com.typemytype.robofont.layerData'
p4
(dp5
S'b'
(dp6
S'name'
p7
S'h'
sS'lib'
p8
(dp9
sS'unicodes'
p10
(tsS'width'
p11
F1237.95
sS'contours'
p12
((dp13
S'points'
p14
((dp15
S'segmentType'
p16
S'line'
p17
sS'x'
F178
sS'smooth'
p18
I00
sS'y'
F0
s(dp19
g16
S'line'
p20
sS'x'
F178
sg18
I01
sS'y'
F779
s(dp21
S'y'
F902
sS'x'
F178
sg18
I00
s(dp22
S'y'
F1026
sS'x'
F172
sg18
I00
s(dp23
g16
S'curve'
p24
sS'x'
F172
sg18
I00
sS'y'
F1026
s(dp25
g16
S'line'
p26
sS'x'
F339
sg18
I00
sS'y'
F1026
s(dp27
g16
S'line'
p28
sS'x'
F343
sg18
I00
sS'y'
F864
s(dp29
S'y'
F976
sS'x'
F423
sg18
I00
s(dp30
S'y'
F1051
sS'x'
F548
sg18
I00
s(dp31
g16
S'curve'
p32
sS'x'
F700
sg18
I01
sS'y'
F1051
s(dp33
S'y'
F1051
sS'x'
F999
sg18
I00
s(dp34
S'y'
F844
sS'x'
F1082
sg18
I00
s(dp35
g16
S'curve'
p36
sS'x'
F1082
sg18
I01
sS'y'
F550
s(dp37
g16
S'line'
p38
sS'x'
F1082
sg18
I00
sS'y'
F0
s(dp39
g16
S'line'
p40
sS'x'
F917
sg18
I00
sS'y'
F0
s(dp41
g16
S'line'
p42
sS'x'
F917
sg18
I01
sS'y'
F531
s(dp43
S'y'
F764
sS'x'
F917
sg18
I00
s(dp44
S'y'
F917
sS'x'
F886
sg18
I00
s(dp45
g16
S'curve'
p46
sS'x'
F670
sg18
I01
sS'y'
F917
s(dp47
S'y'
F917
sS'x'
F471
sg18
I00
s(dp48
S'y'
F742
sS'x'
F344
sg18
I00
s(dp49
g16
S'curve'
p50
sS'x'
F343
sg18
I00
sS'y'
F652
s(dp51
g16
S'line'
p52
sS'x'
F343
sg18
I00
sS'y'
F0
stp53
stp54
sS'components'
p55
(tsS'anchors'
p56
(tsss."
AnchorPoint: "mid" 310 1261 basechar 0
AnchorPoint: "top" 737 1026 basechar 0
LayerCount: 2
Fore
SplineSet
103 0 m 257
 201 0 l 257
 278 628 l 258
 300 803 510 970 726 970 c 256
 926 970 980 860 955 659 c 258
 874 0 l 257
 972 0 l 257
 1056 682 l 258
 1093 985 893 1052 736 1052 c 256
 538 1052 390 955 302 827 c 257
 387 1516 l 257
 289 1516 l 257
 103 0 l 257
EndSplineSet
EndChar

StartChar: hungarumlaut
Encoding: 733 733 293
Width: 969
VWidth: 0
Flags: W
PickledData: "(dp1
S'org.robofab.postScriptHintData'
p2
(dp3
s."
AnchorPoint: "top" 330 1026 mark 0
LayerCount: 2
Fore
SplineSet
137 1174 m 257
 209 1174 l 257
 465 1456 l 257
 366 1456 l 257
 137 1174 l 257
400 1174 m 257
 470 1174 l 257
 738 1456 l 257
 624 1456 l 257
 400 1174 l 257
EndSplineSet
EndChar

StartChar: hyphen
Encoding: 45 45 294
Width: 597
VWidth: 0
Flags: W
PickledData: "(dp1
S'org.robofab.postScriptHintData'
p2
(dp3
sS'com.typemytype.robofont.layerData'
p4
(dp5
S'b'
(dp6
S'name'
p7
S'hyphen'
p8
sS'lib'
p9
(dp10
sS'unicodes'
p11
(tsS'width'
p12
F683.5
sS'contours'
p13
(tsS'components'
p14
(tsS'anchors'
p15
(tsss."
AnchorPoint: "mid" 303 565 mark 0
LayerCount: 2
Fore
SplineSet
63 527 m 257
 522 527 l 257
 530 600 l 257
 71 600 l 257
 63 527 l 257
EndSplineSet
EndChar

StartChar: i
Encoding: 105 105 295
Width: 491
VWidth: 0
Flags: W
PickledData: "(dp1
S'org.robofab.postScriptHintData'
p2
(dp3
sS'com.typemytype.robofont.layerData'
p4
(dp5
S'b'
(dp6
S'name'
p7
S'i'
sS'lib'
p8
(dp9
sS'unicodes'
p10
(tsS'width'
p11
F521.10000000000002
sS'contours'
p12
(tsS'components'
p13
(tsS'anchors'
p14
(tsss."
LayerCount: 2
Fore
SplineSet
102 0 m 257
 200 0 l 257
 326 1026 l 257
 228 1026 l 257
 102 0 l 257
267 1346 m 257
 365 1346 l 257
 378 1456 l 257
 280 1456 l 257
 267 1346 l 257
EndSplineSet
EndChar

StartChar: increment
Encoding: 8710 8710 307
Width: 1319
VWidth: 0
Flags: W
PickledData: "(dp1
S'org.robofab.postScriptHintData'
p2
(dp3
sS'com.typemytype.robofont.layerData'
p4
(dp5
S'b'
(dp6
S'name'
p7
S'uni2206'
p8
sS'lib'
p9
(dp10
sS'unicodes'
p11
(tsS'width'
p12
F1312.25
sS'contours'
p13
(tsS'components'
p14
(tsS'anchors'
p15
(tsss."
LayerCount: 2
Fore
SplineSet
-48 0 m 257
 1168 0 l 257
 1174 48 l 257
 754 1451 l 257
 723 1451 l 257
 -42 48 l 257
 -48 0 l 257
58 77 m 257
 716 1295 l 257
 1075 77 l 257
 58 77 l 257
EndSplineSet
EndChar

StartChar: infinity
Encoding: 8734 8734 308
Width: 1711
VWidth: 0
Flags: W
PickledData: "(dp1
S'org.robofab.postScriptHintData'
p2
(dp3
s."
LayerCount: 2
Fore
SplineSet
413 239 m 256
 571 239 708 348 838 490 c 257
 949 327 1057 239 1203 239 c 256
 1393 239 1576 381 1602 587 c 256
 1626 783 1505 923 1289 923 c 256
 1124 923 991 815 862 673 c 257
 766 819 653 923 492 923 c 256
 306 923 121 782 99 602 c 256
 75 407 200 239 413 239 c 256
417 334 m 256
 271 334 181 456 196 585 c 256
 213 719 322 836 468 836 c 256
 611 836 706 724 784 581 c 257
 671 444 550 334 417 334 c 256
1220 334 m 256
 1093 334 1010 420 908 585 c 257
 1009 713 1139 836 1276 836 c 256
 1411 836 1503 733 1488 611 c 256
 1468 454 1373 334 1220 334 c 256
EndSplineSet
EndChar

StartChar: integral
Encoding: 8747 8747 309
Width: 655
VWidth: 0
Flags: W
PickledData: "(dp1
S'org.robofab.postScriptHintData'
p2
(dp3
sS'com.typemytype.robofont.layerData'
p4
(dp5
S'b'
(dp6
S'name'
p7
S'integral'
p8
sS'lib'
p9
(dp10
sS'unicodes'
p11
(tsS'width'
p12
F754
sS'contours'
p13
(tsS'components'
p14
(tsS'anchors'
p15
(tsss."
LayerCount: 2
Fore
SplineSet
-9 -282 m 256
 214 -282 289 -124 315 89 c 258
 458 1256 l 258
 479 1421 508 1510 680 1510 c 256
 735 1510 751 1500 751 1500 c 257
 761 1582 l 257
 761 1582 752 1600 672 1600 c 256
 447 1600 382 1443 356 1230 c 258
 213 62 l 258
 192 -103 149 -191 -25 -191 c 256
 -70 -191 -105 -177 -105 -177 c 257
 -115 -265 l 257
 -115 -265 -77 -282 -9 -282 c 256
EndSplineSet
EndChar

StartChar: j
Encoding: 106 106 312
Width: 503
VWidth: 0
Flags: W
PickledData: "(dp1
S'org.robofab.postScriptHintData'
p2
(dp3
sS'com.typemytype.robofont.layerData'
p4
(dp5
S'b'
(dp6
S'name'
p7
S'j'
sS'lib'
p8
(dp9
sS'unicodes'
p10
(tsS'width'
p11
F536.89999999999998
sS'contours'
p12
((dp13
S'points'
p14
((dp15
S'segmentType'
p16
S'curve'
p17
sS'x'
F65
sS'smooth'
p18
I01
sS'y'
F-410
s(dp19
S'y'
F-410
sS'x'
F-24
sg18
I00
s(dp20
S'y'
F-390
sS'x'
F-117
sg18
I00
s(dp21
g16
S'curve'
p22
sS'x'
F-117
sg18
I00
sS'y'
F-390
s(dp23
g16
S'line'
p24
sS'x'
F-102
sg18
I00
sS'y'
F-267
s(dp25
S'y'
F-267
sS'x'
F-102
sg18
I00
s(dp26
S'y'
F-280
sS'x'
F-44
sg18
I00
s(dp27
g16
S'curve'
p28
sS'x'
F19
sg18
I01
sS'y'
F-280
s(dp29
S'y'
F-280
sS'x'
F153
sg18
I00
s(dp30
S'y'
F-208
sS'x'
F177
sg18
I00
s(dp31
g16
S'curve'
p32
sS'x'
F177
sg18
I01
sS'y'
F-2
s(dp33
g16
S'line'
p34
sS'x'
F177
sg18
I00
sS'y'
F1026
s(dp35
g16
S'line'
p36
sS'x'
F341
sg18
I00
sS'y'
F1026
s(dp37
g16
S'line'
p38
sS'x'
F341
sg18
I01
sS'y'
F-6
s(dp39
S'y'
F-274
sS'x'
F341
sg18
I00
s(dp40
S'y'
F-410
sS'x'
F246
sg18
I00
stp41
s(dp42
g14
((dp43
g16
S'line'
p44
sS'x'
F177
sg18
I00
sS'y'
F1307
s(dp45
g16
S'line'
p46
sS'x'
F177
sg18
I00
sS'y'
F1462
s(dp47
g16
S'line'
p48
sS'x'
F341
sg18
I00
sS'y'
F1462
s(dp49
g16
S'line'
p50
sS'x'
F341
sg18
I00
sS'y'
F1307
stp51
stp52
sS'components'
p53
(tsS'anchors'
p54
(tsss."
LayerCount: 2
Fore
SplineSet
315 1346 m 257
 413 1346 l 257
 427 1456 l 257
 329 1456 l 257
 315 1346 l 257
EndSplineSet
Refer: 235 567 N 1 0 0 1 0 0 2
EndChar

StartChar: k
Encoding: 107 107 315
Width: 1045
VWidth: 0
Flags: W
PickledData: "(dp1
S'org.robofab.postScriptHintData'
p2
(dp3
sS'com.typemytype.robofont.layerData'
p4
(dp5
S'b'
(dp6
S'name'
p7
S'k'
sS'lib'
p8
(dp9
sS'unicodes'
p10
(tsS'width'
p11
F1078.6500000000001
sS'contours'
p12
(tsS'components'
p13
(tsS'anchors'
p14
(tsss."
AnchorPoint: "bot" 483 0 basechar 0
AnchorPoint: "top" 693 1026 basechar 0
LayerCount: 2
Fore
SplineSet
103 0 m 257
 201 0 l 257
 267 535 l 257
 792 0 l 257
 920 0 l 257
 387 543 l 257
 1004 1026 l 257
 875 1026 l 257
 268 549 l 257
 387 1516 l 257
 289 1516 l 257
 103 0 l 257
EndSplineSet
EndChar

StartChar: kgreenlandic
Encoding: 312 312 318
Width: 1082
VWidth: 0
Flags: W
PickledData: "(dp1
S'org.robofab.postScriptHintData'
p2
(dp3
s."
LayerCount: 2
Fore
SplineSet
140 0 m 257
 243 0 l 257
 306 513 l 257
 838 0 l 257
 974 0 l 257
 432 514 l 257
 1059 1026 l 257
 919 1026 l 257
 308 525 l 257
 369 1026 l 257
 266 1026 l 257
 140 0 l 257
EndSplineSet
EndChar

StartChar: l
Encoding: 108 108 319
Width: 509
VWidth: 0
Flags: W
PickledData: "(dp1
S'org.robofab.postScriptHintData'
p2
(dp3
sS'com.typemytype.robofont.layerData'
p4
(dp5
S'b'
(dp6
S'name'
p7
S'l'
sS'lib'
p8
(dp9
sS'unicodes'
p10
(tsS'width'
p11
F521.79999999999995
sS'contours'
p12
(tsS'components'
p13
(tsS'anchors'
p14
(tsss."
AnchorPoint: "mid" 239 798 basechar 0
AnchorPoint: "caron.alt" 213 1026 basechar 0
AnchorPoint: "top" 336 1456 basechar 0
LayerCount: 2
Fore
SplineSet
112 0 m 257
 210 0 l 257
 396 1516 l 257
 298 1516 l 257
 112 0 l 257
EndSplineSet
EndChar

StartChar: less
Encoding: 60 60 324
Width: 1044
VWidth: 0
Flags: W
PickledData: "(dp1
S'org.robofab.postScriptHintData'
p2
(dp3
sS'com.typemytype.robofont.layerData'
p4
(dp5
S'b'
(dp6
S'name'
p7
S'less'
p8
sS'lib'
p9
(dp10
sS'unicodes'
p11
(tsS'width'
p12
F1267.3499999999999
sS'contours'
p13
(tsS'components'
p14
(tsS'anchors'
p15
(tsss."
LayerCount: 2
Fore
SplineSet
768 108 m 257
 781 209 l 257
 153 591 l 257
 873 916 l 257
 886 1018 l 257
 55 636 l 257
 46 565 l 257
 768 108 l 257
EndSplineSet
EndChar

StartChar: lessequal
Encoding: 8804 8804 325
Width: 1349
VWidth: 0
Flags: W
PickledData: "(dp1
S'org.robofab.postScriptHintData'
p2
(dp3
sS'com.typemytype.robofont.layerData'
p4
(dp5
S'b'
(dp6
S'name'
p7
S'lessequal'
p8
sS'lib'
p9
(dp10
sS'unicodes'
p11
(tsS'width'
p12
F1350.3499999999999
sS'contours'
p13
(tsS'components'
p14
(tsS'anchors'
p15
(tsss."
LayerCount: 2
Fore
SplineSet
1035 153 m 257
 1047 254 l 257
 420 636 l 257
 1140 961 l 257
 1152 1063 l 257
 321 681 l 257
 313 610 l 257
 1035 153 l 257
192 0 m 257
 1041 0 l 257
 1050 77 l 257
 201 77 l 257
 192 0 l 257
EndSplineSet
EndChar

StartChar: logicalnot
Encoding: 172 172 327
Width: 1473
VWidth: 0
Flags: W
PickledData: "(dp1
S'org.robofab.postScriptHintData'
p2
(dp3
sS'com.typemytype.robofont.layerData'
p4
(dp5
S'b'
(dp6
S'name'
p7
S'logicalnot'
p8
sS'lib'
p9
(dp10
sS'unicodes'
p11
(tsS'width'
p12
F1463.2
sS'contours'
p13
(tsS'components'
p14
(tsS'anchors'
p15
(tsss."
LayerCount: 2
Fore
SplineSet
1157 250 m 257
 1244 250 l 257
 1310 786 l 257
 276 786 l 257
 265 694 l 257
 1212 694 l 257
 1157 250 l 257
EndSplineSet
EndChar

StartChar: lozenge
Encoding: 9674 9674 329
Width: 1248
VWidth: 0
Flags: W
PickledData: "(dp1
S'org.robofab.postScriptHintData'
p2
(dp3
s."
LayerCount: 2
Fore
SplineSet
506 -49 m 257
 570 -49 l 257
 1136 721 l 257
 770 1493 l 257
 706 1493 l 257
 143 720 l 257
 506 -49 l 257
544 8 m 257
 220 724 l 257
 734 1444 l 257
 1057 720 l 257
 544 8 l 257
EndSplineSet
EndChar

StartChar: lslash
Encoding: 322 322 330
Width: 503
VWidth: 0
Flags: W
PickledData: "(dp1
S'org.robofab.postScriptHintData'
p2
(dp3
s."
LayerCount: 2
Fore
SplineSet
113 0 m 257
 214 0 l 257
 301 706 l 257
 537 810 l 257
 547 885 l 257
 311 781 l 257
 401 1516 l 257
 300 1516 l 257
 205 742 l 257
 -19 642 l 257
 -29 563 l 257
 194 663 l 257
 113 0 l 257
EndSplineSet
EndChar

StartChar: m
Encoding: 109 109 331
Width: 1946
VWidth: 0
Flags: W
PickledData: "(dp1
S'org.robofab.postScriptHintData'
p2
(dp3
sS'com.typemytype.robofont.guides'
p4
(tsS'com.typemytype.robofont.layerData'
p5
(dp6
S'b'
(dp7
S'name'
p8
S'm'
sS'lib'
p9
(dp10
sS'unicodes'
p11
(tsS'width'
p12
F1873.95
sS'contours'
p13
(tsS'components'
p14
(tsS'anchors'
p15
(tsss."
AnchorPoint: "top" 1060 1026 basechar 0
LayerCount: 2
Fore
SplineSet
139 0 m 257
 237 0 l 257
 321 678 l 257
 396 869 540 970 736 970 c 256
 900 970 971 850 943 622 c 258
 866 0 l 257
 964 0 l 257
 1041 622 l 257
 1109 849 1252 970 1463 970 c 256
 1627 970 1698 850 1670 622 c 258
 1593 0 l 257
 1691 0 l 257
 1768 622 l 258
 1802 903 1701 1052 1473 1052 c 256
 1305 1052 1138 970 1043 789 c 257
 1025 962 924 1052 746 1052 c 256
 565 1052 422 972 333 820 c 257
 348 1026 l 257
 259 1026 l 257
 259 1026 252 918 247 880 c 258
 139 0 l 257
EndSplineSet
EndChar

StartChar: macron
Encoding: 175 175 332
Width: 674
VWidth: 0
Flags: W
PickledData: "(dp1
S'org.robofab.postScriptHintData'
p2
(dp3
sS'com.typemytype.robofont.layerData'
p4
(dp5
S'b'
(dp6
S'name'
p7
S'macron'
p8
sS'lib'
p9
(dp10
sS'unicodes'
p11
(tsS'width'
p12
F723
sS'contours'
p13
(tsS'components'
p14
(tsS'anchors'
p15
(tsss."
AnchorPoint: "top" 315 1026 mark 0
AnchorPoint: "mid" 331 1277 mark 0
LayerCount: 2
Fore
SplineSet
67 1235 m 257
 597 1235 l 257
 607 1310 l 257
 77 1310 l 257
 67 1235 l 257
EndSplineSet
EndChar

StartChar: minus
Encoding: 8722 8722 335
Width: 1008
VWidth: 0
Flags: W
PickledData: "(dp1
S'org.robofab.postScriptHintData'
p2
(dp3
s."
LayerCount: 2
Fore
SplineSet
132 645 m 257
 864 645 l 257
 876 737 l 257
 144 737 l 257
 132 645 l 257
EndSplineSet
EndChar

StartChar: mu
Encoding: 956 956 336
Width: 1285
VWidth: 0
Flags: W
PickledData: "(dp1
S'org.robofab.postScriptHintData'
p2
(dp3
s."
AnchorPoint: "top" 735 1026 basechar 0
AnchorPoint: "ogonek" 976 0 basechar 0
LayerCount: 2
Fore
SplineSet
213 -332 m 257
 264 84 l 257
 319 11 411 -26 538 -26 c 256
 715 -26 855 55 958 191 c 257
 943 0 l 257
 1032 0 l 257
 1036 53 1041 113 1055 225 c 258
 1153 1026 l 257
 1055 1026 l 257
 973 355 l 258
 961 260 803 56 548 56 c 256
 356 56 275 178 303 408 c 258
 379 1026 l 257
 281 1026 l 257
 115 -328 l 257
 213 -332 l 257
EndSplineSet
EndChar

StartChar: multiply
Encoding: 215 215 337
Width: 1177
VWidth: 0
Flags: W
PickledData: "(dp1
S'org.robofab.postScriptHintData'
p2
(dp3
s."
LayerCount: 2
Fore
SplineSet
224 180 m 257
 581 495 l 257
 857 180 l 257
 927 245 l 257
 648 559 l 257
 1005 873 l 257
 951 938 l 257
 597 621 l 257
 318 938 l 257
 251 876 l 257
 528 559 l 257
 173 242 l 257
 224 180 l 257
EndSplineSet
EndChar

StartChar: n
Encoding: 110 110 338
Width: 1257
VWidth: 0
Flags: W
PickledData: "(dp1
S'org.robofab.postScriptHintData'
p2
(dp3
sS'com.typemytype.robofont.layerData'
p4
(dp5
S'b'
(dp6
S'name'
p7
S'n'
sS'lib'
p8
(dp9
sS'unicodes'
p10
(tsS'width'
p11
F1240.05
sS'contours'
p12
(tsS'components'
p13
(tsS'anchors'
p14
(tsss."
AnchorPoint: "bot" 583 0 basechar 0
AnchorPoint: "top" 725 1026 basechar 0
LayerCount: 2
Fore
SplineSet
137 0 m 257
 235 0 l 257
 319 678 l 257
 394 869 558 970 754 970 c 256
 938 970 1009 850 981 622 c 258
 904 0 l 257
 1002 0 l 257
 1079 622 l 258
 1113 903 1012 1052 764 1052 c 256
 583 1052 420 972 331 820 c 257
 346 1026 l 257
 257 1026 l 257
 257 1026 250 918 245 880 c 258
 137 0 l 257
EndSplineSet
EndChar

StartChar: nine
Encoding: 57 57 343
Width: 1182
VWidth: 0
Flags: W
PickledData: "(dp1
S'org.robofab.postScriptHintData'
p2
(dp3
sS'com.typemytype.robofont.layerData'
p4
(dp5
S'b'
(dp6
S'name'
p7
S'nine'
p8
sS'lib'
p9
(dp10
sS'unicodes'
p11
(tsS'width'
p12
F1235.4000000000001
sS'contours'
p13
((dp14
S'points'
p15
((dp16
S'segmentType'
p17
S'curve'
p18
sS'x'
F314
sS'smooth'
p19
I01
sS'y'
F1010
s(dp20
S'y'
F827
sS'x'
F314
sg19
I00
s(dp21
S'y'
F687
sS'x'
F393
sg19
I00
s(dp22
g17
S'curve'
p23
sS'x'
F604
sg19
I01
sS'y'
F687
s(dp24
S'y'
F687
sS'x'
F784
sg19
I00
s(dp25
S'y'
F803
sS'x'
F908
sg19
I00
s(dp26
g17
S'curve'
p27
sS'x'
F908
sg19
I01
sS'y'
F991
s(dp28
S'y'
F1166
sS'x'
F908
sg19
I00
s(dp29
S'y'
F1334
sS'x'
F815
sg19
I00
s(dp30
g17
S'curve'
p31
sS'x'
F605
sg19
I01
sS'y'
F1334
s(dp32
S'y'
F1334
sS'x'
F419
sg19
I00
s(dp33
S'y'
F1196
sS'x'
F314
sg19
I00
stp34
s(dp35
g15
((dp36
g17
S'curve'
p37
sS'x'
F555
sg19
I01
sS'y'
F-24
s(dp38
S'y'
F-24
sS'x'
F434
sg19
I00
s(dp39
S'y'
F13
sS'x'
F304
sg19
I00
s(dp40
g17
S'curve'
p41
sS'x'
F175
sg19
I00
sS'y'
F79
s(dp42
g17
S'line'
p43
sS'x'
F232
sg19
I00
sS'y'
F211
s(dp44
S'y'
F152
sS'x'
F346
sg19
I00
s(dp45
S'y'
F124
sS'x'
F450
sg19
I00
s(dp46
g17
S'curve'
p47
sS'x'
F542
sg19
I01
sS'y'
F124
s(dp48
S'y'
F124
sS'x'
F773
sg19
I00
s(dp49
S'y'
F308
sS'x'
F920
sg19
I00
s(dp50
g17
S'curve'
p51
sS'x'
F920
sg19
I01
sS'y'
F657
s(dp52
g17
S'line'
p53
sS'x'
F920
sg19
I00
sS'y'
F722
s(dp54
S'y'
F600
sS'x'
F856
sg19
I00
s(dp55
S'y'
F544
sS'x'
F742
sg19
I00
s(dp56
g17
S'curve'
p57
sS'x'
F577
sg19
I01
sS'y'
F544
s(dp58
S'y'
F544
sS'x'
F298
sg19
I00
s(dp59
S'y'
F735
sS'x'
F138
sg19
I00
s(dp60
g17
S'curve'
p61
sS'x'
F138
sg19
I01
sS'y'
F1004
s(dp62
S'y'
F1275
sS'x'
F138
sg19
I00
s(dp63
S'y'
F1483
sS'x'
F311
sg19
I00
s(dp64
g17
S'curve'
p65
sS'x'
F613
sg19
I01
sS'y'
F1483
s(dp66
S'y'
F1483
sS'x'
F939
sg19
I00
s(dp67
S'y'
F1231
sS'x'
F1095
sg19
I00
s(dp68
g17
S'curve'
p69
sS'x'
F1095
sg19
I01
sS'y'
F774
s(dp70
S'y'
F203
sS'x'
F1095
sg19
I00
s(dp71
S'y'
F-24
sS'x'
F855
sg19
I00
stp72
stp73
sS'components'
p74
(tsS'anchors'
p75
(tsss."
LayerCount: 2
Fore
SplineSet
439 -23 m 256
 816 -23 1022 337 1075 772 c 256
 1127 1191 1020 1483 670 1483 c 256
 390 1483 191 1277 158 1008 c 256
 123 725 294 548 537 548 c 256
 755 548 916 674 963 751 c 257
 960 733 958 710 953 683 c 256
 922 479 817 63 449 63 c 256
 334 63 242 111 196 153 c 257
 144 77 l 257
 197 33 299 -23 439 -23 c 256
547 634 m 256
 317 634 243 802 268 1008 c 256
 295 1228 436 1397 660 1397 c 256
 946 1397 998 1146 969 908 c 256
 957 812 800 634 547 634 c 256
EndSplineSet
EndChar

StartChar: notequal
Encoding: 8800 8800 345
Width: 1326
VWidth: 0
Flags: W
PickledData: "(dp1
S'org.robofab.postScriptHintData'
p2
(dp3
sS'com.typemytype.robofont.layerData'
p4
(dp5
S'b'
(dp6
S'name'
p7
S'notequal'
p8
sS'lib'
p9
(dp10
sS'unicodes'
p11
(tsS'width'
p12
F1362.5
sS'contours'
p13
(tsS'components'
p14
(tsS'anchors'
p15
(tsss."
LayerCount: 2
Fore
SplineSet
361 53 m 257
 544 342 l 257
 1126 342 l 257
 1135 415 l 257
 586 415 l 257
 813 767 l 257
 1178 767 l 257
 1187 840 l 257
 857 840 l 257
 1027 1114 l 257
 961 1124 l 257
 782 840 l 257
 201 840 l 257
 192 767 l 257
 742 767 l 257
 514 415 l 257
 149 415 l 257
 140 342 l 257
 471 342 l 257
 295 62 l 257
 361 53 l 257
EndSplineSet
EndChar

StartChar: numbersign
Encoding: 35 35 347
Width: 1397
VWidth: 0
Flags: W
PickledData: "(dp1
S'org.robofab.postScriptHintData'
p2
(dp3
s."
LayerCount: 2
Fore
SplineSet
234 109 m 257
 307 109 l 257
 448 545 l 257
 811 545 l 257
 678 109 l 257
 751 109 l 257
 889 545 l 257
 1141 545 l 257
 1160 603 l 257
 904 603 l 257
 1009 938 l 257
 1266 938 l 257
 1285 997 l 257
 1025 997 l 257
 1149 1390 l 257
 1076 1390 l 257
 952 997 l 257
 591 997 l 257
 711 1390 l 257
 631 1390 l 257
 507 997 l 257
 250 997 l 257
 235 938 l 257
 491 938 l 257
 388 603 l 257
 118 603 l 257
 106 545 l 257
 369 545 l 257
 234 109 l 257
464 603 m 257
 571 938 l 257
 934 938 l 257
 829 603 l 257
 464 603 l 257
EndSplineSet
EndChar

StartChar: o
Encoding: 111 111 348
Width: 1230
VWidth: 0
Flags: W
PickledData: "(dp1
S'org.robofab.postScriptHintData'
p2
(dp3
sS'com.typemytype.robofont.layerData'
p4
(dp5
S'b'
(dp6
S'name'
p7
S'o'
sS'lib'
p8
(dp9
sS'unicodes'
p10
(tsS'width'
p11
F1259.2
sS'contours'
p12
(tsS'components'
p13
(tsS'anchors'
p14
(tsss."
AnchorPoint: "top" 680 1026 basechar 0
AnchorPoint: "ogonek" 566 0 basechar 0
LayerCount: 2
Fore
SplineSet
559 61 m 256
 294 61 162 237 195 510 c 256
 230 790 406 970 671 970 c 256
 936 970 1068 790 1033 510 c 256
 1000 237 824 61 559 61 c 256
549 -21 m 256
 865 -21 1094 187 1133 510 c 256
 1174 840 997 1052 681 1052 c 256
 365 1052 136 840 95 510 c 256
 56 187 233 -21 549 -21 c 256
EndSplineSet
EndChar

StartChar: oe
Encoding: 339 339 355
Width: 1946
VWidth: 0
Flags: W
PickledData: "(dp1
S'org.robofab.postScriptHintData'
p2
(dp3
sS'com.typemytype.robofont.layerData'
p4
(dp5
S'b'
(dp6
S'name'
p7
S'oe'
p8
sS'lib'
p9
(dp10
sS'unicodes'
p11
(tsS'width'
p12
F1979.8
sS'contours'
p13
(tsS'components'
p14
((dp15
S'transformation'
p16
(I1
I0
I0
I1
I-6
I0
tp17
sS'baseGlyph'
p18
S'o'
s(dp19
g16
(I1
I0
I0
I1
I811
I0
tp20
sg18
S'e'
stp21
sS'anchors'
p22
(tsss."
LayerCount: 2
Fore
SplineSet
532 -21 m 256
 729 -21 903 87 985 254 c 257
 1030 87 1188 -21 1381 -21 c 256
 1506 -21 1660 29 1773 108 c 257
 1745 177 l 257
 1640 107 1504 62 1400 62 c 256
 1164 62 1033 225 1064 478 c 258
 1068 507 l 257
 1869 507 l 257
 1875 557 l 258
 1912 858 1768 1052 1506 1052 c 256
 1300 1052 1116 944 1048 764 c 257
 1008 944 865 1052 669 1052 c 256
 354 1052 125 839 84 507 c 256
 45 186 220 -21 532 -21 c 256
542 61 m 256
 297 61 160 234 193 503 c 256
 228 787 411 970 659 970 c 256
 887 970 1012 790 977 511 c 256
 944 237 773 61 542 61 c 256
1077 578 m 257
 1102 817 1277 970 1496 970 c 256
 1690 970 1806 841 1801 640 c 256
 1800 625 1798 601 1796 578 c 257
 1077 578 l 257
EndSplineSet
EndChar

StartChar: ogonek
Encoding: 731 731 356
Width: 508
VWidth: 0
Flags: W
PickledData: "(dp1
S'org.robofab.postScriptHintData'
p2
(dp3
s."
AnchorPoint: "ogonek" 327 0 mark 0
LayerCount: 2
Fore
SplineSet
302 -448 m 256
 327 -448 351 -446 382 -437 c 257
 393 -342 l 257
 364 -351 338 -355 315 -355 c 256
 231 -355 188 -301 197 -227 c 256
 204 -170 250 -77 370 4 c 257
 288 5 l 257
 163 -69 105 -157 95 -235 c 256
 81 -352 173 -448 302 -448 c 256
EndSplineSet
EndChar

StartChar: one
Encoding: 49 49 361
Width: 1177
VWidth: 0
Flags: W
PickledData: "(dp1
S'org.robofab.postScriptHintData'
p2
(dp3
sS'com.typemytype.robofont.layerData'
p4
(dp5
S'b'
(dp6
S'name'
p7
S'one'
p8
sS'lib'
p9
(dp10
sS'unicodes'
p11
(tsS'width'
p12
F1234.0999999999999
sS'contours'
p13
(tsS'components'
p14
(tsS'anchors'
p15
(tsss."
LayerCount: 2
Fore
SplineSet
179 0 m 257
 850 0 l 257
 860 87 l 257
 590 87 l 257
 758 1456 l 257
 709 1456 l 257
 613 1397 426 1309 323 1272 c 257
 311 1176 l 257
 409 1218 522 1256 634 1320 c 257
 482 87 l 257
 189 87 l 257
 179 0 l 257
EndSplineSet
EndChar

StartChar: onehalf
Encoding: 189 189 362
Width: 1563
VWidth: 0
Flags: W
PickledData: "(dp1
S'org.robofab.postScriptHintData'
p2
(dp3
s."
LayerCount: 2
Fore
SplineSet
828 0 m 257
 1341 0 l 257
 1349 69 l 257
 933 69 l 257
 1210 321 l 258
 1362 459 1399 515 1412 620 c 256
 1425 728 1358 825 1196 825 c 256
 1048 825 942 740 922 595 c 257
 996 591 l 257
 1017 721 1100 761 1188 761 c 256
 1316 761 1345 686 1336 617 c 256
 1328 547 1300 498 1167 375 c 258
 836 70 l 257
 828 0 l 257
178 0 m 257
 261 0 l 257
 1354 1456 l 257
 1286 1456 l 257
 178 0 l 257
114 649 m 257
 482 649 l 257
 490 710 l 257
 350 710 l 257
 441 1456 l 257
 373 1456 l 257
 210 1370 l 257
 199 1296 l 257
 357 1372 l 257
 276 710 l 257
 122 710 l 257
 114 649 l 257
EndSplineSet
EndChar

StartChar: onequarter
Encoding: 188 188 363
Width: 1654
VWidth: 0
Flags: W
PickledData: "(dp1
S'org.robofab.postScriptHintData'
p2
(dp3
s."
LayerCount: 2
Fore
SplineSet
120 649 m 257
 488 649 l 257
 496 710 l 257
 356 710 l 257
 447 1456 l 257
 379 1456 l 257
 216 1370 l 257
 205 1296 l 257
 363 1372 l 257
 282 710 l 257
 128 710 l 257
 120 649 l 257
1193 0 m 257
 1267 0 l 257
 1289 184 l 257
 1375 184 l 257
 1385 256 l 257
 1302 256 l 257
 1367 786 l 257
 1268 786 l 257
 829 253 l 257
 820 184 l 257
 1215 184 l 257
 1193 0 l 257
232 0 m 257
 315 0 l 257
 1408 1456 l 257
 1340 1456 l 257
 232 0 l 257
915 256 m 257
 1276 697 l 257
 1222 256 l 257
 915 256 l 257
EndSplineSet
EndChar

StartChar: onesuperior
Encoding: 185 185 364
Width: 896
VWidth: 0
Flags: W
PickledData: "(dp1
S'org.robofab.postScriptHintData'
p2
(dp3
s."
LayerCount: 2
Fore
SplineSet
188 649 m 257
 556 649 l 257
 564 710 l 257
 424 710 l 257
 516 1456 l 257
 448 1456 l 257
 284 1370 l 257
 273 1296 l 257
 431 1372 l 257
 350 710 l 257
 196 710 l 257
 188 649 l 257
EndSplineSet
EndChar

StartChar: ordfeminine
Encoding: 170 170 366
Width: 691
VWidth: 0
Flags: W
PickledData: "(dp1
S'org.robofab.postScriptHintData'
p2
(dp3
sS'com.typemytype.robofont.layerData'
p4
(dp5
S'b'
(dp6
S'name'
p7
S'ordfeminine'
p8
sS'lib'
p9
(dp10
sS'unicodes'
p11
(tsS'width'
p12
F797.10000000000002
sS'contours'
p13
(tsS'components'
p14
(tsS'anchors'
p15
(tsss."
LayerCount: 2
Fore
SplineSet
271 802 m 256
 347 802 442 824 504 900 c 257
 488 809 l 257
 580 809 l 257
 587 937 593 973 589 919 c 257
 584 877 632 1241 639 1284 c 257
 648 1416 549 1478 416 1478 c 256
 274 1478 149 1413 149 1413 c 257
 160 1351 l 257
 160 1351 275 1405 413 1405 c 256
 553 1405 565 1347 549 1216 c 258
 547 1200 l 257
 378 1200 l 258
 176 1200 68 1121 53 1003 c 256
 39 890 115 802 271 802 c 256
297 880 m 256
 189 880 141 923 152 1012 c 256
 169 1147 313 1137 542 1137 c 257
 538 1105 l 258
 526 1007 476 880 297 880 c 256
EndSplineSet
EndChar

StartChar: ordmasculine
Encoding: 186 186 367
Width: 850
VWidth: 0
Flags: W
PickledData: "(dp1
S'org.robofab.postScriptHintData'
p2
(dp3
sS'com.typemytype.robofont.layerData'
p4
(dp5
S'b'
(dp6
S'name'
p7
S'ordmasculine'
p8
sS'lib'
p9
(dp10
sS'unicodes'
p11
(tsS'width'
p12
F887.85000000000002
sS'contours'
p13
(tsS'components'
p14
(tsS'anchors'
p15
(tsss."
LayerCount: 2
Fore
SplineSet
398 892 m 256
 239 892 169 989 189 1152 c 256
 208 1310 306 1408 455 1408 c 256
 610 1408 687 1309 667 1147 c 256
 648 991 547 892 398 892 c 256
383 806 m 256
 604 806 745 962 768 1153 c 256
 792 1350 696 1500 470 1500 c 256
 247 1500 105 1348 81 1155 c 256
 57 960 156 806 383 806 c 256
EndSplineSet
EndChar

StartChar: oslash
Encoding: 248 248 368
Width: 1230
VWidth: 0
Flags: W
PickledData: "(dp1
S'org.robofab.postScriptHintData'
p2
(dp3
sS'com.typemytype.robofont.layerData'
p4
(dp5
S'b'
(dp6
S'name'
p7
S'oslash'
p8
sS'lib'
p9
(dp10
sS'unicodes'
p11
(tsS'width'
p12
F1255
sS'contours'
p13
(tsS'components'
p14
(tsS'anchors'
p15
(tsss."
LayerCount: 2
Fore
SplineSet
235 -228 m 257
 1052 1228 l 257
 1007 1249 l 257
 195 -210 l 257
 235 -228 l 257
EndSplineSet
Refer: 348 111 N 1 0 0 1 0 0 2
EndChar

StartChar: p
Encoding: 112 112 371
Width: 1263
VWidth: 0
Flags: W
PickledData: "(dp1
S'org.robofab.postScriptHintData'
p2
(dp3
sS'com.typemytype.robofont.layerData'
p4
(dp5
S'b'
(dp6
S'name'
p7
S'p'
sS'lib'
p8
(dp9
sS'unicodes'
p10
(tsS'width'
p11
F1260.25
sS'contours'
p12
(tsS'components'
p13
(tsS'anchors'
p14
(tsss."
AnchorPoint: "top" 797 1026 basechar 0
LayerCount: 2
Fore
SplineSet
109 -490 m 257
 207 -490 l 257
 293 212 l 257
 337 58 485 -26 666 -26 c 256
 948 -26 1155 182 1195 506 c 256
 1235 835 1079 1047 797 1047 c 256
 609 1047 438 937 361 779 c 257
 387 1026 l 257
 288 1026 l 257
 288 1024 275 864 262 758 c 258
 109 -490 l 257
676 56 m 256
 431 56 293 217 327 491 c 256
 361 770 542 965 787 965 c 256
 1021 965 1131 785 1097 506 c 256
 1063 232 910 56 676 56 c 256
EndSplineSet
EndChar

StartChar: paragraph
Encoding: 182 182 372
Width: 1191
VWidth: 0
Flags: W
PickledData: "(dp1
S'org.robofab.postScriptHintData'
p2
(dp3
sS'com.typemytype.robofont.layerData'
p4
(dp5
S'b'
(dp6
S'name'
p7
S'paragraph'
p8
sS'lib'
p9
(dp10
sS'unicodes'
p11
(tsS'width'
p12
F1211.95
sS'contours'
p13
(tsS'components'
p14
(tsS'anchors'
p15
(tsss."
LayerCount: 2
Fore
SplineSet
425 -180 m 257
 498 -180 l 257
 689 1381 l 257
 932 1381 l 257
 741 -180 l 257
 814 -180 l 257
 1005 1381 l 257
 1096 1381 l 257
 1105 1457 l 257
 713 1457 l 258
 437 1457 247 1383 217 1139 c 256
 192 931 395 832 550 843 c 257
 425 -180 l 257
EndSplineSet
EndChar

StartChar: parenleft
Encoding: 40 40 373
Width: 564
VWidth: 0
Flags: W
PickledData: "(dp1
S'org.robofab.postScriptHintData'
p2
(dp3
sS'com.typemytype.robofont.layerData'
p4
(dp5
S'b'
(dp6
S'name'
p7
S'parenleft'
p8
sS'lib'
p9
(dp10
sS'unicodes'
p11
(tsS'width'
p12
F639.35000000000002
sS'contours'
p13
(tsS'components'
p14
(tsS'anchors'
p15
(tsss."
LayerCount: 2
Fore
SplineSet
316 -176 m 257
 414 -176 l 257
 283 69 225 371 262 667 c 256
 301 986 425 1253 620 1516 c 257
 526 1516 l 257
 325 1251 203 990 163 660 c 256
 123 340 195 56 316 -176 c 257
EndSplineSet
EndChar

StartChar: parenright
Encoding: 41 41 374
Width: 564
VWidth: 0
Flags: W
PickledData: "(dp1
S'org.robofab.postScriptHintData'
p2
(dp3
sS'com.typemytype.robofont.layerData'
p4
(dp5
S'b'
(dp6
S'name'
p7
S'parenright'
p8
sS'lib'
p9
(dp10
sS'unicodes'
p11
(tsS'width'
p12
F639.35000000000002
sS'contours'
p13
(tsS'components'
p14
(tsS'anchors'
p15
(tsss."
LayerCount: 2
Fore
SplineSet
-57 -196 m 257
 38 -196 l 257
 238 68 361 329 401 660 c 256
 440 979 369 1264 247 1496 c 257
 149 1496 l 257
 280 1251 338 949 301 653 c 256
 262 334 138 66 -57 -196 c 257
EndSplineSet
EndChar

StartChar: partialdiff
Encoding: 8706 8706 375
Width: 1168
VWidth: 0
Flags: W
PickledData: "(dp1
S'org.robofab.postScriptHintData'
p2
(dp3
sS'com.typemytype.robofont.layerData'
p4
(dp5
S'b'
(dp6
S'name'
p7
S'partialdiff'
p8
sS'lib'
p9
(dp10
sS'unicodes'
p11
(tsS'width'
p12
F1163.95
sS'contours'
p13
(tsS'components'
p14
(tsS'anchors'
p15
(tsss."
LayerCount: 2
Fore
SplineSet
404 -24 m 256
 787 -24 1039 429 1094 872 c 256
 1152 1343 995 1559 704 1559 c 256
 590 1559 484 1523 404 1478 c 257
 401 1384 l 257
 507 1456 604 1470 664 1470 c 256
 922 1470 1043 1247 987 868 c 256
 981 825 976 799 972 767 c 257
 934 850 853 1002 624 1002 c 256
 351 1002 105 747 65 414 c 256
 35 169 144 -24 404 -24 c 256
419 63 m 256
 241 63 144 201 170 412 c 256
 204 682 413 914 644 914 c 256
 818 914 917 798 941 662 c 257
 888 410 721 63 419 63 c 256
EndSplineSet
EndChar

StartChar: percent
Encoding: 37 37 377
Width: 2123
VWidth: 0
Flags: W
PickledData: "(dp1
S'org.robofab.postScriptHintData'
p2
(dp3
sS'com.typemytype.robofont.layerData'
p4
(dp5
S'b'
(dp6
S'name'
p7
S'percent'
p8
sS'lib'
p9
(dp10
sS'unicodes'
p11
(tsS'width'
p12
F1769.3
sS'contours'
p13
(tsS'components'
p14
(tsS'anchors'
p15
(tsss."
LayerCount: 2
Fore
SplineSet
491 614 m 256
 333 614 266 745 296 992 c 256
 328 1246 427 1380 585 1380 c 256
 734 1380 797 1246 765 992 c 256
 735 745 640 614 491 614 c 256
482 538 m 256
 691 538 821 695 857 991 c 256
 895 1295 803 1456 594 1456 c 256
 376 1456 242 1295 204 991 c 256
 168 695 264 538 482 538 c 256
666 0 m 257
 746 0 l 257
 1465 1456 l 257
 1383 1456 l 257
 666 0 l 257
1551 76 m 256
 1393 76 1326 207 1356 454 c 256
 1388 708 1487 842 1645 842 c 256
 1794 842 1857 708 1825 454 c 256
 1795 207 1700 76 1551 76 c 256
1542 0 m 256
 1751 0 1881 157 1917 453 c 256
 1955 757 1863 918 1654 918 c 256
 1436 918 1302 757 1264 453 c 256
 1228 157 1324 0 1542 0 c 256
EndSplineSet
EndChar

StartChar: period
Encoding: 46 46 378
Width: 550
VWidth: 0
Flags: W
PickledData: "(dp1
S'org.robofab.postScriptHintData'
p2
(dp3
s."
LayerCount: 2
Fore
SplineSet
194 0 m 257
 356 0 l 257
 376 167 l 257
 214 167 l 257
 194 0 l 257
EndSplineSet
EndChar

StartChar: periodcentered
Encoding: 183 183 379
Width: 509
VWidth: 0
Flags: W
PickledData: "(dp1
S'org.robofab.postScriptHintData'
p2
(dp3
sS'com.typemytype.robofont.layerData'
p4
(dp5
S'b'
(dp6
S'name'
p7
S'middot'
p8
sS'lib'
p9
(dp10
sS'unicodes'
p11
(tsS'width'
p12
I509
sS'contours'
p13
(tsS'components'
p14
(tsS'anchors'
p15
(tsss."
AnchorPoint: "mid" 3 618 mark 0
LayerCount: 2
Fore
SplineSet
235 533 m 257
 363 533 l 257
 383 693 l 257
 255 693 l 257
 235 533 l 257
EndSplineSet
EndChar

StartChar: perthousand
Encoding: 8240 8240 380
Width: 2988
VWidth: 0
Flags: W
PickledData: "(dp1
S'org.robofab.postScriptHintData'
p2
(dp3
sS'com.typemytype.robofont.layerData'
p4
(dp5
S'b'
(dp6
S'name'
p7
S'perthousand'
p8
sS'lib'
p9
(dp10
sS'unicodes'
p11
(tsS'width'
p12
F2581.1999999999998
sS'contours'
p13
(tsS'components'
p14
(tsS'anchors'
p15
(tsss."
LayerCount: 2
Fore
SplineSet
2416 76 m 256
 2258 76 2191 207 2221 454 c 256
 2253 708 2352 842 2510 842 c 256
 2659 842 2722 708 2690 454 c 256
 2660 207 2565 76 2416 76 c 256
2407 0 m 256
 2616 0 2746 157 2782 453 c 256
 2820 757 2728 918 2519 918 c 256
 2301 918 2167 757 2129 453 c 256
 2093 157 2189 0 2407 0 c 256
EndSplineSet
Refer: 377 37 N 1 0 0 1 0 0 2
EndChar

StartChar: pi
Encoding: 960 960 381
Width: 1288
VWidth: 0
Flags: W
PickledData: "(dp1
S'org.robofab.postScriptHintData'
p2
(dp3
sS'com.typemytype.robofont.layerData'
p4
(dp5
S'b'
(dp6
S'name'
p7
S'pi'
p8
sS'lib'
p9
(dp10
sS'unicodes'
p11
(tsS'width'
p12
F1288
sS'contours'
p13
(tsS'components'
p14
(tsS'anchors'
p15
(tsss."
LayerCount: 2
Fore
SplineSet
119 0 m 257
 242 0 l 257
 422 218 458 467 536 941 c 257
 916 941 l 257
 831 249 l 258
 805 36 885 -9 987 -9 c 256
 1015 -9 1046 -5 1075 -1 c 257
 1077 75 l 257
 1061 73 1046 72 1033 72 c 256
 929 72 915 140 928 249 c 258
 1013 941 l 257
 1187 941 l 257
 1198 1026 l 257
 451 1026 l 258
 371 1026 303 1010 207 963 c 257
 214 882 l 257
 316 936 382 941 437 941 c 257
 357 480 347 259 119 0 c 257
EndSplineSet
EndChar

StartChar: plus
Encoding: 43 43 382
Width: 1116
VWidth: 0
Flags: W
PickledData: "(dp1
S'org.robofab.postScriptHintData'
p2
(dp3
sS'com.typemytype.robofont.layerData'
p4
(dp5
S'b'
(dp6
S'name'
p7
S'plus'
p8
sS'lib'
p9
(dp10
sS'unicodes'
p11
(tsS'width'
p12
F1206.9000000000001
sS'contours'
p13
(tsS'components'
p14
(tsS'anchors'
p15
(tsss."
LayerCount: 2
Fore
SplineSet
454 137 m 257
 545 137 l 257
 600 581 l 257
 992 581 l 257
 1003 672 l 257
 608 672 l 257
 658 1081 l 257
 569 1081 l 257
 519 672 l 257
 129 672 l 257
 118 581 l 257
 509 581 l 257
 454 137 l 257
EndSplineSet
EndChar

StartChar: plusminus
Encoding: 177 177 383
Width: 1180
VWidth: 0
Flags: W
PickledData: "(dp1
S'org.robofab.postScriptHintData'
p2
(dp3
sS'com.typemytype.robofont.layerData'
p4
(dp5
S'b'
(dp6
S'name'
p7
S'plusminus'
p8
sS'lib'
p9
(dp10
sS'unicodes'
p11
(tsS'width'
p12
F1234.75
sS'contours'
p13
(tsS'components'
p14
(tsS'anchors'
p15
(tsss."
LayerCount: 2
Fore
SplineSet
515 209 m 257
 598 209 l 257
 646 597 l 257
 983 597 l 257
 995 691 l 257
 658 691 l 257
 705 1079 l 257
 622 1079 l 257
 575 691 l 257
 217 691 l 257
 205 597 l 257
 563 597 l 257
 515 209 l 257
108 0 m 257
 961 0 l 257
 972 92 l 257
 119 92 l 257
 108 0 l 257
EndSplineSet
EndChar

StartChar: product
Encoding: 8719 8719 384
Width: 1521
VWidth: 0
Flags: W
PickledData: "(dp1
S'org.robofab.postScriptHintData'
p2
(dp3
sS'com.typemytype.robofont.layerData'
p4
(dp5
S'b'
(dp6
S'name'
p7
S'product'
p8
sS'lib'
p9
(dp10
sS'unicodes'
p11
(tsS'width'
p12
F1568
sS'contours'
p13
(tsS'components'
p14
(tsS'anchors'
p15
(tsss."
LayerCount: 2
Fore
SplineSet
202 -43 m 257
 302 -43 l 257
 475 1370 l 257
 1208 1370 l 257
 1035 -43 l 257
 1135 -43 l 257
 1308 1370 l 257
 1492 1370 l 257
 1503 1456 l 257
 202 1456 l 257
 191 1370 l 257
 375 1370 l 257
 202 -43 l 257
EndSplineSet
EndChar

StartChar: q
Encoding: 113 113 385
Width: 1256
VWidth: 0
Flags: W
PickledData: "(dp1
S'org.robofab.postScriptHintData'
p2
(dp3
sS'com.typemytype.robofont.layerData'
p4
(dp5
S'b'
(dp6
S'name'
p7
S'q'
sS'lib'
p8
(dp9
sS'unicodes'
p10
(tsS'width'
p11
F1254.3
sS'contours'
p12
(tsS'components'
p13
(tsS'anchors'
p14
(tsss."
LayerCount: 2
Fore
SplineSet
846 -449 m 257
 949 -449 l 257
 1111 872 l 258
 1102 801 1149 1102 1134 1026 c 257
 1025 1026 l 257
 1002 843 l 257
 977 953 863 1052 661 1052 c 256
 388 1052 161 867 115 490 c 256
 71 132 277 -21 514 -21 c 256
 765 -21 904 136 930 237 c 257
 846 -449 l 257
529 66 m 256
 333 66 192 209 227 500 c 256
 264 802 446 965 660 965 c 256
 855 965 990 818 958 557 c 256
 917 224 744 66 529 66 c 256
EndSplineSet
EndChar

StartChar: question
Encoding: 63 63 386
Width: 1113
VWidth: 0
Flags: W
PickledData: "(dp1
S'org.robofab.postScriptHintData'
p2
(dp3
sS'com.typemytype.robofont.layerData'
p4
(dp5
S'b'
(dp6
S'name'
p7
S'question'
p8
sS'lib'
p9
(dp10
sS'unicodes'
p11
(tsS'width'
p12
F1055.9000000000001
sS'contours'
p13
(tsS'components'
p14
(tsS'anchors'
p15
(tsss."
LayerCount: 2
Fore
SplineSet
342 338 m 257
 422 338 l 257
 440 480 l 258
 463 673 915 843 952 1140 c 256
 979 1362 850 1473 595 1473 c 256
 593 1473 462 1483 297 1408 c 257
 284 1303 l 257
 334 1332 439 1384 566 1384 c 256
 739 1384 871 1310 849 1131 c 256
 815 860 389 716 360 486 c 258
 342 338 l 257
261 -20 m 257
 424 -20 l 257
 445 147 l 257
 282 147 l 257
 261 -20 l 257
EndSplineSet
EndChar

StartChar: quotedbl
Encoding: 34 34 388
Width: 911
VWidth: 0
Flags: W
PickledData: "(dp1
S'org.robofab.postScriptHintData'
p2
(dp3
sS'com.typemytype.robofont.layerData'
p4
(dp5
S'b'
(dp6
S'name'
p7
S'quotedbl'
p8
sS'lib'
p9
(dp10
sS'unicodes'
p11
(tsS'width'
p12
F785.64999999999998
sS'contours'
p13
(tsS'components'
p14
(tsS'anchors'
p15
(tsss."
LayerCount: 2
Fore
SplineSet
553 929 m 257
 617 929 l 257
 697 1456 l 257
 587 1456 l 257
 553 929 l 257
252 929 m 257
 316 929 l 257
 396 1456 l 257
 286 1456 l 257
 252 929 l 257
EndSplineSet
EndChar

StartChar: quotedblbase
Encoding: 8222 8222 389
Width: 1024
VWidth: 0
Flags: W
PickledData: "(dp1
S'org.robofab.postScriptHintData'
p2
(dp3
s."
LayerCount: 2
Fore
SplineSet
583 -369 m 257
 647 -369 l 257
 727 158 l 257
 617 158 l 257
 583 -369 l 257
282 -369 m 257
 346 -369 l 257
 426 158 l 257
 316 158 l 257
 282 -369 l 257
EndSplineSet
EndChar

StartChar: quotedblleft
Encoding: 8220 8220 390
Width: 1024
VWidth: 0
Flags: W
PickledData: "(dp1
S'org.robofab.postScriptHintData'
p2
(dp3
sS'com.typemytype.robofont.layerData'
p4
(dp5
S'b'
(dp6
S'name'
p7
S'quotedblleft'
p8
sS'lib'
p9
(dp10
sS'unicodes'
p11
(tsS'width'
p12
F1024
sS'contours'
p13
(tsS'components'
p14
(tsS'anchors'
p15
(tsss."
LayerCount: 2
Fore
SplineSet
178 904 m 257
 297 904 l 257
 393 1456 l 257
 326 1456 l 257
 178 904 l 257
517 904 m 257
 636 904 l 257
 732 1456 l 257
 665 1456 l 257
 517 904 l 257
EndSplineSet
EndChar

StartChar: quotedblright
Encoding: 8221 8221 391
Width: 1024
VWidth: 0
Flags: W
PickledData: "(dp1
S'org.robofab.postScriptHintData'
p2
(dp3
sS'com.typemytype.robofont.layerData'
p4
(dp5
S'b'
(dp6
S'name'
p7
S'quotedblright'
p8
sS'lib'
p9
(dp10
sS'unicodes'
p11
(tsS'width'
p12
F1024
sS'contours'
p13
(tsS'components'
p14
(tsS'anchors'
p15
(tsss."
LayerCount: 2
Fore
SplineSet
178 904 m 257
 245 904 l 257
 393 1456 l 257
 274 1456 l 257
 178 904 l 257
517 904 m 257
 584 904 l 257
 732 1456 l 257
 613 1456 l 257
 517 904 l 257
EndSplineSet
EndChar

StartChar: quoteleft
Encoding: 8216 8216 392
Width: 432
VWidth: 0
Flags: W
PickledData: "(dp1
S'org.robofab.postScriptHintData'
p2
(dp3
sS'com.typemytype.robofont.layerData'
p4
(dp5
S'b'
(dp6
S'name'
p7
S'quoteleft'
p8
sS'lib'
p9
(dp10
sS'unicodes'
p11
(tsS'width'
p12
F518.5
sS'contours'
p13
(tsS'components'
p14
(tsS'anchors'
p15
(tsss."
LayerCount: 2
Fore
SplineSet
188 904 m 257
 284 1456 l 257
 217 1456 l 257
 69 904 l 257
 188 904 l 257
EndSplineSet
EndChar

StartChar: quoteright
Encoding: 8217 8217 393
Width: 395
VWidth: 0
Flags: W
PickledData: "(dp1
S'org.robofab.postScriptHintData'
p2
(dp3
sS'com.typemytype.robofont.layerData'
p4
(dp5
S'b'
(dp6
S'name'
p7
S'quoteright'
p8
sS'lib'
p9
(dp10
g4
(dp11
S'b'
(dp12
g7
S'quoteleft'
p13
sg9
(dp14
sS'unicodes'
p15
(tsS'width'
p16
I494
sS'contours'
p17
(tsS'components'
p18
(tsS'anchors'
p19
(tssssg15
(tsg16
F537.25
sg17
((dp20
S'points'
p21
((dp22
S'segmentType'
p23
S'line'
p24
sS'x'
F416
sS'smooth'
p25
I00
sS'y'
F888
s(dp26
g23
S'line'
p27
sS'x'
F300
sg25
I00
sS'y'
F888
s(dp28
g23
S'line'
p29
sS'x'
F150
sg25
I00
sS'y'
F1456
s(dp30
g23
S'line'
p31
sS'x'
F360
sg25
I00
sS'y'
F1456
stp32
stp33
sg18
(tsg19
(tsss."
LayerCount: 2
Fore
SplineSet
109 904 m 257
 176 904 l 257
 324 1456 l 257
 205 1456 l 257
 109 904 l 257
EndSplineSet
EndChar

StartChar: quotesinglbase
Encoding: 8218 8218 394
Width: 445
VWidth: 0
Flags: W
PickledData: "(dp1
S'org.robofab.postScriptHintData'
p2
(dp3
sS'com.typemytype.robofont.layerData'
p4
(dp5
S'b'
(dp6
S'name'
p7
S'quotesinglbase'
p8
sS'lib'
p9
(dp10
sS'unicodes'
p11
(tsS'width'
p12
F595.70000000000005
sS'contours'
p13
(tsS'components'
p14
(tsS'anchors'
p15
(tsss."
LayerCount: 2
Fore
SplineSet
175 -369 m 257
 239 -369 l 257
 319 158 l 257
 209 158 l 257
 175 -369 l 257
EndSplineSet
EndChar

StartChar: quotesingle
Encoding: 39 39 395
Width: 544
VWidth: 0
Flags: W
PickledData: "(dp1
S'org.robofab.postScriptHintData'
p2
(dp3
sS'com.typemytype.robofont.layerData'
p4
(dp5
S'b'
(dp6
S'name'
p7
S'quotesingle'
p8
sS'lib'
p9
(dp10
sS'unicodes'
p11
(tsS'width'
p12
F507.85000000000002
sS'contours'
p13
(tsS'components'
p14
(tsS'anchors'
p15
(tsss."
LayerCount: 2
Fore
SplineSet
205 929 m 257
 269 929 l 257
 349 1456 l 257
 239 1456 l 257
 205 929 l 257
EndSplineSet
EndChar

StartChar: r
Encoding: 114 114 396
Width: 769
VWidth: 0
Flags: W
PickledData: "(dp1
S'org.robofab.postScriptHintData'
p2
(dp3
sS'com.typemytype.robofont.layerData'
p4
(dp5
S'b'
(dp6
S'name'
p7
S'r'
sS'lib'
p8
(dp9
sS'unicodes'
p10
(tsS'width'
p11
F818.89999999999998
sS'contours'
p12
(tsS'components'
p13
(tsS'anchors'
p14
(tsss."
AnchorPoint: "bot" 253 0 basechar 0
AnchorPoint: "top" 542 1026 basechar 0
LayerCount: 2
Fore
SplineSet
141 0 m 257
 239 0 l 257
 307 559 l 258
 343 849 487 958 663 958 c 256
 693 958 725 955 756 949 c 257
 772 1039 l 257
 739 1045 705 1048 672 1048 c 256
 539 1048 410 994 344 835 c 257
 358 1026 l 257
 258 1026 l 257
 258 1026 252 904 236 776 c 258
 141 0 l 257
EndSplineSet
EndChar

StartChar: radical
Encoding: 8730 8730 398
Width: 1314
VWidth: 0
Flags: W
PickledData: "(dp1
S'org.robofab.postScriptHintData'
p2
(dp3
s."
LayerCount: 2
Fore
SplineSet
545 -160 m 257
 627 -160 l 257
 1324 1626 l 257
 1268 1626 l 257
 593 -116 l 257
 369 812 l 257
 124 767 l 257
 118 702 l 257
 303 729 l 257
 545 -160 l 257
EndSplineSet
EndChar

StartChar: registered
Encoding: 174 174 402
Width: 1748
VWidth: 0
Flags: W
PickledData: "(dp1
S'org.robofab.postScriptHintData'
p2
(dp3
sS'com.typemytype.robofont.layerData'
p4
(dp5
S'b'
(dp6
S'name'
p7
S'registered'
p8
sS'lib'
p9
(dp10
sS'unicodes'
p11
(tsS'width'
p12
F1727.05
sS'contours'
p13
(tsS'components'
p14
(tsS'anchors'
p15
(tsss."
LayerCount: 2
Fore
SplineSet
518 261 m 257
 615 261 l 257
 669 698 l 257
 875 698 l 257
 1048 261 l 257
 1166 261 l 257
 981 703 l 257
 1187 733 1244 815 1261 955 c 256
 1281 1115 1178 1207 875 1207 c 258
 634 1207 l 257
 518 261 l 257
674 762 m 257
 718 1121 l 257
 843 1121 l 258
 1100 1121 1168 1095 1149 937 c 256
 1131 791 1038 762 826 762 c 258
 674 762 l 257
793 46 m 256
 425 46 164 354 208 719 c 256
 253 1086 590 1393 958 1393 c 256
 1324 1393 1585 1086 1540 719 c 256
 1496 354 1159 46 793 46 c 256
779 -38 m 256
 1199 -38 1586 304 1638 724 c 256
 1689 1143 1387 1487 967 1487 c 256
 548 1487 161 1143 110 724 c 256
 58 304 360 -38 779 -38 c 256
EndSplineSet
EndChar

StartChar: ring
Encoding: 730 730 403
Width: 534
VWidth: 0
Flags: W
PickledData: "(dp1
S'org.robofab.postScriptHintData'
p2
(dp3
sS'com.typemytype.robofont.layerData'
p4
(dp5
S'b'
(dp6
S'name'
p7
S'ring'
p8
sS'lib'
p9
(dp10
sS'unicodes'
p11
(tsS'width'
p12
F633.35000000000002
sS'contours'
p13
(tsS'components'
p14
(tsS'anchors'
p15
(tsss."
AnchorPoint: "top" 234 1026 mark 0
AnchorPoint: "top" 284 1456 basechar 0
LayerCount: 2
Fore
SplineSet
254 1202 m 256
 193 1202 155 1249 163 1314 c 256
 171 1379 221 1426 282 1426 c 256
 343 1426 381 1379 373 1314 c 256
 365 1249 315 1202 254 1202 c 256
247 1146 m 256
 348 1146 431 1217 443 1314 c 256
 455 1411 390 1482 289 1482 c 256
 188 1482 105 1411 93 1314 c 256
 81 1217 146 1146 247 1146 c 256
EndSplineSet
EndChar

StartChar: s
Encoding: 115 115 405
Width: 935
VWidth: 0
Flags: W
PickledData: "(dp1
S'org.robofab.postScriptHintData'
p2
(dp3
sS'com.typemytype.robofont.layerData'
p4
(dp5
S'b'
(dp6
S'name'
p7
S's'
sS'lib'
p8
(dp9
sS'unicodes'
p10
(tsS'width'
p11
F981.89999999999998
sS'contours'
p12
((dp13
S'points'
p14
((dp15
S'segmentType'
p16
S'curve'
p17
sS'x'
F498
sS'smooth'
p18
I01
sS'y'
F-23
s(dp19
S'y'
F-23
sS'x'
F282
sg18
I00
s(dp20
S'y'
F70
sS'x'
F145
sg18
I00
s(dp21
g16
S'curve'
p22
sS'x'
F116
sg18
I00
sS'y'
F94
s(dp23
g16
S'line'
p24
sS'x'
F160
sg18
I00
sS'y'
F222
s(dp25
S'y'
F189
sS'x'
F208
sg18
I00
s(dp26
S'y'
F109
sS'x'
F348
sg18
I00
s(dp27
g16
S'curve'
p28
sS'x'
F484
sg18
I01
sS'y'
F109
s(dp29
S'y'
F109
sS'x'
F589
sg18
I00
s(dp30
S'y'
F141
sS'x'
F711
sg18
I00
s(dp31
g16
S'curve'
p32
sS'x'
F711
sg18
I01
sS'y'
F272
s(dp33
S'y'
F395
sS'x'
F711
sg18
I00
s(dp34
S'y'
F426
sS'x'
F561
sg18
I00
s(dp35
g16
S'curve'
p36
sS'x'
F412
sg18
I00
sS'y'
F474
s(dp37
S'y'
F521
sS'x'
F262
sg18
I00
s(dp38
S'y'
F585
sS'x'
F112
sg18
I00
s(dp39
g16
S'curve'
p40
sS'x'
F112
sg18
I01
sS'y'
F771
s(dp41
S'y'
F970
sS'x'
F112
sg18
I00
s(dp42
S'y'
F1051
sS'x'
F318
sg18
I00
s(dp43
g16
S'curve'
p44
sS'x'
F488
sg18
I01
sS'y'
F1051
s(dp45
S'y'
F1051
sS'x'
F715
sg18
I00
s(dp46
S'y'
F991
sS'x'
F792
sg18
I00
s(dp47
g16
S'curve'
p48
sS'x'
F832
sg18
I00
sS'y'
F966
s(dp49
g16
S'line'
p50
sS'x'
F785
sg18
I00
sS'y'
F851
s(dp51
S'y'
F858
sS'x'
F772
sg18
I00
s(dp52
S'y'
F917
sS'x'
F667
sg18
I00
s(dp53
g16
S'curve'
p54
sS'x'
F504
sg18
I01
sS'y'
F917
s(dp55
S'y'
F917
sS'x'
F355
sg18
I00
s(dp56
S'y'
F882
sS'x'
F283
sg18
I00
s(dp57
g16
S'curve'
p58
sS'x'
F283
sg18
I01
sS'y'
F774
s(dp59
S'y'
F660
sS'x'
F283
sg18
I00
s(dp60
S'y'
F629
sS'x'
F433
sg18
I00
s(dp61
g16
S'curve'
p62
sS'x'
F582
sg18
I01
sS'y'
F581
s(dp63
S'y'
F533
sS'x'
F732
sg18
I00
s(dp64
S'y'
F468
sS'x'
F881
sg18
I00
s(dp65
g16
S'curve'
p66
sS'x'
F881
sg18
I01
sS'y'
F284
s(dp67
S'y'
F62
sS'x'
F881
sg18
I00
s(dp68
S'y'
F-23
sS'x'
F685
sg18
I00
stp69
stp70
sS'components'
p71
(tsS'anchors'
p72
(tsss."
AnchorPoint: "bot" 439 0 basechar 0
AnchorPoint: "top" 529 1026 basechar 0
LayerCount: 2
Fore
SplineSet
411 -21 m 256
 612 -21 783 69 809 280 c 256
 827 428 753 494 595 546 c 258
 401 609 l 258
 271 651 235 683 248 791 c 256
 263 903 355 970 548 970 c 256
 700 970 783 922 814 904 c 257
 855 977 l 257
 821 999 741 1052 558 1052 c 256
 334 1052 173 971 150 783 c 256
 131 629 210 568 354 522 c 258
 552 459 l 258
 678 419 727 375 713 262 c 256
 692 95 539 65 418 65 c 256
 250 65 147 151 117 172 c 257
 70 96 l 257
 101 72 216 -21 411 -21 c 256
EndSplineSet
EndChar

StartChar: section
Encoding: 167 167 412
Width: 1024
VWidth: 0
Flags: W
PickledData: "(dp1
S'org.robofab.postScriptHintData'
p2
(dp3
sS'com.typemytype.robofont.layerData'
p4
(dp5
S'b'
(dp6
S'name'
p7
S'section'
p8
sS'lib'
p9
(dp10
sS'unicodes'
p11
(tsS'width'
p12
F1071.6500000000001
sS'contours'
p13
(tsS'components'
p14
(tsS'anchors'
p15
(tsss."
LayerCount: 2
Fore
SplineSet
399 -91 m 256
 592 -91 752 -5 776 190 c 256
 791 310 722 381 597 447 c 257
 713 496 847 590 863 720 c 256
 880 860 775 895 584 1002 c 256
 395 1107 369 1136 381 1230 c 256
 398 1372 537 1429 676 1429 c 256
 745 1429 813 1415 868 1391 c 257
 877 1462 l 257
 823 1486 755 1500 684 1500 c 256
 510 1500 320 1420 297 1230 c 256
 281 1102 334 1049 493 960 c 257
 357 932 218 844 202 716 c 256
 185 571 269 526 416 447 c 256
 585 357 712 311 691 179 c 257
 675 41 558 -25 407 -25 c 256
 324 -25 231 -5 137 33 c 257
 127 -41 l 257
 218 -74 312 -91 399 -91 c 256
545 476 m 257
 370 557 265 604 279 719 c 256
 291 818 391 878 550 930 c 257
 728 837 789 809 778 723 c 256
 765 614 677 532 545 476 c 257
EndSplineSet
EndChar

StartChar: semicolon
Encoding: 59 59 413
Width: 550
VWidth: 0
Flags: W
PickledData: "(dp1
S'org.robofab.postScriptHintData'
p2
(dp3
s."
LayerCount: 2
Fore
SplineSet
49 -256 m 257
 120 -256 l 257
 322 164 l 257
 203 164 l 257
 49 -256 l 257
199 833 m 257
 390 833 l 257
 410 1001 l 257
 219 1001 l 257
 199 833 l 257
EndSplineSet
EndChar

StartChar: seven
Encoding: 55 55 414
Width: 1177
VWidth: 0
Flags: W
PickledData: "(dp1
S'org.robofab.postScriptHintData'
p2
(dp3
s."
LayerCount: 2
Fore
SplineSet
303 0 m 257
 424 0 l 257
 1134 1376 l 257
 1143 1456 l 257
 279 1456 l 257
 267 1356 l 257
 1015 1356 l 257
 303 0 l 257
EndSplineSet
EndChar

StartChar: six
Encoding: 54 54 415
Width: 1177
VWidth: 0
Flags: W
PickledData: "(dp1
S'org.robofab.postScriptHintData'
p2
(dp3
s."
LayerCount: 2
Fore
SplineSet
524 -23 m 256
 804 -23 1003 183 1036 452 c 256
 1071 735 900 912 657 912 c 256
 439 912 278 786 231 709 c 257
 234 727 237 750 241 777 c 256
 272 981 377 1397 745 1397 c 256
 860 1397 952 1349 998 1307 c 257
 1050 1383 l 257
 997 1427 895 1483 755 1483 c 256
 378 1483 172 1123 119 688 c 256
 67 269 174 -23 524 -23 c 256
534 63 m 256
 248 63 196 314 225 552 c 256
 237 648 394 826 647 826 c 256
 877 826 951 658 926 452 c 256
 899 232 758 63 534 63 c 256
EndSplineSet
EndChar

StartChar: slash
Encoding: 47 47 416
Width: 732
VWidth: 0
Flags: W
PickledData: "(dp1
S'org.robofab.postScriptHintData'
p2
(dp3
s."
LayerCount: 2
Fore
SplineSet
54 0 m 257
 134 0 l 257
 741 1456 l 257
 659 1456 l 257
 54 0 l 257
EndSplineSet
EndChar

StartChar: softhyphen
Encoding: 173 173 418
Width: 593
VWidth: 0
Flags: W
PickledData: "(dp1
S'org.robofab.postScriptHintData'
p2
(dp3
s."
AnchorPoint: "mid" 303 565 mark 0
LayerCount: 2
Fore
SplineSet
63 527 m 257
 522 527 l 257
 530 600 l 257
 71 600 l 257
 63 527 l 257
EndSplineSet
EndChar

StartChar: sterling
Encoding: 163 163 420
Width: 1136
VWidth: 0
Flags: W
PickledData: "(dp1
S'org.robofab.postScriptHintData'
p2
(dp3
sS'com.typemytype.robofont.layerData'
p4
(dp5
S'b'
(dp6
S'name'
p7
S'sterling'
p8
sS'lib'
p9
(dp10
sS'unicodes'
p11
(tsS'width'
p12
F1207.3
sS'contours'
p13
(tsS'components'
p14
(tsS'anchors'
p15
(tsss."
LayerCount: 2
Fore
SplineSet
55 0 m 257
 895 0 l 257
 906 96 l 257
 200 96 l 257
 241 113 381 269 415 552 c 258
 435 714 l 257
 823 714 l 257
 833 791 l 257
 441 791 l 257
 469 1026 l 258
 492 1206 574 1363 789 1376 c 256
 905 1383 999 1339 997 1327 c 257
 1041 1399 l 257
 1038 1427 959 1474 811 1474 c 256
 523 1474 391 1277 357 1001 c 258
 332 791 l 257
 132 791 l 257
 122 714 l 257
 321 714 l 257
 301 550 l 258
 289 450 229 192 67 104 c 257
 55 0 l 257
EndSplineSet
EndChar

StartChar: summation
Encoding: 8721 8721 421
Width: 1102
VWidth: 0
Flags: W
PickledData: "(dp1
S'org.robofab.postScriptHintData'
p2
(dp3
sS'com.typemytype.robofont.layerData'
p4
(dp5
S'b'
(dp6
S'name'
p7
S'summation'
p8
sS'lib'
p9
(dp10
sS'unicodes'
p11
(tsS'width'
p12
F1198.3
sS'contours'
p13
(tsS'components'
p14
(tsS'anchors'
p15
(tsss."
LayerCount: 2
Fore
SplineSet
7 -99 m 257
 966 -99 l 257
 975 -27 l 257
 125 -27 l 257
 720 706 l 257
 337 1378 l 257
 1105 1378 l 257
 1114 1452 l 257
 215 1452 l 257
 208 1392 l 257
 616 694 l 257
 13 -50 l 257
 7 -99 l 257
EndSplineSet
EndChar

StartChar: t
Encoding: 116 116 422
Width: 687
VWidth: 0
Flags: W
PickledData: "(dp1
S'org.robofab.postScriptHintData'
p2
(dp3
sS'com.typemytype.robofont.layerData'
p4
(dp5
S'b'
(dp6
S'name'
p7
S't'
sS'lib'
p8
(dp9
sS'unicodes'
p10
(tsS'width'
p11
F763.89999999999998
sS'contours'
p12
(tsS'components'
p13
(tsS'anchors'
p14
(tsss."
AnchorPoint: "bot" 353 31 basechar 0
AnchorPoint: "mid" 295 602 basechar 0
AnchorPoint: "top" 372 1311 basechar 0
AnchorPoint: "caron.alt" 371 1264 basechar 0
LayerCount: 2
Fore
SplineSet
509 -1 m 257
 519 83 l 257
 285 83 288 122 313 323 c 258
 391 961 l 257
 624 961 l 257
 632 1026 l 257
 399 1026 l 257
 439 1349 l 257
 337 1320 l 257
 301 1026 l 257
 99 1026 l 257
 91 961 l 257
 293 961 l 257
 215 326 l 258
 194 149 158 15 463 0 c 256
 477 0 493 -1 509 -1 c 257
EndSplineSet
EndChar

StartChar: thorn
Encoding: 254 254 427
Width: 1247
VWidth: 0
Flags: W
PickledData: "(dp1
S'org.robofab.postScriptHintData'
p2
(dp3
s."
LayerCount: 2
Fore
SplineSet
54 -449 m 257
 169 -449 l 257
 248 201 l 257
 301 62 433 -23 605 -23 c 256
 896 -23 1108 183 1148 512 c 256
 1191 857 1028 1051 737 1051 c 256
 562 1051 419 972 328 831 c 257
 402 1450 l 257
 288 1450 l 257
 54 -449 l 257
615 61 m 256
 365 61 254 246 286 512 c 256
 314 740 437 965 726 965 c 256
 949 965 1072 801 1036 512 c 256
 1002 231 838 61 615 61 c 256
EndSplineSet
EndChar

StartChar: three
Encoding: 51 51 428
Width: 1177
VWidth: 0
Flags: W
PickledData: "(dp1
S'org.robofab.postScriptHintData'
p2
(dp3
sS'com.typemytype.robofont.layerData'
p4
(dp5
S'b'
(dp6
S'name'
p7
S'three'
p8
sS'lib'
p9
(dp10
sS'unicodes'
p11
(tsS'width'
p12
F1234.0999999999999
sS'contours'
p13
((dp14
S'points'
p15
((dp16
S'segmentType'
p17
S'curve'
p18
sS'x'
F344
sS'smooth'
p19
I01
sS'y'
F1010
s(dp20
S'y'
F827
sS'x'
F344
sg19
I00
s(dp21
S'y'
F687
sS'x'
F423
sg19
I00
s(dp22
g17
S'curve'
p23
sS'x'
F634
sg19
I01
sS'y'
F687
s(dp24
S'y'
F687
sS'x'
F814
sg19
I00
s(dp25
S'y'
F803
sS'x'
F938
sg19
I00
s(dp26
g17
S'curve'
p27
sS'x'
F938
sg19
I01
sS'y'
F991
s(dp28
S'y'
F1166
sS'x'
F938
sg19
I00
s(dp29
S'y'
F1334
sS'x'
F845
sg19
I00
s(dp30
g17
S'curve'
p31
sS'x'
F635
sg19
I01
sS'y'
F1334
s(dp32
S'y'
F1334
sS'x'
F449
sg19
I00
s(dp33
S'y'
F1196
sS'x'
F344
sg19
I00
stp34
s(dp35
g15
((dp36
g17
S'curve'
p37
sS'x'
F594
sg19
I01
sS'y'
F-24
s(dp38
S'y'
F-24
sS'x'
F473
sg19
I00
s(dp39
S'y'
F-1
sS'x'
F367
sg19
I00
s(dp40
g17
S'curve'
p41
sS'x'
F238
sg19
I00
sS'y'
F65
s(dp42
g17
S'line'
p43
sS'x'
F287
sg19
I00
sS'y'
F197
s(dp44
S'y'
F138
sS'x'
F401
sg19
I00
s(dp45
S'y'
F124
sS'x'
F489
sg19
I00
s(dp46
g17
S'curve'
p47
sS'x'
F581
sg19
I01
sS'y'
F124
s(dp48
S'y'
F124
sS'x'
F812
sg19
I00
s(dp49
S'y'
F308
sS'x'
F950
sg19
I00
s(dp50
g17
S'curve'
p51
sS'x'
F950
sg19
I01
sS'y'
F657
s(dp52
g17
S'line'
p53
sS'x'
F950
sg19
I00
sS'y'
F722
s(dp54
S'y'
F600
sS'x'
F886
sg19
I00
s(dp55
S'y'
F544
sS'x'
F772
sg19
I00
s(dp56
g17
S'curve'
p57
sS'x'
F607
sg19
I01
sS'y'
F544
s(dp58
S'y'
F544
sS'x'
F328
sg19
I00
s(dp59
S'y'
F735
sS'x'
F168
sg19
I00
s(dp60
g17
S'curve'
p61
sS'x'
F168
sg19
I01
sS'y'
F1004
s(dp62
S'y'
F1275
sS'x'
F168
sg19
I00
s(dp63
S'y'
F1483
sS'x'
F341
sg19
I00
s(dp64
g17
S'curve'
p65
sS'x'
F643
sg19
I01
sS'y'
F1483
s(dp66
S'y'
F1483
sS'x'
F969
sg19
I00
s(dp67
S'y'
F1231
sS'x'
F1125
sg19
I00
s(dp68
g17
S'curve'
p69
sS'x'
F1125
sg19
I01
sS'y'
F774
s(dp70
S'y'
F203
sS'x'
F1125
sg19
I00
s(dp71
S'y'
F-24
sS'x'
F894
sg19
I00
stp72
stp73
sS'components'
p74
(tsS'anchors'
p75
(tsss."
LayerCount: 2
Fore
SplineSet
446 -23 m 256
 747 -23 959 139 990 392 c 256
 1013 578 909 741 715 772 c 257
 903 808 1022 971 1040 1118 c 256
 1067 1340 913 1483 646 1483 c 256
 456 1483 273 1406 180 1283 c 257
 230 1224 l 257
 330 1343 494 1397 636 1397 c 256
 843 1397 963 1288 942 1118 c 256
 919 937 798 820 570 820 c 258
 461 820 l 257
 452 726 l 257
 558 724 l 258
 803 719 905 590 880 392 c 256
 856 192 689 63 456 63 c 256
 372 63 248 80 143 137 c 257
 112 56 l 257
 188 8 319 -23 446 -23 c 256
EndSplineSet
EndChar

StartChar: threequarters
Encoding: 190 190 429
Width: 1601
VWidth: 0
Flags: W
PickledData: "(dp1
S'org.robofab.postScriptHintData'
p2
(dp3
s."
LayerCount: 2
Fore
SplineSet
383 605 m 256
 535 605 644 697 662 840 c 256
 674 940 625 1021 537 1047 c 257
 623 1072 685 1143 695 1228 c 256
 712 1367 625 1456 472 1456 c 256
 369 1456 275 1413 232 1346 c 257
 273 1302 l 257
 325 1363 390 1386 465 1386 c 256
 568 1386 629 1322 617 1228 c 256
 606 1139 540 1078 418 1078 c 258
 321 1078 l 257
 312 1007 l 257
 409 1007 l 258
 539 1007 596 939 584 840 c 256
 572 741 493 674 391 674 c 256
 312 674 235 708 191 757 c 257
 144 695 l 257
 193 640 287 605 383 605 c 256
1249 0 m 257
 1323 0 l 257
 1345 184 l 257
 1431 184 l 257
 1441 256 l 257
 1358 256 l 257
 1423 786 l 257
 1324 786 l 257
 885 253 l 257
 876 184 l 257
 1271 184 l 257
 1249 0 l 257
321 0 m 257
 404 0 l 257
 1497 1456 l 257
 1429 1456 l 257
 321 0 l 257
971 256 m 257
 1332 697 l 257
 1278 256 l 257
 971 256 l 257
EndSplineSet
EndChar

StartChar: threesuperior
Encoding: 179 179 430
Width: 878
VWidth: 0
Flags: W
PickledData: "(dp1
S'org.robofab.postScriptHintData'
p2
(dp3
s."
LayerCount: 2
Fore
SplineSet
346 605 m 256
 498 605 607 697 625 840 c 256
 637 940 588 1021 500 1047 c 257
 586 1072 648 1143 658 1228 c 256
 675 1367 588 1456 435 1456 c 256
 332 1456 238 1413 195 1346 c 257
 236 1302 l 257
 288 1363 353 1386 428 1386 c 256
 531 1386 592 1322 580 1228 c 256
 569 1139 503 1078 381 1078 c 258
 284 1078 l 257
 275 1007 l 257
 372 1007 l 258
 502 1007 559 939 547 840 c 256
 534 741 456 674 354 674 c 256
 275 674 197 708 153 757 c 257
 107 695 l 257
 156 640 250 605 346 605 c 256
EndSplineSet
EndChar

StartChar: tilde
Encoding: 732 732 431
Width: 573
VWidth: 0
Flags: W
PickledData: "(dp1
S'org.robofab.postScriptHintData'
p2
(dp3
sS'com.typemytype.robofont.layerData'
p4
(dp5
S'b'
(dp6
S'name'
p7
S'tilde'
p8
sS'lib'
p9
(dp10
sS'unicodes'
p11
(tsS'width'
p12
F672.35000000000002
sS'contours'
p13
(tsS'components'
p14
(tsS'anchors'
p15
(tsss."
AnchorPoint: "top" 262 1026 mark 0
LayerCount: 2
Fore
SplineSet
442 1233 m 256
 525 1233 552 1307 562 1383 c 257
 496 1383 l 257
 489 1330 483 1297 443 1297 c 256
 370 1297 242 1394 148 1394 c 256
 72 1394 23 1345 11 1250 c 257
 73 1250 l 257
 79 1300 100 1330 145 1330 c 256
 218 1330 350 1233 442 1233 c 256
EndSplineSet
EndChar

StartChar: trademark
Encoding: 8482 8482 432
Width: 1869
VWidth: 0
Flags: W
PickledData: "(dp1
S'org.robofab.postScriptHintData'
p2
(dp3
sS'com.typemytype.robofont.layerData'
p4
(dp5
S'b'
(dp6
S'name'
p7
S'trademark'
p8
sS'lib'
p9
(dp10
sS'unicodes'
p11
(tsS'width'
p12
F1869
sS'contours'
p13
(tsS'components'
p14
(tsS'anchors'
p15
(tsss."
LayerCount: 2
Fore
SplineSet
779 731 m 257
 841 731 l 257
 926 1425 l 257
 1163 731 l 257
 1206 731 l 257
 1629 1419 l 257
 1545 731 l 257
 1605 731 l 257
 1697 1482 l 257
 1609 1482 l 257
 1198 825 l 257
 979 1482 l 257
 871 1482 l 257
 779 731 l 257
301 731 m 257
 372 731 l 257
 458 1430 l 257
 749 1430 l 257
 755 1482 l 257
 113 1482 l 257
 107 1430 l 257
 387 1430 l 257
 301 731 l 257
EndSplineSet
EndChar

StartChar: two
Encoding: 50 50 433
Width: 1212
VWidth: 0
Flags: W
PickledData: "(dp1
S'org.robofab.postScriptHintData'
p2
(dp3
sS'com.typemytype.robofont.layerData'
p4
(dp5
S'b'
(dp6
S'name'
p7
S'two'
p8
sS'lib'
p9
(dp10
sS'unicodes'
p11
(tsS'width'
p12
F1244.5
sS'contours'
p13
(tsS'components'
p14
(tsS'anchors'
p15
(tsss."
LayerCount: 2
Fore
SplineSet
127 0 m 257
 936 0 l 257
 947 86 l 257
 248 86 l 257
 753 590 l 258
 936 771 1051 896 1074 1084 c 256
 1098 1276 1014 1483 676 1483 c 256
 542 1483 393 1445 263 1373 c 257
 291 1294 l 257
 411 1358 547 1394 666 1394 c 256
 929 1394 993 1244 971 1068 c 256
 953 920 878 829 698 649 c 258
 138 90 l 257
 127 0 l 257
EndSplineSet
EndChar

StartChar: twosuperior
Encoding: 178 178 434
Width: 942
VWidth: 0
Flags: W
PickledData: "(dp1
S'org.robofab.postScriptHintData'
p2
(dp3
s."
LayerCount: 2
Fore
SplineSet
141 631 m 257
 654 631 l 257
 663 700 l 257
 247 700 l 257
 524 952 l 258
 676 1090 713 1146 725 1251 c 256
 739 1359 672 1456 510 1456 c 256
 362 1456 256 1371 235 1226 c 257
 310 1222 l 257
 331 1352 414 1392 502 1392 c 256
 630 1392 659 1317 650 1248 c 256
 642 1178 613 1129 480 1006 c 258
 150 701 l 257
 141 631 l 257
EndSplineSet
EndChar

StartChar: u
Encoding: 117 117 435
Width: 1285
VWidth: 0
Flags: W
PickledData: "(dp1
S'org.robofab.postScriptHintData'
p2
(dp3
sS'com.typemytype.robofont.layerData'
p4
(dp5
S'b'
(dp6
S'name'
p7
S'u'
sS'lib'
p8
(dp9
sS'unicodes'
p10
(tsS'width'
p11
F1227.2
sS'contours'
p12
(tsS'components'
p13
(tsS'anchors'
p14
(tsss."
AnchorPoint: "top" 717 1026 basechar 0
AnchorPoint: "ogonek" 958 0 basechar 0
LayerCount: 2
Fore
SplineSet
519 -26 m 256
 696 -26 836 55 939 191 c 257
 925 0 l 257
 1014 0 l 257
 1017 53 1022 113 1036 225 c 258
 1135 1026 l 257
 1037 1026 l 257
 954 355 l 258
 943 260 784 56 529 56 c 256
 337 56 256 178 285 408 c 258
 361 1026 l 257
 263 1026 l 257
 187 412 l 258
 152 125 263 -26 519 -26 c 256
EndSplineSet
EndChar

StartChar: underscore
Encoding: 95 95 446
Width: 847
VWidth: 0
Flags: W
PickledData: "(dp1
S'org.robofab.postScriptHintData'
p2
(dp3
s."
LayerCount: 2
Fore
SplineSet
2 -286 m 257
 835 -286 l 257
 845 -206 l 257
 12 -206 l 257
 2 -286 l 257
EndSplineSet
EndChar

StartChar: uni0307
Encoding: 775 775 459
Width: 524
VWidth: 0
Flags: W
PickledData: "(dp1
S'org.robofab.postScriptHintData'
p2
(dp3
s."
AnchorPoint: "top" 227 1026 mark 0
LayerCount: 2
Fore
SplineSet
174 1246 m 257
 332 1246 l 257
 349 1409 l 257
 192 1409 l 257
 174 1246 l 257
EndSplineSet
EndChar

StartChar: uni030F
Encoding: 783 783 460
Width: 969
VWidth: 0
Flags: W
PickledData: "(dp1
S'org.robofab.postScriptHintData'
p2
(dp3
s."
AnchorPoint: "top" 598 1026 mark 0
LayerCount: 2
Fore
SplineSet
470 1174 m 257
 530 1174 l 257
 348 1487 l 257
 232 1487 l 257
 470 1174 l 257
739 1174 m 257
 797 1174 l 257
 618 1487 l 257
 502 1487 l 257
 739 1174 l 257
EndSplineSet
EndChar

StartChar: uni0311
Encoding: 785 785 461
Width: 629
VWidth: 0
Flags: W
PickledData: "(dp1
S'org.robofab.postScriptHintData'
p2
(dp3
s."
AnchorPoint: "top" 276 1026 mark 0
LayerCount: 2
Fore
SplineSet
37 1225 m 257
 110 1225 l 257
 129 1319 224 1364 314 1364 c 256
 406 1364 494 1317 495 1225 c 257
 566 1225 l 257
 575 1369 454 1442 324 1442 c 256
 196 1442 59 1370 37 1225 c 257
EndSplineSet
EndChar

StartChar: uni0312
Encoding: 786 786 462
Width: 600
VWidth: 0
Flags: W
PickledData: "(dp1
S'org.robofab.postScriptHintData'
p2
(dp3
s."
AnchorPoint: "top" 223 1026 mark 0
LayerCount: 2
Fore
SplineSet
470 1683 m 257
 400 1683 l 257
 196 1250 l 257
 313 1250 l 257
 470 1683 l 257
EndSplineSet
EndChar

StartChar: uni0326
Encoding: 806 806 463
Width: 540
VWidth: 0
Flags: W
PickledData: "(dp1
S'org.robofab.postScriptHintData'
p2
(dp3
s."
AnchorPoint: "bot" 352 0 mark 0
LayerCount: 2
Fore
SplineSet
133 -557 m 257
 203 -557 l 257
 407 -124 l 257
 290 -124 l 257
 133 -557 l 257
EndSplineSet
EndChar

StartChar: uni2015
Encoding: 8213 8213 464
Width: 4095
VWidth: 0
Flags: W
PickledData: "(dp1
S'org.robofab.postScriptHintData'
p2
(dp3
s."
LayerCount: 2
Fore
SplineSet
65 515 m 257
 4018 515 l 257
 4030 615 l 257
 77 615 l 257
 65 515 l 257
EndSplineSet
EndChar

StartChar: v
Encoding: 118 118 469
Width: 949
VWidth: 0
Flags: W
PickledData: "(dp1
S'org.robofab.postScriptHintData'
p2
(dp3
sS'com.typemytype.robofont.layerData'
p4
(dp5
S'b'
(dp6
S'name'
p7
S'v'
sS'lib'
p8
(dp9
sS'unicodes'
p10
(tsS'width'
p11
F1056.8
sS'contours'
p12
(tsS'components'
p13
(tsS'anchors'
p14
(tsss."
LayerCount: 2
Fore
SplineSet
361 0 m 257
 471 0 l 257
 1020 1026 l 257
 919 1026 l 257
 490 210 l 257
 426 78 l 257
 394 210 l 257
 165 1026 l 257
 64 1026 l 257
 361 0 l 257
EndSplineSet
EndChar

StartChar: w
Encoding: 119 119 470
Width: 1553
VWidth: 0
Flags: W
PickledData: "(dp1
S'org.robofab.postScriptHintData'
p2
(dp3
sS'com.typemytype.robofont.layerData'
p4
(dp5
S'b'
(dp6
S'name'
p7
S'w'
sS'lib'
p8
(dp9
sS'unicodes'
p10
(tsS'width'
p11
F1634.0999999999999
sS'contours'
p12
(tsS'components'
p13
(tsS'anchors'
p14
(tsss."
AnchorPoint: "top" 856 1026 basechar 0
LayerCount: 2
Fore
SplineSet
279 0 m 257
 407 0 l 257
 784 800 l 257
 847 939 l 257
 875 800 l 257
 1039 0 l 257
 1167 0 l 257
 1571 1026 l 257
 1462 1026 l 257
 1143 182 l 257
 1113 102 l 257
 1097 182 l 257
 918 1026 l 257
 790 1026 l 257
 397 182 l 257
 361 102 l 257
 348 182 l 257
 213 1026 l 257
 107 1026 l 257
 279 0 l 257
EndSplineSet
EndChar

StartChar: x
Encoding: 120 120 475
Width: 1114
VWidth: 0
Flags: W
PickledData: "(dp1
S'org.robofab.postScriptHintData'
p2
(dp3
sS'com.typemytype.robofont.layerData'
p4
(dp5
S'b'
(dp6
S'name'
p7
S'x'
sS'lib'
p8
(dp9
sS'unicodes'
p10
(tsS'width'
p11
F1062.8499999999999
sS'contours'
p12
(tsS'components'
p13
(tsS'anchors'
p14
(tsss."
LayerCount: 2
Fore
SplineSet
-5 0 m 257
 107 0 l 257
 552 460 l 257
 882 0 l 257
 989 0 l 257
 614 511 l 257
 1097 1026 l 257
 982 1026 l 257
 563 582 l 257
 265 1026 l 257
 154 1030 l 257
 503 526 l 257
 -5 0 l 257
EndSplineSet
EndChar

StartChar: y
Encoding: 121 121 476
Width: 983
VWidth: 0
Flags: W
PickledData: "(dp1
S'org.robofab.postScriptHintData'
p2
(dp3
sS'com.typemytype.robofont.layerData'
p4
(dp5
S'b'
(dp6
S'name'
p7
S'y'
sS'lib'
p8
(dp9
sS'unicodes'
p10
(tsS'width'
p11
F1065.05
sS'contours'
p12
(tsS'components'
p13
(tsS'anchors'
p14
(tsss."
AnchorPoint: "top" 609 1026 basechar 0
LayerCount: 2
Fore
SplineSet
68 -417 m 257
 304 -375 431 -199 503 -52 c 258
 1048 1026 l 257
 952 1026 l 257
 485 97 l 257
 257 1026 l 257
 151 1026 l 257
 421 -21 l 257
 390 -79 l 258
 342 -167 262 -290 44 -345 c 257
 68 -417 l 257
EndSplineSet
EndChar

StartChar: yen
Encoding: 165 165 480
Width: 1143
VWidth: 0
Flags: W
PickledData: "(dp1
S'org.robofab.postScriptHintData'
p2
(dp3
sS'com.typemytype.robofont.layerData'
p4
(dp5
S'b'
(dp6
S'name'
p7
S'yen'
p8
sS'lib'
p9
(dp10
sS'unicodes'
p11
(tsS'width'
p12
F1225.45
sS'contours'
p13
(tsS'components'
p14
(tsS'anchors'
p15
(tsss."
LayerCount: 2
Fore
SplineSet
185 349 m 257
 850 349 l 257
 859 415 l 257
 556 415 l 257
 570 533 l 257
 875 533 l 257
 883 599 l 257
 216 599 l 257
 208 533 l 257
 525 533 l 257
 511 415 l 257
 194 415 l 257
 185 349 l 257
EndSplineSet
Refer: 159 89 N 1 0 0 1 0 0 2
EndChar

StartChar: z
Encoding: 122 122 484
Width: 934
VWidth: 0
Flags: W
PickledData: "(dp1
S'org.robofab.postScriptHintData'
p2
(dp3
sS'com.typemytype.robofont.layerData'
p4
(dp5
S'b'
(dp6
S'name'
p7
S'z'
sS'lib'
p8
(dp9
sS'unicodes'
p10
(tsS'width'
p11
F971.85000000000002
sS'contours'
p12
(tsS'components'
p13
(tsS'anchors'
p14
(tsss."
AnchorPoint: "top" 523 1026 basechar 0
LayerCount: 2
Fore
SplineSet
27 0 m 257
 780 0 l 257
 790 82 l 257
 167 82 l 257
 911 969 l 257
 918 1026 l 257
 178 1026 l 257
 168 944 l 257
 783 944 l 257
 34 59 l 257
 27 0 l 257
EndSplineSet
EndChar

StartChar: zero
Encoding: 48 48 488
Width: 1177
VWidth: 0
Flags: W
PickledData: "(dp1
S'org.robofab.postScriptHintData'
p2
(dp3
s."
LayerCount: 2
Fore
SplineSet
516 63 m 256
 278 63 180 291 233 722 c 256
 287 1164 442 1397 680 1397 c 256
 906 1397 996 1164 942 722 c 256
 889 291 742 63 516 63 c 256
506 -23 m 256
 804 -23 992 235 1052 722 c 256
 1113 1220 988 1483 690 1483 c 256
 380 1483 184 1220 123 722 c 256
 63 235 196 -23 506 -23 c 256
EndSplineSet
EndChar
